<?xml version="1.0" standalone="no"?>
<!DOCTYPE svg PUBLIC "-//W3C//DTD SVG 1.1//EN" "http://www.w3.org/Graphics/SVG/1.1/DTD/svg11.dtd" >
<svg>
<metadata>
Created by FontForge 20120731 at Sat Jun 30 12:19:52 2018
 By www
Copyright (c) 2014 by Vyacheslav Kirilenko, Gayane Bagdasaryan. All rights reserved.
</metadata>
<defs>
<font id="GerberaW04-Bold" horiz-adv-x="600" >
  <font-face 
    font-family="GerberaW04-Bold"
    font-weight="700"
    font-stretch="normal"
    units-per-em="1000"
    panose-1="2 0 8 0 0 0 0 0 0 0"
    ascent="800"
    descent="-200"
    x-height="515"
    cap-height="718"
    bbox="-169 -286 1414 1036"
    underline-thickness="50"
    underline-position="-75"
    unicode-range="U+0020-FB02"
  />
<missing-glyph horiz-adv-x="575" 
 />
    <glyph glyph-name=".notdef" horiz-adv-x="575" 
 />
    <glyph glyph-name=".null" horiz-adv-x="0" 
 />
    <glyph glyph-name="nonmarkingreturn" horiz-adv-x="333" 
 />
    <glyph glyph-name="space" unicode=" " horiz-adv-x="270" 
 />
    <glyph glyph-name="exclam" unicode="!" horiz-adv-x="384" 
d="M245 218h-106l-28 500h162zM110 68q0 33 24.5 57.5t57.5 24.5t57.5 -24.5t24.5 -57.5t-24.5 -57.5t-57.5 -24.5t-57.5 24.5t-24.5 57.5z" />
    <glyph glyph-name="quotedbl" unicode="&#x22;" horiz-adv-x="426" 
d="M66 454l-18 264h138l-18 -264h-102zM258 454l-18 264h138l-18 -264h-102z" />
    <glyph glyph-name="numbersign" unicode="#" horiz-adv-x="650" 
d="M220 91h-104l29 167h-85v112h105l16 90h-93v112h112l26 146h105l-26 -146h94l26 146h104l-26 -146h87v-112h-107l-16 -90h95v-112h-115l-29 -167h-104l29 167h-94zM285 460l-16 -90h94l16 90h-94z" />
    <glyph glyph-name="dollar" unicode="$" horiz-adv-x="503" 
d="M442 636l-26 -124q-32 35 -76.5 56.5t-89.5 21.5q-18 0 -34 -5t-23 -15.5t-7 -21.5q0 -23 48 -62q8 -6 58.5 -46.5t77.5 -64.5q34 -30 57.5 -61t33 -64t9.5 -61q0 -75 -43 -127.5t-114 -68.5v-104h-117v103q-43 9 -81.5 31t-58.5 45.5t-27 40.5l39 124q13 -20 40.5 -44.5
t70 -42.5t82.5 -18q22 0 41 8t27 22.5t8 29.5q0 37 -49 76q-12 10 -51.5 42t-66.5 55.5t-47 44.5q-32 34 -51 69.5t-19 78.5q0 69 41 113.5t102 58.5v103h117v-105q42 -11 76.5 -35.5t52.5 -52.5z" />
    <glyph glyph-name="percent" unicode="%" horiz-adv-x="931" 
d="M317 0h-114l412 718h114zM410 544q0 -37 -12 -66.5t-32 -53.5t-56.5 -44t-85.5 -20q-29 0 -60.5 9.5t-59.5 33t-47 59.5t-19 82q0 37 12 66.5t32 53.5t56.5 44t85.5 20q29 0 60.5 -9.5t59.5 -33t47 -59.5t19 -82zM294 544q0 27 -19.5 45.5t-50.5 18.5t-50.5 -18.5
t-19.5 -45.5t19.5 -45.5t50.5 -18.5t50.5 18.5t19.5 45.5zM893 174q0 -37 -12 -66.5t-32 -53.5t-56.5 -44t-85.5 -20q-29 0 -60.5 9.5t-59.5 33t-47 59.5t-19 82q0 37 12 66.5t32 53.5t56.5 44t85.5 20q29 0 60.5 -9.5t59.5 -33t47 -59.5t19 -82zM777 174q0 27 -19.5 45.5
t-50.5 18.5t-50.5 -18.5t-19.5 -45.5t19.5 -45.5t50.5 -18.5t50.5 18.5t19.5 45.5z" />
    <glyph glyph-name="ampersand" unicode="&#x26;" horiz-adv-x="646" 
d="M651 0h-145l-61 71q-83 -85 -199 -85q-58 0 -107.5 26t-74 73.5t-24.5 97.5q0 113 131 203l3 2q-41 47 -60 84.5t-19 78.5q0 26 9 56t35 61.5t65.5 47.5t79.5 16q31 0 64 -9t64 -34t46 -62.5t15 -75.5q0 -36 -21 -72.5t-51.5 -65t-57.5 -48.5l90 -107q30 51 62 135
l58 -128q-19 -58 -41 -100zM259 126q55 0 104 41l-113 132q-47 -34 -61.5 -57t-14.5 -46q0 -30 23 -50t62 -20zM221 541q0 -30 34 -72l13 -16l8 5q42 29 56.5 48.5t14.5 35.5q0 26 -18 40.5t-45 14.5t-45 -16t-18 -40z" />
    <glyph glyph-name="quotesingle" unicode="'" horiz-adv-x="234" 
d="M66 454l-18 264h138l-18 -264h-102z" />
    <glyph glyph-name="parenleft" unicode="(" horiz-adv-x="387" 
d="M236 722l111 -10q-74 -98 -109 -212t-35 -227q0 -110 35 -223.5t109 -212.5l-111 -10q-49 57 -83.5 125t-53.5 149.5t-19 171.5q0 60 12 140t48.5 161.5t95.5 147.5z" />
    <glyph glyph-name="parenright" unicode=")" horiz-adv-x="387" 
d="M40 712l111 10q49 -55 83.5 -123t53.5 -151t19 -175q0 -90 -19 -171.5t-53.5 -149.5t-83.5 -125l-111 10q74 99 109 212.5t35 223.5q0 113 -35 227t-109 212z" />
    <glyph glyph-name="asterisk" unicode="*" horiz-adv-x="503" 
d="M166 287l-86 63l85 118l-140 46l34 102l138 -44v146h108v-146l139 45l34 -103l-140 -46l85 -118l-86 -63l-86 118z" />
    <glyph glyph-name="plus" unicode="+" horiz-adv-x="548" 
d="M50 354h171v167h106v-167h171v-114h-171v-167h-106v167h-171v114z" />
    <glyph glyph-name="comma" unicode="," horiz-adv-x="314" 
d="M64 -140l64 137q-22 5 -39.5 26t-17.5 52q0 16 8.5 36t30.5 34.5t49 14.5q17 0 36.5 -8.5t33.5 -31t14 -48.5q0 -45 -34 -102l-65 -110h-80z" />
    <glyph glyph-name="hyphen" unicode="-" horiz-adv-x="470" 
d="M70 332h330v-110h-330v110z" />
    <glyph glyph-name="period" unicode="." horiz-adv-x="314" 
d="M70 73q0 36 25.5 61.5t61.5 25.5t61.5 -25.5t25.5 -61.5t-25.5 -61.5t-61.5 -25.5t-61.5 25.5t-25.5 61.5z" />
    <glyph glyph-name="slash" unicode="/" horiz-adv-x="484" 
d="M484 718l-364 -887h-120l364 887h120z" />
    <glyph glyph-name="zero" unicode="0" horiz-adv-x="610" 
d="M305 732q115 0 182.5 -99.5t67.5 -275.5q0 -85 -16.5 -154t-48.5 -117.5t-78.5 -74t-104.5 -25.5q-60 0 -107.5 26t-79.5 75.5t-48.5 119t-16.5 153.5q0 85 17 154.5t49.5 118t79 74t104.5 25.5zM305 590q-51 0 -83.5 -58.5t-32.5 -174.5q0 -58 11.5 -112t40 -85.5
t65.5 -31.5q50 0 82.5 60t32.5 170q0 107 -32 169.5t-84 62.5z" />
    <glyph glyph-name="one" unicode="1" horiz-adv-x="429" 
d="M55 442v141l171 135h103v-718h-131v540z" />
    <glyph glyph-name="two" unicode="2" horiz-adv-x="542" 
d="M242 590q-37 0 -75 -21t-70 -74l-56 94q12 44 44.5 76.5t75 49.5t91.5 17q38 0 77 -11.5t70.5 -38t52 -68.5t20.5 -97t-19.5 -102t-51.5 -88.5t-68 -82.5l-88 -102h244v-142h-445v112l201 223q50 56 71.5 91t21.5 74q0 17 -9 38t-33 36.5t-54 15.5z" />
    <glyph glyph-name="three" unicode="3" horiz-adv-x="546" 
d="M247 128q39 0 68.5 16t40.5 40t11 45q0 19 -10.5 41.5t-38.5 37.5t-66 15q-23 0 -46 -5.5t-35 -12.5l-22 101l137 170h-214v142h389v-103l-134 -166q48 -8 87.5 -37t63 -74.5t23.5 -108.5q0 -49 -18 -93.5t-52 -78t-81.5 -52.5t-102.5 -19q-77 0 -136.5 34.5t-77.5 78.5
l33 116q64 -87 181 -87z" />
    <glyph glyph-name="four" unicode="4" horiz-adv-x="529" 
d="M20 314l283 404h119v-376h82v-142h-82v-200h-131v200h-271v114zM166 342h125v179z" />
    <glyph glyph-name="five" unicode="5" horiz-adv-x="558" 
d="M257 128q50 0 83.5 27t33.5 72q0 21 -11 44t-38.5 37.5t-58.5 14.5q-27 0 -55.5 -8.5t-47.5 -25.5l-90 25l35 404h354v-142h-249l-11 -123q15 6 38 9.5t39 3.5q35 0 74 -11.5t77.5 -44t58 -81.5t19.5 -98q0 -52 -19 -97.5t-53 -78.5t-79.5 -51t-95.5 -18
q-41 0 -85.5 12.5t-80.5 41.5t-46 59l33 117q30 -42 75.5 -65t99.5 -23z" />
    <glyph glyph-name="six" unicode="6" horiz-adv-x="577" 
d="M279 472l18 1q45 0 88 -18t76.5 -50.5t52.5 -76.5t19 -92q0 -24 -6.5 -55.5t-24 -64t-43.5 -58t-57.5 -42.5t-61.5 -23.5t-53 -6.5q-50 0 -95 18.5t-78 52.5t-51.5 79t-18.5 96q0 41 15.5 91.5t57.5 119.5l168 275h147zM399 229q0 21 -11 45t-38.5 40.5t-60.5 16.5
q-21 0 -47 -9.5t-45 -35t-19 -57.5q0 -44 32.5 -72.5t78.5 -28.5q33 0 60.5 16t38.5 40t11 45z" />
    <glyph glyph-name="seven" unicode="7" horiz-adv-x="521" 
d="M79 0l241 576h-275v142h431v-102l-259 -616h-138z" />
    <glyph glyph-name="eight" unicode="8" horiz-adv-x="586" 
d="M442 375q39 -25 64 -70t25 -97q0 -45 -18 -86t-50.5 -71.5t-76.5 -47.5t-93 -17t-93 17t-76.5 47.5t-50.5 71.5t-18 86q0 52 24.5 97t63.5 70q-29 21 -49.5 60t-20.5 84q0 43 16 82t46 68.5t70.5 46t87.5 16.5q35 0 72.5 -11t74 -41t55 -74t18.5 -87q0 -45 -21 -84
t-50 -60zM293 590q-39 0 -63 -23t-24 -53t24 -52.5t63 -22.5t62.5 22.5t23.5 52.5t-23.5 53t-62.5 23zM293 128q33 0 59 15t35.5 35.5t9.5 37.5q0 37 -29.5 63t-74.5 26t-75 -26t-30 -63q0 -17 10 -37.5t36 -35.5t59 -15z" />
    <glyph glyph-name="nine" unicode="9" horiz-adv-x="577" 
d="M298 246l-18 -1q-45 0 -88 18t-76.5 50.5t-52.5 76.5t-19 92q0 24 6.5 55.5t24 64t43.5 58t57.5 42.5t61.5 23.5t53 6.5q50 0 95 -18.5t78 -52.5t51.5 -79t18.5 -96q0 -41 -15.5 -91.5t-57.5 -119.5l-168 -275h-147zM178 489q0 -21 11 -45t38.5 -40.5t60.5 -16.5
q21 0 47 9.5t45 35t19 57.5q0 44 -32.5 72.5t-78.5 28.5q-33 0 -60.5 -16t-38.5 -40t-11 -45z" />
    <glyph glyph-name="colon" unicode=":" horiz-adv-x="314" 
d="M70 73q0 36 25.5 61.5t61.5 25.5t61.5 -25.5t25.5 -61.5t-25.5 -61.5t-61.5 -25.5t-61.5 25.5t-25.5 61.5zM70 441q0 36 25.5 61.5t61.5 25.5t61.5 -25.5t25.5 -61.5t-25.5 -61.5t-61.5 -25.5t-61.5 25.5t-25.5 61.5z" />
    <glyph glyph-name="semicolon" unicode=";" horiz-adv-x="314" 
d="M64 -140l64 137q-22 5 -39.5 26t-17.5 52q0 16 8.5 36t30.5 34.5t49 14.5q17 0 36.5 -8.5t33.5 -31t14 -48.5q0 -45 -34 -102l-65 -110h-80zM68 441q0 36 25.5 61.5t61.5 25.5t61.5 -25.5t25.5 -61.5t-25.5 -61.5t-61.5 -25.5t-61.5 25.5t-25.5 61.5z" />
    <glyph glyph-name="less" unicode="&#x3c;" horiz-adv-x="548" 
d="M50 348l448 190v-125l-272 -116l272 -115v-125l-448 190v101z" />
    <glyph glyph-name="equal" unicode="=" horiz-adv-x="548" 
d="M498 345h-448v114h448v-114zM498 135h-448v114h448v-114z" />
    <glyph glyph-name="greater" unicode="&#x3e;" horiz-adv-x="548" 
d="M498 247l-448 -190v125l272 116l-272 115v125l448 -190v-101z" />
    <glyph glyph-name="question" unicode="?" horiz-adv-x="479" 
d="M151 68q0 33 24.5 57.5t57.5 24.5t57.5 -24.5t24.5 -57.5t-24.5 -57.5t-57.5 -24.5t-57.5 24.5t-24.5 57.5zM89 541l-29 99q22 38 63 61t71.5 27t41.5 4q78 0 125.5 -42t47.5 -109q0 -25 -11 -54t-41 -57t-75 -54q-30 -18 -49.5 -33.5t-19.5 -31.5q0 -12 9.5 -19t28.5 -7
q25 0 54.5 14t52.5 37l21 -102q-19 -30 -57 -50.5t-84 -20.5q-65 0 -107.5 38t-42.5 96q0 44 27.5 83t95.5 83q32 21 53 38t21 35q0 17 -15 26.5t-38 9.5q-33 0 -72.5 -16.5t-70.5 -54.5z" />
    <glyph glyph-name="at" unicode="@" horiz-adv-x="956" 
d="M558 166v33q-6 11 -28.5 19.5t-50.5 8.5q-39 0 -61.5 -13t-22.5 -36t22 -35.5t62 -12.5q25 0 48.5 10t30.5 26zM661 310v-108q0 -28 14.5 -47t39.5 -19q21 0 39 15.5t27.5 51t9.5 70.5q0 64 -25 120.5t-68.5 97.5t-100 63.5t-115.5 22.5q-64 0 -122 -25.5t-102 -70.5
t-68.5 -105.5t-24.5 -126.5q0 -67 22.5 -127t64.5 -104.5t101.5 -69.5t130.5 -25q55 0 98 13t81 43l19 -89q-33 -33 -85.5 -51.5t-112.5 -18.5q-85 0 -161.5 32.5t-133 91.5t-88 138t-31.5 168q0 64 21 136t71.5 136.5t112 100t113.5 46.5t92 11q38 0 87.5 -10t102 -37
t94.5 -68t71 -93.5t40 -104t11 -92.5q0 -49 -9.5 -92.5t-30 -77t-54.5 -53t-80 -19.5q-30 0 -60 11t-62 45q-16 -23 -55 -39.5t-81 -16.5q-54 0 -90.5 19.5t-55 50t-18.5 71.5q0 40 22.5 73t63 49.5t82.5 16.5q28 0 57.5 -7.5t42.5 -22.5v10q0 23 -10.5 41.5t-32.5 27
t-49 8.5q-39 0 -76.5 -16.5t-55.5 -40.5l-24 88q22 33 70 55.5t95 22.5q82 0 134 -45t52 -124z" />
    <glyph glyph-name="A" unicode="A" horiz-adv-x="707" 
d="M418 718l283 -718h-138l-58 147h-300l-58 -147h-141l283 718h129zM355 528l-96 -242h191z" />
    <glyph glyph-name="B" unicode="B" horiz-adv-x="583" 
d="M85 718h182q75 0 127.5 -26t79.5 -69t27 -102q0 -86 -62 -138q46 -23 72.5 -67t26.5 -106q0 -35 -12.5 -72t-46.5 -71t-83 -50.5t-97 -16.5h-214v718zM289 584h-73v-160h74q24 0 44 13t28 32t8 35q0 32 -23.5 56t-57.5 24zM324 298h-108v-164h109q34 0 58 24t24 58
q0 15 -8 34t-28.5 33.5t-46.5 14.5z" />
    <glyph glyph-name="C" unicode="C" horiz-adv-x="704" 
d="M632 233l41 -119q-32 -55 -103.5 -91.5t-168.5 -36.5q-71 0 -137.5 27t-118 77t-81 119.5t-29.5 149.5t29.5 149.5t81 119.5t118 77t137.5 27q91 0 163.5 -36.5t103.5 -90.5l-41 -116q-31 43 -89 72t-127 29q-52 0 -97 -16t-77.5 -46.5t-50 -73.5t-17.5 -95t17.5 -95
t50 -73.5t77.5 -46.5t97 -16q36 0 79 10.5t81 36.5t61 58z" />
    <glyph glyph-name="D" unicode="D" horiz-adv-x="735" 
d="M566 359q0 56 -27.5 108.5t-80 80.5t-110.5 28h-132v-434h132q45 0 85 15.5t70 44.5t46.5 69.5t16.5 87.5zM85 718h225q83 0 155.5 -24t124.5 -70.5t81 -114t29 -150.5q0 -82 -29 -149.5t-82 -114t-125 -71t-154 -24.5h-225v718z" />
    <glyph glyph-name="E" unicode="E" horiz-adv-x="541" 
d="M85 0v718h396v-142h-265v-136h235v-142h-235v-156h265v-142h-396z" />
    <glyph glyph-name="F" unicode="F" horiz-adv-x="494" 
d="M85 0v718h359v-142h-228v-136h208v-142h-208v-298h-131z" />
    <glyph glyph-name="G" unicode="G" horiz-adv-x="749" 
d="M401 732q90 0 163 -37t104 -91l-41 -116q-23 30 -61.5 55.5t-80 36t-74.5 10.5q-53 0 -98 -16.5t-77 -47t-49.5 -73.5t-17.5 -94q0 -25 6 -56.5t22 -61t44.5 -55.5t74.5 -42t100 -16q91 0 150 51v73h-155v137h283v-253q-25 -39 -66.5 -75t-101 -55.5t-124.5 -19.5
q-71 0 -138 27t-118.5 77t-81 119.5t-29.5 148.5q0 80 29.5 149.5t81 119.5t118 77.5t137.5 27.5z" />
    <glyph glyph-name="H" unicode="H" horiz-adv-x="766" 
d="M85 0v718h131v-278h334v278h131v-718h-131v298h-334v-298h-131z" />
    <glyph glyph-name="I" unicode="I" horiz-adv-x="301" 
d="M85 0v718h131v-718h-131z" />
    <glyph glyph-name="J" unicode="J" horiz-adv-x="428" 
d="M348 718v-533q0 -95 -47.5 -147t-140.5 -52q-40 0 -81.5 19.5t-58.5 47.5l14 128q48 -53 111 -53q33 0 52.5 20.5t19.5 64.5v505h131z" />
    <glyph glyph-name="K" unicode="K" horiz-adv-x="667" 
d="M85 0v718h131v-274l244 274h168l-303 -341l342 -377h-181l-270 297v-297h-131z" />
    <glyph glyph-name="L" unicode="L" horiz-adv-x="485" 
d="M85 0v718h131v-576h249v-142h-380z" />
    <glyph glyph-name="M" unicode="M" horiz-adv-x="958" 
d="M479 208l193 510h135l96 -718h-132l-61 462l-167 -462h-121l-167 462l-61 -462h-139l96 718h135z" />
    <glyph glyph-name="N" unicode="N" horiz-adv-x="766" 
d="M85 0v718h131l334 -487v487h131v-718h-132l-333 484v-484h-131z" />
    <glyph glyph-name="O" unicode="O" horiz-adv-x="810" 
d="M405 732q93 0 178 -45t138.5 -132t53.5 -196q0 -77 -29 -146t-81 -120t-119.5 -79t-140.5 -28t-140.5 28t-119.5 79t-81 120t-29 146t29 146t81 120t119.5 79t140.5 28zM405 590q-49 0 -92.5 -16.5t-75.5 -47.5t-50 -74t-18 -93t18 -93t50 -74t75.5 -47.5t92.5 -16.5
t92 16.5t75 47.5t50 74t18 93q0 37 -12 77t-44.5 78t-81 57t-97.5 19z" />
    <glyph glyph-name="P" unicode="P" horiz-adv-x="550" 
d="M85 718h206q61 0 117.5 -27.5t86.5 -81.5t30 -115q0 -35 -11.5 -73.5t-43 -75.5t-80 -55.5t-98.5 -18.5h-76v-271h-131v718zM311 577h-95v-165h95q35 0 59 23t24 59q0 35 -23.5 59t-59.5 24z" />
    <glyph glyph-name="Q" unicode="Q" horiz-adv-x="809" 
d="M405 732q93 0 178 -45t138.5 -132t53.5 -196q0 -68 -22.5 -129.5t-63 -110t-95.5 -81t-116 -44.5q3 -14 12 -28t26.5 -22t35.5 -8q21 0 43.5 7.5t51.5 34.5l11 -115q-51 -56 -131 -56q-86 0 -129 48t-44 135q-65 9 -123.5 40.5t-102.5 80.5t-68.5 113.5t-24.5 134.5
q0 77 29 146t81 120t119.5 79t140.5 28zM405 590q-49 0 -92.5 -16.5t-75.5 -47.5t-50 -74t-18 -93t18 -93t50 -74t75.5 -47.5t92.5 -16.5t92 16.5t75 47.5t50 74t18 93q0 37 -12 77t-44.5 78t-81 57t-97.5 19z" />
    <glyph glyph-name="R" unicode="R" horiz-adv-x="571" 
d="M85 0v718h213q63 0 112 -27t76.5 -73t27.5 -110q0 -69 -35.5 -122t-97.5 -74l165 -312h-146l-158 298h-26v-298h-131zM309 577h-93v-147h93q31 0 52.5 20.5t21.5 52.5q0 31 -21 52.5t-53 21.5z" />
    <glyph glyph-name="S" unicode="S" horiz-adv-x="503" 
d="M442 636l-26 -124q-31 35 -76 56.5t-87 21.5q-27 0 -47 -10t-20 -32q0 -23 48 -62q8 -6 58.5 -46.5t77.5 -64.5q34 -30 57.5 -61t33 -64t9.5 -61q0 -33 -10.5 -68t-40 -68.5t-75 -50t-92.5 -16.5q-76 0 -140 38t-83 85l39 124q32 -45 86 -75t105 -30q34 0 56 15.5
t22 43.5q0 16 -9 33.5t-43 46.5q-15 12 -52.5 42.5t-63.5 53t-46 43.5q-32 34 -51 69.5t-19 78.5q0 51 23.5 90t68.5 63.5t107 24.5q46 0 88 -17t66.5 -39.5t35.5 -39.5z" />
    <glyph glyph-name="T" unicode="T" horiz-adv-x="579" 
d="M13 578v140h553v-140h-211v-578h-131v578h-211z" />
    <glyph glyph-name="U" unicode="U" horiz-adv-x="733" 
d="M522 288v430h131v-433q0 -64 -20 -119.5t-58 -95.5t-91.5 -62t-117.5 -22q-62 0 -115.5 21.5t-91.5 61t-58.5 95t-20.5 120.5v434h131v-431q0 -72 43 -115.5t114 -43.5q70 0 112 44t42 116z" />
    <glyph glyph-name="V" unicode="V" horiz-adv-x="669" 
d="M269 0l-263 718h140l187 -510l187 510h143l-263 -718h-131z" />
    <glyph glyph-name="W" unicode="W" horiz-adv-x="1022" 
d="M570 718l134 -467l157 467h146l-238 -718h-120l-138 486l-138 -486h-120l-238 718h141l157 -467l134 467h123z" />
    <glyph glyph-name="X" unicode="X" horiz-adv-x="672" 
d="M338 250l-163 -250h-160l242 371l-228 347h156l149 -228l149 228h160l-228 -347l242 -371h-156z" />
    <glyph glyph-name="Y" unicode="Y" horiz-adv-x="595" 
d="M233 300l-228 418h145l146 -266l146 266h148l-226 -418v-300h-131v300z" />
    <glyph glyph-name="Z" unicode="Z" horiz-adv-x="511" 
d="M45 576v142h414v-107l-253 -469h255v-142h-416v107l249 469h-249z" />
    <glyph glyph-name="bracketleft" unicode="[" horiz-adv-x="393" 
d="M318 -169h-218v887h218v-128h-101v-631h101v-128z" />
    <glyph glyph-name="backslash" unicode="\" horiz-adv-x="484" 
d="M364 -169l-364 887h120l364 -887h-120z" />
    <glyph glyph-name="bracketright" unicode="]" horiz-adv-x="393" 
d="M293 -169h-218v128h101v631h-101v128h218v-887z" />
    <glyph glyph-name="asciicircum" unicode="^" horiz-adv-x="556" 
d="M164 330h-124l181 356h115l180 -356h-122l-115 231z" />
    <glyph glyph-name="underscore" unicode="_" horiz-adv-x="506" 
d="M-2 -169v110h510v-110h-510z" />
    <glyph glyph-name="grave" unicode="`" horiz-adv-x="350" 
d="M65 750h150l70 -160h-100z" />
    <glyph glyph-name="a" unicode="a" horiz-adv-x="566" 
d="M367 148v37q-8 14 -35.5 24.5t-61.5 10.5q-48 0 -74 -16t-26 -42t26.5 -41.5t72.5 -15.5q33 0 61 12.5t37 30.5zM100 334l-31 104q13 20 40.5 41.5t70.5 35.5t87 14q103 0 165 -55t62 -151v-323h-123v45q-18 -27 -58 -43t-83 -16q-82 0 -135 46.5t-53 122.5q0 49 24.5 86
t70.5 60t106 23q45 0 78.5 -11t45.5 -25v14q0 45 -30.5 72t-85.5 27q-46 0 -87 -19t-64 -48z" />
    <glyph glyph-name="b" unicode="b" horiz-adv-x="656" 
d="M614 257q0 -58 -21 -108.5t-58 -87t-84.5 -56t-98.5 -19.5q-55 0 -97.5 19.5t-55.5 48.5v-54h-123v728h127v-267q13 29 54.5 48.5t96.5 19.5q50 0 97.5 -20t84 -56.5t57.5 -87t21 -108.5zM486 257q0 60 -41.5 98.5t-107.5 38.5q-46 0 -84 -19.5t-50 -48.5v-137
q6 -13 22 -29t47 -27.5t65 -11.5q66 0 107.5 38t41.5 98z" />
    <glyph glyph-name="c" unicode="c" horiz-adv-x="550" 
d="M470 185l38 -107q-23 -39 -76.5 -65.5t-119.5 -26.5q-52 0 -101.5 20t-87.5 56.5t-59.5 87t-21.5 108.5t21.5 108.5t59.5 87t87 56t102 19.5q64 0 116.5 -26.5t75.5 -64.5l-36 -106q-21 26 -59 44t-83 18q-69 0 -111.5 -37.5t-42.5 -98.5t42.5 -99t111.5 -38
q45 0 83 18.5t61 45.5z" />
    <glyph glyph-name="d" unicode="d" horiz-adv-x="656" 
d="M42 257q0 58 21 108.5t57.5 87t84 56.5t97.5 20q55 0 96.5 -19.5t54.5 -48.5v267h127v-728h-123v54q-13 -29 -55.5 -48.5t-97.5 -19.5q-51 0 -98.5 19.5t-84.5 56t-58 87t-21 108.5zM170 257q0 -60 41.5 -98t107.5 -38q22 0 49.5 6.5t51.5 23.5t33 38v137
q-12 29 -50 48.5t-84 19.5q-66 0 -107.5 -38.5t-41.5 -98.5z" />
    <glyph glyph-name="e" unicode="e" horiz-adv-x="599" 
d="M322 114q48 0 92.5 18t65.5 46l39 -98q-25 -41 -79 -67.5t-122 -26.5q-58 0 -108.5 19t-88 54.5t-58.5 86.5t-21 111q0 54 18.5 103.5t53.5 87.5t84.5 59.5t107.5 21.5q41 0 78.5 -12.5t67.5 -35.5t55.5 -59t37.5 -81t12 -84q0 -27 -3 -45h-382q9 -48 49.5 -73t100.5 -25
zM177 316h250q-6 39 -40 61.5t-81 22.5q-48 0 -84.5 -22.5t-44.5 -61.5z" />
    <glyph glyph-name="f" unicode="f" horiz-adv-x="448" 
d="M428 681l-24 -103q-40 34 -85 34q-21 0 -39 -10t-25.5 -27.5t-7.5 -35.5v-24h163v-135h-163v-380h-127v380h-89v135h89v45q0 82 46 132t129 50q45 0 81 -17.5t52 -43.5z" />
    <glyph glyph-name="g" unicode="g" horiz-adv-x="654" 
d="M40 267q0 56 21 105t57 84t83.5 54t98.5 19q55 0 98.5 -19.5t56.5 -47.5v53h123v-508q0 -51 -18 -94.5t-52 -74.5t-81.5 -48t-104.5 -17q-36 0 -81.5 10.5t-85.5 35.5t-57 54l38 114q27 -34 74.5 -57.5t101.5 -23.5q67 0 103 31.5t36 91.5v41q-13 -29 -55 -48t-98 -19
q-50 0 -97 19.5t-83.5 55t-57 84.5t-20.5 105zM168 264q0 -58 41 -94t108 -36q46 0 84 19.5t50 46.5v127q-6 12 -22.5 28t-47.5 27.5t-64 11.5q-67 0 -108 -36.5t-41 -93.5z" />
    <glyph glyph-name="h" unicode="h" horiz-adv-x="623" 
d="M203 316v-316h-127v728h127v-265q11 29 46 47.5t88 18.5q40 0 79.5 -14t71 -42.5t50 -72.5t18.5 -101v-299h-127v278q0 39 -18.5 67.5t-44.5 38.5t-48 10q-40 0 -74 -22.5t-41 -55.5z" />
    <glyph glyph-name="i" unicode="i" horiz-adv-x="282" 
d="M78 0v515h127v-515h-127zM56 673q0 16 8.5 36t30 34.5t46.5 14.5q16 0 36 -8.5t34.5 -30t14.5 -46.5q0 -16 -8.5 -36t-30 -34.5t-46.5 -14.5q-16 0 -36 8.5t-34.5 30t-14.5 46.5z" />
    <glyph glyph-name="j" unicode="j" horiz-adv-x="287" 
d="M83 -27v542h127v-571q0 -84 -35 -127.5t-102 -43.5q-25 0 -54 8.5t-52 28.5l12 121q11 -11 26.5 -17t28.5 -6q26 0 37.5 15.5t11.5 49.5zM61 673q0 16 8.5 36t30 34.5t46.5 14.5q16 0 36 -8.5t34.5 -30t14.5 -46.5q0 -16 -8.5 -36t-30 -34.5t-46.5 -14.5q-16 0 -36 8.5
t-34.5 30t-14.5 46.5z" />
    <glyph glyph-name="k" unicode="k" horiz-adv-x="575" 
d="M76 0v728h127v-404l188 191h170l-238 -242l260 -273h-171l-209 217v-217h-127z" />
    <glyph glyph-name="l" unicode="l" horiz-adv-x="279" 
d="M76 0v728h127v-728h-127z" />
    <glyph glyph-name="m" unicode="m" horiz-adv-x="936" 
d="M664 529q37 0 74 -13.5t66.5 -40t47 -67.5t17.5 -92v-316h-127v288q0 23 -9.5 48.5t-34 41.5t-55.5 16q-37 0 -68.5 -22t-38.5 -53v-319h-127v289q0 48 -28.5 76.5t-71.5 28.5q-37 0 -68 -22t-38 -53v-319h-127v515h123v-52q10 28 46 47t86 19q45 0 88.5 -19.5
t72.5 -55.5q55 75 172 75z" />
    <glyph glyph-name="n" unicode="n" horiz-adv-x="623" 
d="M556 299v-299h-127v278q0 39 -18.5 67.5t-44.5 38.5t-48 10q-40 0 -74 -22.5t-41 -55.5v-316h-127v515h123v-52q11 29 48 47.5t90 18.5q40 0 79.5 -14t71 -42.5t50 -72.5t18.5 -101z" />
    <glyph glyph-name="o" unicode="o" horiz-adv-x="628" 
d="M586 257q0 -56 -21.5 -106.5t-59.5 -87t-88 -57t-103 -20.5t-103 20.5t-88 57t-59.5 87t-21.5 106.5t21.5 106.5t59.5 87.5t88 57.5t103 20.5q39 0 84.5 -13.5t92 -51.5t71 -94.5t24.5 -112.5zM170 257q0 -61 43 -98.5t101 -37.5t101 37.5t43 98.5t-43 99t-101 38
t-101 -38t-43 -99z" />
    <glyph glyph-name="p" unicode="p" horiz-adv-x="656" 
d="M614 258q0 -58 -21 -108.5t-57.5 -87t-84 -56.5t-97.5 -20q-55 0 -96.5 19.5t-54.5 48.5v-267h-127v728h123v-54q13 29 55.5 48.5t97.5 19.5q51 0 98.5 -19.5t84.5 -56t58 -87t21 -108.5zM486 258q0 60 -41.5 98t-107.5 38q-22 0 -49.5 -6.5t-51.5 -23.5t-33 -38v-137
q12 -29 50 -48.5t84 -19.5q66 0 107.5 38.5t41.5 98.5z" />
    <glyph glyph-name="q" unicode="q" horiz-adv-x="656" 
d="M42 258q0 58 21 108.5t58 87t84.5 56t98.5 19.5q55 0 97.5 -19.5t55.5 -48.5v54h123v-728h-127v267q-13 -29 -54.5 -48.5t-96.5 -19.5q-50 0 -97.5 20t-84 56.5t-57.5 87t-21 108.5zM170 258q0 -60 41.5 -98.5t107.5 -38.5q46 0 84 19.5t50 48.5v137q-6 13 -22 29
t-47 27.5t-65 11.5q-66 0 -107.5 -38t-41.5 -98z" />
    <glyph glyph-name="r" unicode="r" horiz-adv-x="416" 
d="M396 490l-18 -117q-12 8 -30.5 14.5t-37.5 6.5q-42 0 -70.5 -24t-36.5 -60v-310h-127v515h123v-68q11 36 41.5 59t72.5 23q27 0 50 -11.5t33 -27.5z" />
    <glyph glyph-name="s" unicode="s" horiz-adv-x="442" 
d="M220 201l-43 22q-124 63 -124 157q0 62 47.5 105.5t120.5 43.5q53 0 95.5 -21t61.5 -50l-24 -113q-28 27 -64 40.5t-66 13.5q-15 0 -29 -5.5t-14 -19.5q0 -6 5 -14t36 -24l48 -25q48 -25 78 -51.5t40.5 -56t10.5 -56.5q0 -25 -9 -52.5t-33.5 -54.5t-63 -40.5t-79.5 -13.5
q-30 0 -65 9t-65.5 31t-44.5 48l36 112q30 -39 68 -55.5t75 -16.5q24 0 39.5 8.5t15.5 26.5q0 12 -8.5 22.5t-44.5 29.5z" />
    <glyph glyph-name="t" unicode="t" horiz-adv-x="458" 
d="M383 160l27 -114q-19 -26 -53 -43t-75 -17q-84 0 -126.5 46t-42.5 130v218h-88v41l177 224h39v-130h163v-135h-164v-190q0 -35 18 -52t46 -17q19 0 38 7t41 32z" />
    <glyph glyph-name="u" unicode="u" horiz-adv-x="620" 
d="M67 216v299h127v-278q0 -25 10.5 -53t37.5 -45.5t61 -17.5q40 0 73.5 22.5t40.5 55.5v316h127v-515h-123v52q-11 -29 -47.5 -47.5t-89.5 -18.5q-40 0 -79 14t-70 42.5t-49.5 72.5t-18.5 101z" />
    <glyph glyph-name="v" unicode="v" horiz-adv-x="568" 
d="M342 0h-116l-212 515h135l133 -333l133 333h139z" />
    <glyph glyph-name="w" unicode="w" horiz-adv-x="876" 
d="M494 515l103 -319l122 319h143l-205 -515h-116l-103 321l-103 -321h-116l-205 515h139l122 -319l103 319h116z" />
    <glyph glyph-name="x" unicode="x" horiz-adv-x="564" 
d="M284 167l-120 -167h-155l196 272l-176 243h152l99 -138l99 138h156l-176 -243l196 -272h-151z" />
    <glyph glyph-name="y" unicode="y" horiz-adv-x="584" 
d="M223 32l-206 483h137l135 -320l135 320h141l-308 -728h-139z" />
    <glyph glyph-name="z" unicode="z" horiz-adv-x="470" 
d="M55 380v135h355v-106l-191 -274h202v-135h-372v106l194 274h-188z" />
    <glyph glyph-name="braceleft" unicode="{" horiz-adv-x="415" 
d="M142 1l19 130q4 22 -3 41.5t-28 34.5t-55 15v103q39 0 65.5 24t20.5 67l-19 132q-6 42 5.5 76.5t39 58t68.5 33t90 2.5v-116q-43 4 -68.5 -17t-19.5 -62l21 -131q5 -32 -4 -58t-24.5 -40t-28.5 -20q30 -14 47 -44.5t10 -73.5l-21 -131q-6 -41 19.5 -62t68.5 -17v-115
q-49 -7 -90 2.5t-68.5 33t-39 58t-5.5 76.5z" />
    <glyph glyph-name="bar" unicode="|" horiz-adv-x="297" 
d="M207 718v-887h-117v887h117z" />
    <glyph glyph-name="braceright" unicode="}" horiz-adv-x="415" 
d="M254 131l19 -130q6 -42 -5.5 -76.5t-39 -58t-68.5 -33t-90 -2.5v115q43 -4 68.5 17t19.5 62l-21 131q-5 32 4 58t24.5 40t28.5 20q-30 14 -47 44.5t-10 73.5l21 131q6 41 -19.5 62t-68.5 17v116q49 7 90 -2.5t68.5 -33t39 -58t5.5 -76.5l-19 -132q-6 -43 20.5 -67
t65.5 -24v-103q-23 0 -46 -10t-33.5 -31.5t-6.5 -49.5z" />
    <glyph glyph-name="asciitilde" unicode="~" horiz-adv-x="541" 
d="M165 202h-99q-16 38 -16 72q0 25 12 53t43 46.5t70 18.5q25 0 50 -9t67 -33t61 -24q13 0 22.5 8t9.5 23q0 14 -9 35h99q16 -38 16 -73q0 -52 -34.5 -84.5t-87.5 -32.5q-42 0 -94.5 29t-64.5 33t-20 4q-15 0 -24.5 -8.5t-9.5 -23.5q0 -14 9 -34z" />
    <glyph glyph-name="uni00A0" unicode="&#xa0;" horiz-adv-x="270" 
 />
    <glyph glyph-name="exclamdown" unicode="&#xa1;" horiz-adv-x="384" 
d="M139 297h106l28 -500h-162zM110 447q0 33 24.5 57.5t57.5 24.5t57.5 -24.5t24.5 -57.5t-24.5 -57.5t-57.5 -24.5t-57.5 24.5t-24.5 57.5z" />
    <glyph glyph-name="cent" unicode="&#xa2;" horiz-adv-x="550" 
d="M367 -117h-90v106q-47 6 -90 28t-75.5 57.5t-51 83t-18.5 100.5t18.5 100t51 82.5t75.5 57.5t90 28v101h90v-104q46 -9 82.5 -32.5t54.5 -52.5l-36 -106q-16 20 -43 36t-58 22v-265q31 4 57.5 21t45.5 39l38 -107q-18 -31 -55.5 -54.5t-85.5 -32.5v-108zM172 258
q0 -31 11 -57t34.5 -46t59.5 -28v261q-47 -10 -76 -45.5t-29 -84.5z" />
    <glyph glyph-name="sterling" unicode="&#xa3;" horiz-adv-x="558" 
d="M259 142h249v-142h-448v106q20 9 45.5 30.5t45 56t19.5 68.5l-2 20h-107v128h67q-24 66 -24 111q0 23 5 52t19 56t39 51t64.5 38.5t85.5 14.5q32 0 70.5 -11.5t69.5 -40t43 -62.5l-53 -101q-49 73 -125 73q-39 0 -61.5 -22t-22.5 -55q0 -31 27 -104h138v-128h-101l2 -17
q0 -37 -13 -69.5t-32 -52.5z" />
    <glyph glyph-name="currency" unicode="&#xa4;" horiz-adv-x="638" 
d="M50 186l77 77q-13 22 -20.5 51t-7.5 56q0 57 28 107l-77 78l85 84l77 -77q22 13 51 20.5t56 7.5q57 0 107 -28l77 77l85 -84l-77 -78q28 -50 28 -107q0 -27 -7.5 -56t-20.5 -51l77 -77l-85 -85l-78 77q-22 -12 -51 -19.5t-55 -7.5q-56 0 -107 27l-77 -77zM319 457
q-17 0 -38.5 -8.5t-37 -30t-15.5 -48.5q0 -17 9 -37.5t32 -35t50 -14.5q17 0 38.5 8.5t37 30t15.5 48.5q0 17 -9 37.5t-32 35t-50 14.5z" />
    <glyph glyph-name="yen" unicode="&#xa5;" horiz-adv-x="541" 
d="M68 319h128l-22 51h-106v108h58l-106 240h132l117 -271l117 271h135l-105 -240h62v-108h-109l-23 -51h132v-108h-141v-211h-131v211h-138v108z" />
    <glyph glyph-name="brokenbar" unicode="&#xa6;" horiz-adv-x="297" 
d="M207 184v-353h-117v353h117zM207 718v-353h-117v353h117z" />
    <glyph glyph-name="section" unicode="&#xa7;" horiz-adv-x="586" 
d="M525 263q0 -38 -15 -70.5t-36 -51.5t-38 -29q59 -54 59 -125q0 -49 -25.5 -90.5t-74.5 -62t-105 -20.5q-32 0 -70.5 9.5t-72 33t-52.5 50.5l28 124q16 -18 42 -36.5t60.5 -28.5t67.5 -10q29 0 48 9t19 27q0 12 -18 29t-75 50l-74 44q-56 34 -85.5 69.5t-38 62t-8.5 47.5
q0 25 8.5 54.5t30.5 56t48 39.5q-25 18 -40.5 50.5t-15.5 68.5q0 48 22.5 84.5t68 60.5t111.5 24q31 0 69.5 -9.5t73 -32t51.5 -48.5l-28 -123q-17 17 -44 34t-61 27t-64 10q-27 0 -45 -7.5t-18 -23.5q0 -8 8.5 -19t40 -31t32.5 -20l78 -47q42 -25 75 -55.5t48 -62.5t15 -61
zM193 313q0 -16 14.5 -35.5t64.5 -52.5l71 -46q21 9 35.5 26.5t14.5 39.5q0 16 -14.5 34.5t-66.5 51.5l-72 46q-21 -9 -34 -25.5t-13 -38.5z" />
    <glyph glyph-name="dieresis" unicode="&#xa8;" horiz-adv-x="500" 
d="M74 665q0 31 22 53t53 22t53 -22t22 -53t-22 -53t-53 -22t-53 22t-22 53zM276 665q0 31 22 53t53 22t53 -22t22 -53t-22 -53t-53 -22t-53 22t-22 53z" />
    <glyph glyph-name="copyright" unicode="&#xa9;" horiz-adv-x="816" 
d="M408 732q36 0 83 -9.5t95 -35.5t92.5 -70.5t73.5 -113.5t29 -144t-29 -143.5t-80.5 -120t-120 -80.5t-143.5 -29t-143.5 29t-120 80.5t-80.5 120t-29 143.5q0 56 16.5 110t47 99t79.5 85t111.5 59.5t118.5 19.5zM408 58q62 0 118 23.5t98.5 65.5t66 97t23.5 115
q0 61 -23.5 116t-66 96.5t-98.5 65t-118 23.5q-45 0 -89 -13.5t-81 -38t-65.5 -58t-46 -74.5t-21 -73t-3.5 -44q0 -60 24 -115t66.5 -97t98.5 -65.5t117 -23.5zM556 297l27 -80q-19 -31 -62.5 -51t-99.5 -20q-54 0 -108 27t-84.5 78.5t-30.5 108.5q0 34 12 70.5t44.5 72
t78 53.5t87.5 18q55 0 99 -20t62 -50l-28 -78q-18 21 -52 37t-73 16q-62 0 -101 -33t-39 -86q0 -42 23 -70t55.5 -38.5t61.5 -10.5q42 0 76 16.5t52 39.5z" />
    <glyph glyph-name="ordfeminine" unicode="&#xaa;" horiz-adv-x="404" 
d="M252 398v23q-4 8 -21.5 14t-36.5 6q-29 0 -45 -9.5t-16 -24.5t16 -23.5t44 -8.5q20 0 37 7t22 16zM76 507l-23 77q18 28 57 44.5t81 16.5q70 0 113 -35.5t43 -98.5v-211h-92v29q-12 -18 -38.5 -28t-55.5 -10q-24 0 -53.5 10t-50 37t-20.5 63q0 32 16.5 56t48 39.5
t70.5 15.5q25 0 48.5 -6t31.5 -15v6q0 14 -7.5 27.5t-25 20.5t-38.5 7q-32 0 -60.5 -12.5t-44.5 -32.5z" />
    <glyph glyph-name="guillemotleft" unicode="&#xab;" horiz-adv-x="556" 
d="M393 269l113 -188h-116l-138 188l138 184h116zM171 269l113 -188h-116l-138 188l138 184h116z" />
    <glyph glyph-name="logicalnot" unicode="&#xac;" horiz-adv-x="548" 
d="M392 155v190h-342v114h448v-304h-106z" />
    <glyph glyph-name="uni00AD" unicode="&#xad;" horiz-adv-x="470" 
d="M70 332h330v-110h-330v110z" />
    <glyph glyph-name="registered" unicode="&#xae;" horiz-adv-x="816" 
d="M408 732q36 0 83 -9.5t95 -35.5t92.5 -70.5t73.5 -113.5t29 -144t-29 -143.5t-80.5 -120t-120 -80.5t-143.5 -29t-143.5 29t-120 80.5t-80.5 120t-29 143.5q0 56 16.5 110t47 99t79.5 85t111.5 59.5t118.5 19.5zM408 58q62 0 118 23.5t98.5 65.5t66 97t23.5 115
q0 61 -23.5 116t-66 96.5t-98.5 65t-118 23.5q-45 0 -89 -13.5t-81 -38t-65.5 -58t-46 -74.5t-21 -73t-3.5 -44q0 -60 24 -115t66.5 -97t98.5 -65.5t117 -23.5zM289 154v412h130q37 0 70 -18t46.5 -47t13.5 -59q0 -37 -20.5 -68t-55.5 -44l98 -176h-97l-93 167h-4v-167h-88z
M424 471h-47v-64h47q16 0 27 9t11 23t-10.5 23t-27.5 9z" />
    <glyph glyph-name="macron" unicode="&#xaf;" horiz-adv-x="460" 
d="M70 710h320v-100h-320v100z" />
    <glyph glyph-name="degree" unicode="&#xb0;" horiz-adv-x="430" 
d="M215 728q70 0 120 -50t50 -120t-50 -120t-120 -50t-120 50t-50 120t50 120t120 50zM215 495q30 0 49.5 18.5t19.5 44.5q0 27 -19.5 45t-49.5 18q-29 0 -49 -18t-20 -45q0 -26 20 -44.5t49 -18.5z" />
    <glyph glyph-name="plusminus" unicode="&#xb1;" horiz-adv-x="548" 
d="M498 0h-448v114h448v-114zM50 448h171v158h106v-158h171v-114h-171v-158h-106v158h-171v114z" />
    <glyph glyph-name="uni00B2" unicode="&#xb2;" horiz-adv-x="346" 
d="M154 608q-48 0 -80 -56l-39 64q7 22 27 44.5t48 33t54 10.5q38 0 66 -15t45 -43.5t17 -63.5q0 -29 -11 -53t-27 -43.5t-34 -39.5l-45 -50h128v-96h-269v75l121 124q25 26 34.5 40.5t9.5 30.5t-12 27t-33 11z" />
    <glyph glyph-name="uni00B3" unicode="&#xb3;" horiz-adv-x="342" 
d="M152 387q29 0 46 12t17 30q0 17 -15 27t-40 10q-7 0 -24.5 -2.5t-28.5 -10.5l-15 65l77 81h-121v96h237v-69l-73 -77q96 -25 96 -120q0 -59 -43 -98.5t-111 -39.5q-48 0 -82.5 20t-45.5 45l21 73q20 -20 44 -31t61 -11z" />
    <glyph glyph-name="acute" unicode="&#xb4;" horiz-adv-x="350" 
d="M135 750h150l-120 -160h-100z" />
    <glyph glyph-name="uni00B5" unicode="&#xb5;" horiz-adv-x="629" 
d="M76 -213v728h127v-278q0 -25 10.5 -53t37.5 -45.5t61 -17.5q40 0 73.5 22.5t40.5 55.5v316h127v-515h-123v52q-11 -29 -47.5 -47.5t-89.5 -18.5q-48 0 -90 18v-217h-127z" />
    <glyph glyph-name="paragraph" unicode="&#xb6;" horiz-adv-x="696" 
d="M255 718h381v-116h-78v-759h-106v759h-91v-759h-106v473q-32 0 -66 10t-64 34.5t-50.5 64t-20.5 92.5q0 87 57 144t144 57z" />
    <glyph glyph-name="periodcentered" unicode="&#xb7;" horiz-adv-x="314" 
d="M70 273q0 36 25.5 61.5t61.5 25.5t61.5 -25.5t25.5 -61.5t-25.5 -61.5t-61.5 -25.5t-61.5 25.5t-25.5 61.5z" />
    <glyph glyph-name="cedilla" unicode="&#xb8;" horiz-adv-x="300" 
d="M190 -121q0 13 -10 19t-25 6q-18 0 -36 -6l-19 37l25 86h71l-19 -62q32 0 58 -12.5t36 -32.5t10 -38q0 -45 -33 -70.5t-85 -25.5q-34 0 -65.5 14t-46.5 33l12 60q45 -32 91 -32q16 0 26 7t10 17z" />
    <glyph glyph-name="uni00B9" unicode="&#xb9;" horiz-adv-x="275" 
d="M40 523v92l103 80h67v-395h-90v272z" />
    <glyph glyph-name="ordmasculine" unicode="&#xba;" horiz-adv-x="447" 
d="M410 469q0 -47 -25 -90t-70 -65.5t-91 -22.5q-37 0 -71 13t-60 37t-41 57t-15 71q0 28 10 58t33.5 56t60 44t83.5 18q37 0 71 -13t60 -36.5t40.5 -56.5t14.5 -70zM133 469q0 -34 26.5 -55.5t64.5 -21.5q18 0 39 7t36.5 26t15.5 44q0 16 -9 34.5t-31.5 30.5t-50.5 12
q-38 0 -64.5 -21.5t-26.5 -55.5z" />
    <glyph glyph-name="guillemotright" unicode="&#xbb;" horiz-adv-x="556" 
d="M272 81l113 188l-113 184h116l138 -184l-138 -188h-116zM50 81l113 188l-113 184h116l138 -184l-138 -188h-116z" />
    <glyph glyph-name="onequarter" unicode="&#xbc;" horiz-adv-x="728" 
d="M642 718l-429 -718h-107l429 718h107zM40 523v92l103 80h67v-395h-90v272zM418 179l161 216h80v-202h46v-90h-46v-103h-88v103h-153v76zM512 193h59v80z" />
    <glyph glyph-name="onehalf" unicode="&#xbd;" horiz-adv-x="791" 
d="M642 718l-429 -718h-107l429 718h107zM40 523v92l103 80h67v-395h-90v272zM599 308q-48 0 -80 -56l-39 64q7 22 27 44.5t48 33t54 10.5q38 0 66 -15t45 -43.5t17 -63.5q0 -29 -11 -53t-27 -43.5t-34 -39.5l-45 -50h128v-96h-269v75l121 124q25 26 34.5 40.5t9.5 30.5
t-12 27t-33 11z" />
    <glyph glyph-name="threequarters" unicode="&#xbe;" horiz-adv-x="779" 
d="M152 387q29 0 46 12t17 30q0 17 -15 27t-40 10q-7 0 -24.5 -2.5t-28.5 -10.5l-15 65l77 81h-121v96h237v-69l-73 -77q96 -25 96 -120q0 -59 -43 -98.5t-111 -39.5q-48 0 -82.5 20t-45.5 45l21 73q20 -20 44 -31t61 -11zM693 718l-429 -718h-107l429 718h107zM469 179
l161 216h80v-202h46v-90h-46v-103h-88v103h-153v76zM563 193h59v80z" />
    <glyph glyph-name="questiondown" unicode="&#xbf;" horiz-adv-x="479" 
d="M328 447q0 -33 -24.5 -57.5t-57.5 -24.5t-57.5 24.5t-24.5 57.5t24.5 57.5t57.5 24.5t57.5 -24.5t24.5 -57.5zM390 -26l29 -99q-22 -38 -63 -61t-71.5 -27t-41.5 -4q-78 0 -125.5 42t-47.5 109q0 25 11 54t41 57t75 54q30 18 49.5 33.5t19.5 31.5q0 12 -9.5 19t-28.5 7
q-25 0 -54.5 -14t-52.5 -37l-21 102q19 30 57 50.5t84 20.5q65 0 107.5 -38t42.5 -96q0 -44 -27.5 -83t-95.5 -83q-32 -21 -53 -38t-21 -35q0 -17 15 -26.5t38 -9.5q33 0 72.5 16.5t70.5 54.5z" />
    <glyph glyph-name="Agrave" unicode="&#xc0;" horiz-adv-x="707" 
d="M418 718l283 -718h-138l-58 147h-300l-58 -147h-141l283 718h129zM355 528l-96 -242h191zM184 922h150l70 -150h-100z" />
    <glyph glyph-name="Aacute" unicode="&#xc1;" horiz-adv-x="707" 
d="M418 718l283 -718h-138l-58 147h-300l-58 -147h-141l283 718h129zM355 528l-96 -242h191zM371 922h150l-120 -150h-100z" />
    <glyph glyph-name="Acircumflex" unicode="&#xc2;" horiz-adv-x="707" 
d="M418 718l283 -718h-138l-58 147h-300l-58 -147h-141l283 718h129zM355 528l-96 -242h191zM279 922h148l85 -150h-95l-64 69l-64 -69h-95z" />
    <glyph glyph-name="Atilde" unicode="&#xc3;" horiz-adv-x="707" 
d="M418 718l283 -718h-138l-58 147h-300l-58 -147h-141l283 718h129zM355 528l-96 -242h191zM272 772h-78q-12 27 -12 56q0 41 28.5 67.5t69.5 26.5q33 0 74.5 -23t51.5 -26t15 -3q11 0 18 6.5t7 17.5q0 13 -7 28h78q13 -30 13 -57q0 -19 -9.5 -41t-33.5 -37t-54 -15
q-33 0 -74.5 23t-51.5 26t-15 3q-18 0 -24.5 -14t4.5 -38z" />
    <glyph glyph-name="Adieresis" unicode="&#xc4;" horiz-adv-x="707" 
d="M418 718l283 -718h-138l-58 147h-300l-58 -147h-141l283 718h129zM355 528l-96 -242h191zM178 847q0 30 21 51t51 21t51 -21t21 -51t-21 -51t-51 -21t-51 21t-21 51zM388 847q0 30 21 51t51 21t51 -21t21 -51t-21 -51t-51 -21t-51 21t-21 51z" />
    <glyph glyph-name="Aring" unicode="&#xc5;" horiz-adv-x="707" 
d="M418 718l283 -718h-138l-58 147h-300l-58 -147h-141l283 718h129zM355 528l-96 -242h191zM245 854q0 21 11 47t38.5 44.5t60.5 18.5q21 0 47 -11t44.5 -38.5t18.5 -60.5q0 -21 -11 -47t-38.5 -44.5t-60.5 -18.5q-21 0 -47 11t-44.5 38.5t-18.5 60.5zM319 854
q0 -15 11 -24t25 -9q13 0 24 9t11 24t-11 24t-24 9q-14 0 -25 -9t-11 -24z" />
    <glyph glyph-name="AE" unicode="&#xc6;" horiz-adv-x="936" 
d="M480 0v147h-254l-90 -147h-151l441 718h450v-142h-265v-136h235v-142h-235v-156h265v-142h-396zM480 561l-169 -275h169v275z" />
    <glyph glyph-name="Ccedilla" unicode="&#xc7;" horiz-adv-x="704" 
d="M427 -121q0 13 -10 19t-25 6q-18 0 -36 -6l-19 37l16 54q-30 4 -77.5 19t-99 54.5t-82 89t-45 101t-14.5 106.5q0 80 29.5 149.5t81 119.5t118 77t137.5 27q91 0 163.5 -36.5t103.5 -90.5l-41 -116q-31 43 -89 72t-127 29q-52 0 -97 -16t-77.5 -46.5t-50 -73.5t-17.5 -95
t17.5 -95t50 -73.5t77.5 -46.5t97 -16q36 0 79 10.5t81 36.5t61 58l41 -119q-32 -53 -98.5 -88t-152.5 -39l-8 -28q32 0 58 -12.5t36 -32.5t10 -38q0 -45 -33 -70.5t-85 -25.5q-34 0 -65.5 14t-46.5 33l12 60q45 -32 91 -32q16 0 26 7t10 17z" />
    <glyph glyph-name="Egrave" unicode="&#xc8;" horiz-adv-x="541" 
d="M85 0v718h396v-142h-265v-136h235v-142h-235v-156h265v-142h-396zM144 922h150l70 -150h-100z" />
    <glyph glyph-name="Eacute" unicode="&#xc9;" horiz-adv-x="541" 
d="M85 0v718h396v-142h-265v-136h235v-142h-235v-156h265v-142h-396zM279 922h150l-120 -150h-100z" />
    <glyph glyph-name="Ecircumflex" unicode="&#xca;" horiz-adv-x="541" 
d="M85 0v718h396v-142h-265v-136h235v-142h-235v-156h265v-142h-396zM208 922h148l85 -150h-95l-64 69l-64 -69h-95z" />
    <glyph glyph-name="Edieresis" unicode="&#xcb;" horiz-adv-x="541" 
d="M85 0v718h396v-142h-265v-136h235v-142h-235v-156h265v-142h-396zM105 847q0 30 21 51t51 21t51 -21t21 -51t-21 -51t-51 -21t-51 21t-21 51zM315 847q0 30 21 51t51 21t51 -21t21 -51t-21 -51t-51 -21t-51 21t-21 51z" />
    <glyph glyph-name="Igrave" unicode="&#xcc;" horiz-adv-x="301" 
d="M85 0v718h131v-718h-131zM-16 922h150l70 -150h-100z" />
    <glyph glyph-name="Iacute" unicode="&#xcd;" horiz-adv-x="301" 
d="M85 0v718h131v-718h-131zM169 922h150l-120 -150h-100z" />
    <glyph glyph-name="Icircumflex" unicode="&#xce;" horiz-adv-x="301" 
d="M85 0v718h131v-718h-131zM76 922h148l85 -150h-95l-64 69l-64 -69h-95z" />
    <glyph glyph-name="Idieresis" unicode="&#xcf;" horiz-adv-x="301" 
d="M85 0v718h131v-718h-131zM-27 847q0 30 21 51t51 21t51 -21t21 -51t-21 -51t-51 -21t-51 21t-21 51zM183 847q0 30 21 51t51 21t51 -21t21 -51t-21 -51t-51 -21t-51 21t-21 51z" />
    <glyph glyph-name="Eth" unicode="&#xd0;" horiz-adv-x="756" 
d="M6 298v142h100v278h225q83 0 155.5 -24t124.5 -70.5t81 -114t29 -150.5q0 -82 -29 -149.5t-82 -114t-125 -71t-154 -24.5h-225v298h-100zM587 359q0 56 -27.5 108.5t-80 80.5t-110.5 28h-132v-136h157v-142h-157v-156h132q45 0 85 15.5t70 44.5t46.5 69.5t16.5 87.5z" />
    <glyph glyph-name="Ntilde" unicode="&#xd1;" horiz-adv-x="766" 
d="M85 0v718h131l334 -487v487h131v-718h-132l-333 484v-484h-131zM302 772h-78q-12 27 -12 56q0 41 28.5 67.5t69.5 26.5q33 0 74.5 -23t51.5 -26t15 -3q11 0 18 6.5t7 17.5q0 13 -7 28h78q13 -30 13 -57q0 -19 -9.5 -41t-33.5 -37t-54 -15q-33 0 -74.5 23t-51.5 26t-15 3
q-18 0 -24.5 -14t4.5 -38z" />
    <glyph glyph-name="Ograve" unicode="&#xd2;" horiz-adv-x="810" 
d="M405 732q93 0 178 -45t138.5 -132t53.5 -196q0 -77 -29 -146t-81 -120t-119.5 -79t-140.5 -28t-140.5 28t-119.5 79t-81 120t-29 146t29 146t81 120t119.5 79t140.5 28zM405 590q-49 0 -92.5 -16.5t-75.5 -47.5t-50 -74t-18 -93t18 -93t50 -74t75.5 -47.5t92.5 -16.5
t92 16.5t75 47.5t50 74t18 93q0 37 -12 77t-44.5 78t-81 57t-97.5 19zM252 922h150l70 -150h-100z" />
    <glyph glyph-name="Oacute" unicode="&#xd3;" horiz-adv-x="810" 
d="M405 732q93 0 178 -45t138.5 -132t53.5 -196q0 -77 -29 -146t-81 -120t-119.5 -79t-140.5 -28t-140.5 28t-119.5 79t-81 120t-29 146t29 146t81 120t119.5 79t140.5 28zM405 590q-49 0 -92.5 -16.5t-75.5 -47.5t-50 -74t-18 -93t18 -93t50 -74t75.5 -47.5t92.5 -16.5
t92 16.5t75 47.5t50 74t18 93q0 37 -12 77t-44.5 78t-81 57t-97.5 19zM408 922h150l-120 -150h-100z" />
    <glyph glyph-name="Ocircumflex" unicode="&#xd4;" horiz-adv-x="810" 
d="M405 732q93 0 178 -45t138.5 -132t53.5 -196q0 -77 -29 -146t-81 -120t-119.5 -79t-140.5 -28t-140.5 28t-119.5 79t-81 120t-29 146t29 146t81 120t119.5 79t140.5 28zM405 590q-49 0 -92.5 -16.5t-75.5 -47.5t-50 -74t-18 -93t18 -93t50 -74t75.5 -47.5t92.5 -16.5
t92 16.5t75 47.5t50 74t18 93q0 37 -12 77t-44.5 78t-81 57t-97.5 19zM330 922h148l85 -150h-95l-64 69l-64 -69h-95z" />
    <glyph glyph-name="Otilde" unicode="&#xd5;" horiz-adv-x="810" 
d="M405 732q93 0 178 -45t138.5 -132t53.5 -196q0 -77 -29 -146t-81 -120t-119.5 -79t-140.5 -28t-140.5 28t-119.5 79t-81 120t-29 146t29 146t81 120t119.5 79t140.5 28zM405 590q-49 0 -92.5 -16.5t-75.5 -47.5t-50 -74t-18 -93t18 -93t50 -74t75.5 -47.5t92.5 -16.5
t92 16.5t75 47.5t50 74t18 93q0 37 -12 77t-44.5 78t-81 57t-97.5 19zM321 772h-78q-12 27 -12 56q0 41 28.5 67.5t69.5 26.5q33 0 74.5 -23t51.5 -26t15 -3q11 0 18 6.5t7 17.5q0 13 -7 28h78q13 -30 13 -57q0 -19 -9.5 -41t-33.5 -37t-54 -15q-33 0 -74.5 23t-51.5 26
t-15 3q-18 0 -24.5 -14t4.5 -38z" />
    <glyph glyph-name="Odieresis" unicode="&#xd6;" horiz-adv-x="810" 
d="M405 732q93 0 178 -45t138.5 -132t53.5 -196q0 -77 -29 -146t-81 -120t-119.5 -79t-140.5 -28t-140.5 28t-119.5 79t-81 120t-29 146t29 146t81 120t119.5 79t140.5 28zM405 590q-49 0 -92.5 -16.5t-75.5 -47.5t-50 -74t-18 -93t18 -93t50 -74t75.5 -47.5t92.5 -16.5
t92 16.5t75 47.5t50 74t18 93q0 37 -12 77t-44.5 78t-81 57t-97.5 19zM227 847q0 30 21 51t51 21t51 -21t21 -51t-21 -51t-51 -21t-51 21t-21 51zM437 847q0 30 21 51t51 21t51 -21t21 -51t-21 -51t-51 -21t-51 21t-21 51z" />
    <glyph glyph-name="multiply" unicode="&#xd7;" horiz-adv-x="544" 
d="M129 78l-79 79l146 146l-145 144l73 74l144 -145l147 146l79 -79l-146 -146l145 -144l-75 -74l-144 145z" />
    <glyph glyph-name="Oslash" unicode="&#xd8;" horiz-adv-x="819" 
d="M410 732q104 0 191 -53l45 53h157l-110 -130q41 -48 64 -111t23 -132q0 -77 -29 -146t-81 -120t-119.5 -79t-140.5 -28q-105 0 -192 53l-45 -53h-157l111 131q-41 48 -64 111t-23 131q0 77 29 146t81 120t119.5 79t140.5 28zM645 359q0 76 -42 136l-294 -348
q45 -19 101 -19q49 0 92 16.5t75 47.5t50 74t18 93zM410 590q-49 0 -92.5 -16.5t-75.5 -47.5t-50 -74t-18 -93q0 -79 41 -137l294 348q-46 20 -99 20z" />
    <glyph glyph-name="Ugrave" unicode="&#xd9;" horiz-adv-x="733" 
d="M522 288v430h131v-433q0 -64 -20 -119.5t-58 -95.5t-91.5 -62t-117.5 -22q-62 0 -115.5 21.5t-91.5 61t-58.5 95t-20.5 120.5v434h131v-431q0 -72 43 -115.5t114 -43.5q70 0 112 44t42 116zM218 922h150l70 -150h-100z" />
    <glyph glyph-name="Uacute" unicode="&#xda;" horiz-adv-x="733" 
d="M522 288v430h131v-433q0 -64 -20 -119.5t-58 -95.5t-91.5 -62t-117.5 -22q-62 0 -115.5 21.5t-91.5 61t-58.5 95t-20.5 120.5v434h131v-431q0 -72 43 -115.5t114 -43.5q70 0 112 44t42 116zM365 922h150l-120 -150h-100z" />
    <glyph glyph-name="Ucircumflex" unicode="&#xdb;" horiz-adv-x="733" 
d="M522 288v430h131v-433q0 -64 -20 -119.5t-58 -95.5t-91.5 -62t-117.5 -22q-62 0 -115.5 21.5t-91.5 61t-58.5 95t-20.5 120.5v434h131v-431q0 -72 43 -115.5t114 -43.5q70 0 112 44t42 116zM292 922h148l85 -150h-95l-64 69l-64 -69h-95z" />
    <glyph glyph-name="Udieresis" unicode="&#xdc;" horiz-adv-x="733" 
d="M522 288v430h131v-433q0 -64 -20 -119.5t-58 -95.5t-91.5 -62t-117.5 -22q-62 0 -115.5 21.5t-91.5 61t-58.5 95t-20.5 120.5v434h131v-431q0 -72 43 -115.5t114 -43.5q70 0 112 44t42 116zM189 847q0 30 21 51t51 21t51 -21t21 -51t-21 -51t-51 -21t-51 21t-21 51z
M399 847q0 30 21 51t51 21t51 -21t21 -51t-21 -51t-51 -21t-51 21t-21 51z" />
    <glyph glyph-name="Yacute" unicode="&#xdd;" horiz-adv-x="595" 
d="M233 300l-228 418h145l146 -266l146 266h148l-226 -418v-300h-131v300zM309 922h150l-120 -150h-100z" />
    <glyph glyph-name="Thorn" unicode="&#xde;" horiz-adv-x="550" 
d="M85 718h131v-135h75q61 0 117.5 -27.5t86.5 -81.5t30 -115q0 -35 -11.5 -73.5t-43 -75.5t-80 -55.5t-98.5 -18.5h-76v-136h-131v718zM311 442h-95v-165h95q35 0 59 23t24 59q0 35 -23.5 59t-59.5 24z" />
    <glyph glyph-name="germandbls" unicode="&#xdf;" horiz-adv-x="631" 
d="M470 412q24 -11 52 -36t47.5 -67.5t19.5 -87.5q0 -47 -17 -89.5t-47 -74t-71 -49.5t-87 -18q-40 0 -72 12t-48 31l27 112q14 -11 35 -17t43 -6t48 9.5t43.5 34t17.5 54.5q0 47 -37 76t-91 29h-50v125h10q45 0 71 21.5t26 58.5q0 33 -25.5 57.5t-64.5 24.5
q-42 0 -69.5 -29t-27.5 -73v-510h-127v516q0 50 16 92t45.5 72t70.5 46t89 16q46 0 87 -16t71 -44.5t46.5 -66t16.5 -79.5q0 -38 -12.5 -70.5t-35.5 -53.5z" />
    <glyph glyph-name="agrave" unicode="&#xe0;" horiz-adv-x="566" 
d="M367 148v37q-8 14 -35.5 24.5t-61.5 10.5q-48 0 -74 -16t-26 -42t26.5 -41.5t72.5 -15.5q33 0 61 12.5t37 30.5zM100 334l-31 104q13 20 40.5 41.5t70.5 35.5t87 14q103 0 165 -55t62 -151v-323h-123v45q-18 -27 -58 -43t-83 -16q-82 0 -135 46.5t-53 122.5q0 49 24.5 86
t70.5 60t106 23q45 0 78.5 -11t45.5 -25v14q0 45 -30.5 72t-85.5 27q-46 0 -87 -19t-64 -48zM138 750h150l70 -160h-100z" />
    <glyph glyph-name="aacute" unicode="&#xe1;" horiz-adv-x="566" 
d="M367 148v37q-8 14 -35.5 24.5t-61.5 10.5q-48 0 -74 -16t-26 -42t26.5 -41.5t72.5 -15.5q33 0 61 12.5t37 30.5zM100 334l-31 104q13 20 40.5 41.5t70.5 35.5t87 14q103 0 165 -55t62 -151v-323h-123v45q-18 -27 -58 -43t-83 -16q-82 0 -135 46.5t-53 122.5q0 49 24.5 86
t70.5 60t106 23q45 0 78.5 -11t45.5 -25v14q0 45 -30.5 72t-85.5 27q-46 0 -87 -19t-64 -48zM278 750h150l-120 -160h-100z" />
    <glyph glyph-name="acircumflex" unicode="&#xe2;" horiz-adv-x="566" 
d="M367 148v37q-8 14 -35.5 24.5t-61.5 10.5q-48 0 -74 -16t-26 -42t26.5 -41.5t72.5 -15.5q33 0 61 12.5t37 30.5zM100 334l-31 104q13 20 40.5 41.5t70.5 35.5t87 14q103 0 165 -55t62 -151v-323h-123v45q-18 -27 -58 -43t-83 -16q-82 0 -135 46.5t-53 122.5q0 49 24.5 86
t70.5 60t106 23q45 0 78.5 -11t45.5 -25v14q0 45 -30.5 72t-85.5 27q-46 0 -87 -19t-64 -48zM203 750h156l85 -160h-99l-64 79l-64 -79h-99z" />
    <glyph glyph-name="atilde" unicode="&#xe3;" horiz-adv-x="566" 
d="M367 148v37q-8 14 -35.5 24.5t-61.5 10.5q-48 0 -74 -16t-26 -42t26.5 -41.5t72.5 -15.5q33 0 61 12.5t37 30.5zM100 334l-31 104q13 20 40.5 41.5t70.5 35.5t87 14q103 0 165 -55t62 -151v-323h-123v45q-18 -27 -58 -43t-83 -16q-82 0 -135 46.5t-53 122.5q0 49 24.5 86
t70.5 60t106 23q45 0 78.5 -11t45.5 -25v14q0 45 -30.5 72t-85.5 27q-46 0 -87 -19t-64 -48zM198 590h-78q-12 27 -12 56q0 41 28.5 67.5t69.5 26.5q33 0 74.5 -23t51.5 -26t15 -3q11 0 18 6.5t7 17.5q0 13 -7 28h78q13 -30 13 -57q0 -19 -9.5 -41t-33.5 -37t-54 -15
q-33 0 -74.5 23t-51.5 26t-15 3q-11 0 -19 -7t-8 -19t7 -26z" />
    <glyph glyph-name="adieresis" unicode="&#xe4;" horiz-adv-x="566" 
d="M367 148v37q-8 14 -35.5 24.5t-61.5 10.5q-48 0 -74 -16t-26 -42t26.5 -41.5t72.5 -15.5q33 0 61 12.5t37 30.5zM100 334l-31 104q13 20 40.5 41.5t70.5 35.5t87 14q103 0 165 -55t62 -151v-323h-123v45q-18 -27 -58 -43t-83 -16q-82 0 -135 46.5t-53 122.5q0 49 24.5 86
t70.5 60t106 23q45 0 78.5 -11t45.5 -25v14q0 45 -30.5 72t-85.5 27q-46 0 -87 -19t-64 -48zM105 665q0 31 22 53t53 22t53 -22t22 -53t-22 -53t-53 -22t-53 22t-22 53zM307 665q0 31 22 53t53 22t53 -22t22 -53t-22 -53t-53 -22t-53 22t-22 53z" />
    <glyph glyph-name="aring" unicode="&#xe5;" horiz-adv-x="566" 
d="M367 148v37q-8 14 -35.5 24.5t-61.5 10.5q-48 0 -74 -16t-26 -42t26.5 -41.5t72.5 -15.5q33 0 61 12.5t37 30.5zM100 334l-31 104q13 20 40.5 41.5t70.5 35.5t87 14q103 0 165 -55t62 -151v-323h-123v45q-18 -27 -58 -43t-83 -16q-82 0 -135 46.5t-53 122.5q0 49 24.5 86
t70.5 60t106 23q45 0 78.5 -11t45.5 -25v14q0 45 -30.5 72t-85.5 27q-46 0 -87 -19t-64 -48zM172 682q0 33 18.5 60.5t44 38.5t46.5 11t47 -11t44.5 -38.5t18.5 -60.5q0 -21 -11 -47t-38.5 -44.5t-60.5 -18.5q-21 0 -46.5 11t-44 38.5t-18.5 60.5zM246 682q0 -15 11 -24
t24 -9t24 9t11 24t-11 24t-24 9t-24 -9t-11 -24z" />
    <glyph glyph-name="ae" unicode="&#xe6;" horiz-adv-x="918" 
d="M42 154q0 49 24.5 86.5t70.5 60.5t106 23q45 0 78.5 -11t45.5 -25v14q0 34 -15 55.5t-41 32.5t-59 11q-22 0 -51.5 -6.5t-58 -23.5t-44.5 -39l-31 104q27 42 83.5 67.5t116.5 25.5q57 0 104.5 -18.5t76.5 -52.5q35 32 80.5 51.5t96.5 19.5q41 0 78.5 -12.5t67.5 -35.5
t55.5 -59t37.5 -81t12 -84q0 -27 -3 -45h-382q9 -48 49.5 -73t100.5 -25q48 0 92.5 18t65.5 46l39 -98q-25 -41 -79 -67.5t-122 -26.5q-64 0 -119 23t-92 65q-15 -23 -46.5 -45.5t-69 -32.5t-69.5 -10q-42 0 -79 11t-63.5 32.5t-41.5 53.5t-15 71zM496 316h250
q-3 19 -16.5 39t-42 32.5t-62.5 12.5q-49 0 -84.5 -22t-44.5 -62zM367 148v37q-8 14 -35.5 24.5t-61.5 10.5q-48 0 -74 -16t-26 -42t26.5 -41.5t72.5 -15.5q33 0 61 12.5t37 30.5z" />
    <glyph glyph-name="ccedilla" unicode="&#xe7;" horiz-adv-x="550" 
d="M331 -121q0 13 -10 19t-25 6q-18 0 -36 -6l-19 37l16 57q-44 8 -83.5 31.5t-69 58.5t-46 80.5t-16.5 95.5q0 58 21.5 108.5t59.5 87t87 56t102 19.5q64 0 116.5 -26.5t75.5 -64.5l-36 -106q-21 26 -59 44t-83 18q-69 0 -111.5 -37.5t-42.5 -98.5t42.5 -99t111.5 -38
q45 0 83 18.5t61 45.5l38 -107q-22 -37 -71 -62.5t-111 -28.5l-8 -28q32 0 58 -12.5t36 -32.5t10 -38q0 -45 -33 -70.5t-85 -25.5q-34 0 -65.5 14t-46.5 33l12 60q45 -32 91 -32q16 0 26 7t10 17z" />
    <glyph glyph-name="egrave" unicode="&#xe8;" horiz-adv-x="599" 
d="M322 114q48 0 92.5 18t65.5 46l39 -98q-25 -41 -79 -67.5t-122 -26.5q-58 0 -108.5 19t-88 54.5t-58.5 86.5t-21 111q0 54 18.5 103.5t53.5 87.5t84.5 59.5t107.5 21.5q41 0 78.5 -12.5t67.5 -35.5t55.5 -59t37.5 -81t12 -84q0 -27 -3 -45h-382q9 -48 49.5 -73t100.5 -25
zM177 316h250q-6 39 -40 61.5t-81 22.5q-48 0 -84.5 -22.5t-44.5 -61.5zM138 750h150l70 -160h-100z" />
    <glyph glyph-name="eacute" unicode="&#xe9;" horiz-adv-x="599" 
d="M322 114q48 0 92.5 18t65.5 46l39 -98q-25 -41 -79 -67.5t-122 -26.5q-58 0 -108.5 19t-88 54.5t-58.5 86.5t-21 111q0 54 18.5 103.5t53.5 87.5t84.5 59.5t107.5 21.5q41 0 78.5 -12.5t67.5 -35.5t55.5 -59t37.5 -81t12 -84q0 -27 -3 -45h-382q9 -48 49.5 -73t100.5 -25
zM177 316h250q-6 39 -40 61.5t-81 22.5q-48 0 -84.5 -22.5t-44.5 -61.5zM312 750h150l-120 -160h-100z" />
    <glyph glyph-name="ecircumflex" unicode="&#xea;" horiz-adv-x="599" 
d="M322 114q48 0 92.5 18t65.5 46l39 -98q-25 -41 -79 -67.5t-122 -26.5q-58 0 -108.5 19t-88 54.5t-58.5 86.5t-21 111q0 54 18.5 103.5t53.5 87.5t84.5 59.5t107.5 21.5q41 0 78.5 -12.5t67.5 -35.5t55.5 -59t37.5 -81t12 -84q0 -27 -3 -45h-382q9 -48 49.5 -73t100.5 -25
zM177 316h250q-6 39 -40 61.5t-81 22.5q-48 0 -84.5 -22.5t-44.5 -61.5zM223 750h156l85 -160h-99l-64 79l-64 -79h-99z" />
    <glyph glyph-name="edieresis" unicode="&#xeb;" horiz-adv-x="599" 
d="M322 114q48 0 92.5 18t65.5 46l39 -98q-25 -41 -79 -67.5t-122 -26.5q-58 0 -108.5 19t-88 54.5t-58.5 86.5t-21 111q0 54 18.5 103.5t53.5 87.5t84.5 59.5t107.5 21.5q41 0 78.5 -12.5t67.5 -35.5t55.5 -59t37.5 -81t12 -84q0 -27 -3 -45h-382q9 -48 49.5 -73t100.5 -25
zM177 316h250q-6 39 -40 61.5t-81 22.5q-48 0 -84.5 -22.5t-44.5 -61.5zM128 665q0 31 22 53t53 22t53 -22t22 -53t-22 -53t-53 -22t-53 22t-22 53zM330 665q0 31 22 53t53 22t53 -22t22 -53t-22 -53t-53 -22t-53 22t-22 53z" />
    <glyph glyph-name="igrave" unicode="&#xec;" horiz-adv-x="276" 
d="M78 0v515h127v-515h-127zM-25 750h150l70 -160h-100z" />
    <glyph glyph-name="iacute" unicode="&#xed;" horiz-adv-x="276" 
d="M78 0v515h127v-515h-127zM158 750h150l-120 -160h-100z" />
    <glyph glyph-name="icircumflex" unicode="&#xee;" horiz-adv-x="276" 
d="M78 0v515h127v-515h-127zM60 750h156l85 -160h-99l-64 79l-64 -79h-99z" />
    <glyph glyph-name="idieresis" unicode="&#xef;" horiz-adv-x="276" 
d="M78 0v515h127v-515h-127zM-38 665q0 31 22 53t53 22t53 -22t22 -53t-22 -53t-53 -22t-53 22t-22 53zM164 665q0 31 22 53t53 22t53 -22t22 -53t-22 -53t-53 -22t-53 22t-22 53z" />
    <glyph glyph-name="eth" unicode="&#xf0;" horiz-adv-x="627" 
d="M465 739l42 -87l-95 -41l89 -131q84 -126 84 -228q0 -55 -20 -104t-56.5 -85.5t-86.5 -56.5t-107 -20q-53 0 -103 19t-88.5 54t-60 83t-21.5 103q0 57 20.5 105.5t58.5 83t92 54t119 20.5h9l-38 56l-122 -52l-44 89l110 46l-53 81h140l23 -35zM168 251q0 -56 40.5 -93
t105.5 -37q32 0 64.5 12t56.5 43.5t24 74.5q0 57 -40.5 94t-104.5 37q-65 0 -105.5 -37t-40.5 -94z" />
    <glyph glyph-name="ntilde" unicode="&#xf1;" horiz-adv-x="623" 
d="M556 299v-299h-127v278q0 39 -18.5 67.5t-44.5 38.5t-48 10q-40 0 -74 -22.5t-41 -55.5v-316h-127v515h123v-52q11 29 48 47.5t90 18.5q40 0 79.5 -14t71 -42.5t50 -72.5t18.5 -101zM231 590h-78q-12 27 -12 56q0 41 28.5 67.5t69.5 26.5q33 0 74.5 -23t51.5 -26t15 -3
q11 0 18 6.5t7 17.5q0 13 -7 28h78q13 -30 13 -57q0 -19 -9.5 -41t-33.5 -37t-54 -15q-33 0 -74.5 23t-51.5 26t-15 3q-11 0 -19 -7t-8 -19t7 -26z" />
    <glyph glyph-name="ograve" unicode="&#xf2;" horiz-adv-x="628" 
d="M586 257q0 -56 -21.5 -106.5t-59.5 -87t-88 -57t-103 -20.5t-103 20.5t-88 57t-59.5 87t-21.5 106.5t21.5 106.5t59.5 87.5t88 57.5t103 20.5q39 0 84.5 -13.5t92 -51.5t71 -94.5t24.5 -112.5zM170 257q0 -61 43 -98.5t101 -37.5t101 37.5t43 98.5t-43 99t-101 38
t-101 -38t-43 -99zM153 750h150l70 -160h-100z" />
    <glyph glyph-name="oacute" unicode="&#xf3;" horiz-adv-x="628" 
d="M586 257q0 -56 -21.5 -106.5t-59.5 -87t-88 -57t-103 -20.5t-103 20.5t-88 57t-59.5 87t-21.5 106.5t21.5 106.5t59.5 87.5t88 57.5t103 20.5q39 0 84.5 -13.5t92 -51.5t71 -94.5t24.5 -112.5zM170 257q0 -61 43 -98.5t101 -37.5t101 37.5t43 98.5t-43 99t-101 38
t-101 -38t-43 -99zM325 750h150l-120 -160h-100z" />
    <glyph glyph-name="ocircumflex" unicode="&#xf4;" horiz-adv-x="628" 
d="M586 257q0 -56 -21.5 -106.5t-59.5 -87t-88 -57t-103 -20.5t-103 20.5t-88 57t-59.5 87t-21.5 106.5t21.5 106.5t59.5 87.5t88 57.5t103 20.5q39 0 84.5 -13.5t92 -51.5t71 -94.5t24.5 -112.5zM170 257q0 -61 43 -98.5t101 -37.5t101 37.5t43 98.5t-43 99t-101 38
t-101 -38t-43 -99zM235 750h156l85 -160h-99l-64 79l-64 -79h-99z" />
    <glyph glyph-name="otilde" unicode="&#xf5;" horiz-adv-x="628" 
d="M586 257q0 -56 -21.5 -106.5t-59.5 -87t-88 -57t-103 -20.5t-103 20.5t-88 57t-59.5 87t-21.5 106.5t21.5 106.5t59.5 87.5t88 57.5t103 20.5q39 0 84.5 -13.5t92 -51.5t71 -94.5t24.5 -112.5zM170 257q0 -61 43 -98.5t101 -37.5t101 37.5t43 98.5t-43 99t-101 38
t-101 -38t-43 -99zM230 590h-78q-12 27 -12 56q0 41 28.5 67.5t69.5 26.5q33 0 74.5 -23t51.5 -26t15 -3q11 0 18 6.5t7 17.5q0 13 -7 28h78q13 -30 13 -57q0 -19 -9.5 -41t-33.5 -37t-54 -15q-33 0 -74.5 23t-51.5 26t-15 3q-11 0 -19 -7t-8 -19t7 -26z" />
    <glyph glyph-name="odieresis" unicode="&#xf6;" horiz-adv-x="628" 
d="M586 257q0 -56 -21.5 -106.5t-59.5 -87t-88 -57t-103 -20.5t-103 20.5t-88 57t-59.5 87t-21.5 106.5t21.5 106.5t59.5 87.5t88 57.5t103 20.5q39 0 84.5 -13.5t92 -51.5t71 -94.5t24.5 -112.5zM170 257q0 -61 43 -98.5t101 -37.5t101 37.5t43 98.5t-43 99t-101 38
t-101 -38t-43 -99zM137 665q0 31 22 53t53 22t53 -22t22 -53t-22 -53t-53 -22t-53 22t-22 53zM339 665q0 31 22 53t53 22t53 -22t22 -53t-22 -53t-53 -22t-53 22t-22 53z" />
    <glyph glyph-name="divide" unicode="&#xf7;" horiz-adv-x="539" 
d="M50 240v114h439v-114h-439zM269 179q34 0 58 -25t24 -59q0 -33 -24 -57t-58 -24q-33 0 -56.5 26.5t-23.5 61.5q0 32 23.5 54.5t56.5 22.5zM269 580q34 0 58 -25t24 -59q0 -33 -24 -57t-58 -24q-33 0 -56.5 26.5t-23.5 61.5q0 32 23.5 54.5t56.5 22.5z" />
    <glyph glyph-name="oslash" unicode="&#xf8;" horiz-adv-x="637" 
d="M591 257q0 -56 -21.5 -106.5t-59.5 -87t-88 -57t-103 -20.5q-32 0 -66 8.5t-61 22.5l-26 -31h-155l90 107q-25 33 -39.5 75.5t-14.5 88.5q0 56 21.5 106.5t59.5 87.5t88 57.5t103 20.5q31 0 65 -8.5t61 -22.5l26 31h155l-91 -107q26 -34 41 -76.5t15 -88.5zM468 257
q0 36 -16 66l-172 -202q17 -4 39 -4q63 0 106 39.5t43 100.5zM171 257q0 -37 15 -64l170 201q-24 4 -37 4q-62 0 -105 -39.5t-43 -101.5z" />
    <glyph glyph-name="ugrave" unicode="&#xf9;" horiz-adv-x="620" 
d="M67 216v299h127v-278q0 -25 10.5 -53t37.5 -45.5t61 -17.5q40 0 73.5 22.5t40.5 55.5v316h127v-515h-123v52q-11 -29 -47.5 -47.5t-89.5 -18.5q-40 0 -79 14t-70 42.5t-49.5 72.5t-18.5 101zM151 750h150l70 -160h-100z" />
    <glyph glyph-name="uacute" unicode="&#xfa;" horiz-adv-x="620" 
d="M67 216v299h127v-278q0 -25 10.5 -53t37.5 -45.5t61 -17.5q40 0 73.5 22.5t40.5 55.5v316h127v-515h-123v52q-11 -29 -47.5 -47.5t-89.5 -18.5q-40 0 -79 14t-70 42.5t-49.5 72.5t-18.5 101zM310 750h150l-120 -160h-100z" />
    <glyph glyph-name="ucircumflex" unicode="&#xfb;" horiz-adv-x="620" 
d="M67 216v299h127v-278q0 -25 10.5 -53t37.5 -45.5t61 -17.5q40 0 73.5 22.5t40.5 55.5v316h127v-515h-123v52q-11 -29 -47.5 -47.5t-89.5 -18.5q-40 0 -79 14t-70 42.5t-49.5 72.5t-18.5 101zM227 750h156l85 -160h-99l-64 79l-64 -79h-99z" />
    <glyph glyph-name="udieresis" unicode="&#xfc;" horiz-adv-x="620" 
d="M67 216v299h127v-278q0 -25 10.5 -53t37.5 -45.5t61 -17.5q40 0 73.5 22.5t40.5 55.5v316h127v-515h-123v52q-11 -29 -47.5 -47.5t-89.5 -18.5q-40 0 -79 14t-70 42.5t-49.5 72.5t-18.5 101zM130 665q0 31 22 53t53 22t53 -22t22 -53t-22 -53t-53 -22t-53 22t-22 53z
M332 665q0 31 22 53t53 22t53 -22t22 -53t-22 -53t-53 -22t-53 22t-22 53z" />
    <glyph glyph-name="yacute" unicode="&#xfd;" horiz-adv-x="584" 
d="M223 32l-206 483h137l135 -320l135 320h141l-308 -728h-139zM289 750h150l-120 -160h-100z" />
    <glyph glyph-name="thorn" unicode="&#xfe;" horiz-adv-x="656" 
d="M614 258q0 -58 -21 -108.5t-57.5 -87t-84 -56.5t-97.5 -20q-55 0 -96.5 19.5t-54.5 48.5v-267h-127v941h127v-267q13 29 54.5 48.5t96.5 19.5q50 0 97.5 -19.5t84 -56t57.5 -87t21 -108.5zM486 258q0 60 -41.5 98t-107.5 38q-22 0 -49.5 -6.5t-51.5 -23.5t-33 -38v-137
q12 -29 50 -48.5t84 -19.5q66 0 107.5 38.5t41.5 98.5z" />
    <glyph glyph-name="ydieresis" unicode="&#xff;" horiz-adv-x="584" 
d="M223 32l-206 483h137l135 -320l135 320h141l-308 -728h-139zM115 665q0 31 22 53t53 22t53 -22t22 -53t-22 -53t-53 -22t-53 22t-22 53zM317 665q0 31 22 53t53 22t53 -22t22 -53t-22 -53t-53 -22t-53 22t-22 53z" />
    <glyph glyph-name="Amacron" unicode="&#x100;" horiz-adv-x="707" 
d="M418 718l283 -718h-138l-58 147h-300l-58 -147h-141l283 718h129zM355 528l-96 -242h191zM193 888h320v-98h-320v98z" />
    <glyph glyph-name="amacron" unicode="&#x101;" horiz-adv-x="566" 
d="M367 148v37q-8 14 -35.5 24.5t-61.5 10.5q-48 0 -74 -16t-26 -42t26.5 -41.5t72.5 -15.5q33 0 61 12.5t37 30.5zM100 334l-31 104q13 20 40.5 41.5t70.5 35.5t87 14q103 0 165 -55t62 -151v-323h-123v45q-18 -27 -58 -43t-83 -16q-82 0 -135 46.5t-53 122.5q0 49 24.5 86
t70.5 60t106 23q45 0 78.5 -11t45.5 -25v14q0 45 -30.5 72t-85.5 27q-46 0 -87 -19t-64 -48zM121 710h320v-100h-320v100z" />
    <glyph glyph-name="Abreve" unicode="&#x102;" horiz-adv-x="707" 
d="M418 718l283 -718h-138l-58 147h-300l-58 -147h-141l283 718h129zM355 528l-96 -242h191zM405 922h98q0 -62 -44 -106t-106 -44t-106 44t-44 106h99q0 -18 15 -31.5t36 -13.5t36.5 13.5t15.5 31.5z" />
    <glyph glyph-name="abreve" unicode="&#x103;" horiz-adv-x="566" 
d="M367 148v37q-8 14 -35.5 24.5t-61.5 10.5q-48 0 -74 -16t-26 -42t26.5 -41.5t72.5 -15.5q33 0 61 12.5t37 30.5zM100 334l-31 104q13 20 40.5 41.5t70.5 35.5t87 14q103 0 165 -55t62 -151v-323h-123v45q-18 -27 -58 -43t-83 -16q-82 0 -135 46.5t-53 122.5q0 49 24.5 86
t70.5 60t106 23q45 0 78.5 -11t45.5 -25v14q0 45 -30.5 72t-85.5 27q-46 0 -87 -19t-64 -48zM333 740h98q0 -62 -44 -106t-106 -44t-106 44t-44 106h99q0 -18 15 -31.5t36 -13.5t36.5 13.5t15.5 31.5z" />
    <glyph glyph-name="Aogonek" unicode="&#x104;" horiz-adv-x="707" 
d="M628 0h-65l-58 147h-300l-58 -147h-141l283 718h129l283 -718q-21 -25 -28.5 -39.5t-7.5 -30.5q0 -18 12.5 -29.5t29.5 -11.5q18 0 29 9l14 -92q-8 -11 -27 -20.5t-44 -9.5q-55 0 -88 31t-33 78q0 29 18.5 60.5t51.5 54.5zM355 528l-96 -242h191z" />
    <glyph glyph-name="aogonek" unicode="&#x105;" horiz-adv-x="566" 
d="M421 0h-50v45q-18 -27 -58 -43t-83 -16q-82 0 -135 46.5t-53 122.5q0 49 24.5 86t70.5 60t106 23q45 0 78.5 -11t45.5 -25v14q0 45 -30.5 72t-85.5 27q-46 0 -87 -19t-64 -48l-31 104q13 20 40.5 41.5t70.5 35.5t87 14q103 0 165 -55t62 -151v-323q-21 -25 -28.5 -39.5
t-7.5 -30.5q0 -18 12.5 -29.5t29.5 -11.5q18 0 29 9l14 -92q-8 -11 -27 -20.5t-44 -9.5q-55 0 -88 31t-33 78q0 29 18.5 60.5t51.5 54.5zM367 148v37q-8 14 -35.5 24.5t-61.5 10.5q-48 0 -74 -16t-26 -42t26.5 -41.5t72.5 -15.5q33 0 61 12.5t37 30.5z" />
    <glyph glyph-name="Cacute" unicode="&#x106;" horiz-adv-x="704" 
d="M632 233l41 -119q-32 -55 -103.5 -91.5t-168.5 -36.5q-71 0 -137.5 27t-118 77t-81 119.5t-29.5 149.5t29.5 149.5t81 119.5t118 77t137.5 27q91 0 163.5 -36.5t103.5 -90.5l-41 -116q-31 43 -89 72t-127 29q-52 0 -97 -16t-77.5 -46.5t-50 -73.5t-17.5 -95t17.5 -95
t50 -73.5t77.5 -46.5t97 -16q36 0 79 10.5t81 36.5t61 58zM401 922h150l-120 -150h-100z" />
    <glyph glyph-name="cacute" unicode="&#x107;" horiz-adv-x="550" 
d="M470 185l38 -107q-23 -39 -76.5 -65.5t-119.5 -26.5q-52 0 -101.5 20t-87.5 56.5t-59.5 87t-21.5 108.5t21.5 108.5t59.5 87t87 56t102 19.5q64 0 116.5 -26.5t75.5 -64.5l-36 -106q-21 26 -59 44t-83 18q-69 0 -111.5 -37.5t-42.5 -98.5t42.5 -99t111.5 -38
q45 0 83 18.5t61 45.5zM313 750h150l-120 -160h-100z" />
    <glyph glyph-name="Ccircumflex" unicode="&#x108;" horiz-adv-x="704" 
d="M632 233l41 -119q-32 -55 -103.5 -91.5t-168.5 -36.5q-71 0 -137.5 27t-118 77t-81 119.5t-29.5 149.5t29.5 149.5t81 119.5t118 77t137.5 27q91 0 163.5 -36.5t103.5 -90.5l-41 -116q-31 43 -89 72t-127 29q-52 0 -97 -16t-77.5 -46.5t-50 -73.5t-17.5 -95t17.5 -95
t50 -73.5t77.5 -46.5t97 -16q36 0 79 10.5t81 36.5t61 58zM316 922h148l85 -150h-95l-64 69l-64 -69h-95z" />
    <glyph glyph-name="ccircumflex" unicode="&#x109;" horiz-adv-x="550" 
d="M470 185l38 -107q-23 -39 -76.5 -65.5t-119.5 -26.5q-52 0 -101.5 20t-87.5 56.5t-59.5 87t-21.5 108.5t21.5 108.5t59.5 87t87 56t102 19.5q64 0 116.5 -26.5t75.5 -64.5l-36 -106q-21 26 -59 44t-83 18q-69 0 -111.5 -37.5t-42.5 -98.5t42.5 -99t111.5 -38
q45 0 83 18.5t61 45.5zM219 750h156l85 -160h-99l-64 79l-64 -79h-99z" />
    <glyph glyph-name="Cdotaccent" unicode="&#x10a;" horiz-adv-x="704" 
d="M632 233l41 -119q-32 -55 -103.5 -91.5t-168.5 -36.5q-71 0 -137.5 27t-118 77t-81 119.5t-29.5 149.5t29.5 149.5t81 119.5t118 77t137.5 27q91 0 163.5 -36.5t103.5 -90.5l-41 -116q-31 43 -89 72t-127 29q-52 0 -97 -16t-77.5 -46.5t-50 -73.5t-17.5 -95t17.5 -95
t50 -73.5t77.5 -46.5t97 -16q36 0 79 10.5t81 36.5t61 58zM312 847q0 32 23 54t55 22t55 -22t23 -54t-23 -54t-55 -22t-55 22t-23 54z" />
    <glyph glyph-name="cdotaccent" unicode="&#x10b;" horiz-adv-x="550" 
d="M470 185l38 -107q-23 -39 -76.5 -65.5t-119.5 -26.5q-52 0 -101.5 20t-87.5 56.5t-59.5 87t-21.5 108.5t21.5 108.5t59.5 87t87 56t102 19.5q64 0 116.5 -26.5t75.5 -64.5l-36 -106q-21 26 -59 44t-83 18q-69 0 -111.5 -37.5t-42.5 -98.5t42.5 -99t111.5 -38
q45 0 83 18.5t61 45.5zM213 673q0 16 8.5 36t30 34.5t46.5 14.5q16 0 36 -8.5t34.5 -30t14.5 -46.5q0 -16 -8.5 -36t-30 -34.5t-46.5 -14.5q-16 0 -36 8.5t-34.5 30t-14.5 46.5z" />
    <glyph glyph-name="Ccaron" unicode="&#x10c;" horiz-adv-x="704" 
d="M632 233l41 -119q-32 -55 -103.5 -91.5t-168.5 -36.5q-71 0 -137.5 27t-118 77t-81 119.5t-29.5 149.5t29.5 149.5t81 119.5t118 77t137.5 27q91 0 163.5 -36.5t103.5 -90.5l-41 -116q-31 43 -89 72t-127 29q-52 0 -97 -16t-77.5 -46.5t-50 -73.5t-17.5 -95t17.5 -95
t50 -73.5t77.5 -46.5t97 -16q36 0 79 10.5t81 36.5t61 58zM464 772h-148l-85 150h95l64 -69l64 69h95z" />
    <glyph glyph-name="ccaron" unicode="&#x10d;" horiz-adv-x="550" 
d="M470 185l38 -107q-23 -39 -76.5 -65.5t-119.5 -26.5q-52 0 -101.5 20t-87.5 56.5t-59.5 87t-21.5 108.5t21.5 108.5t59.5 87t87 56t102 19.5q64 0 116.5 -26.5t75.5 -64.5l-36 -106q-21 26 -59 44t-83 18q-69 0 -111.5 -37.5t-42.5 -98.5t42.5 -99t111.5 -38
q45 0 83 18.5t61 45.5zM375 590h-156l-85 160h99l64 -79l64 79h99z" />
    <glyph glyph-name="Dcaron" unicode="&#x10e;" horiz-adv-x="735" 
d="M566 359q0 56 -27.5 108.5t-80 80.5t-110.5 28h-132v-434h132q45 0 85 15.5t70 44.5t46.5 69.5t16.5 87.5zM85 718h225q83 0 155.5 -24t124.5 -70.5t81 -114t29 -150.5q0 -82 -29 -149.5t-82 -114t-125 -71t-154 -24.5h-225v718zM418 772h-148l-85 150h95l64 -69l64 69
h95z" />
    <glyph glyph-name="dcaron" unicode="&#x10f;" horiz-adv-x="794" 
d="M42 257q0 58 21 108.5t57.5 87t84 56.5t97.5 20q55 0 96.5 -19.5t54.5 -48.5v267h127v-728h-123v54q-13 -29 -55.5 -48.5t-97.5 -19.5q-51 0 -98.5 19.5t-84.5 56t-58 87t-21 108.5zM170 257q0 -60 41.5 -98t107.5 -38q22 0 49.5 6.5t51.5 23.5t33 38v137
q-12 29 -50 48.5t-84 19.5q-66 0 -107.5 -38.5t-41.5 -98.5zM667 499l51 103q-20 5 -35 21t-15 40q0 28 23 48.5t55 20.5q31 0 52 -21t21 -50q0 -33 -30 -82l-48 -80h-74z" />
    <glyph glyph-name="Dcroat" unicode="&#x110;" horiz-adv-x="756" 
d="M6 298v142h100v278h225q83 0 155.5 -24t124.5 -70.5t81 -114t29 -150.5q0 -82 -29 -149.5t-82 -114t-125 -71t-154 -24.5h-225v298h-100zM587 359q0 56 -27.5 108.5t-80 80.5t-110.5 28h-132v-136h157v-142h-157v-156h132q45 0 85 15.5t70 44.5t46.5 69.5t16.5 87.5z" />
    <glyph glyph-name="dcroat" unicode="&#x111;" horiz-adv-x="659" 
d="M304 565v94h149v69h127v-69h77v-94h-77v-565h-123v53q-13 -29 -55.5 -48t-97.5 -19q-51 0 -98.5 19t-84.5 54.5t-58 85t-21 107.5t21 108t57.5 85.5t84 54.5t97.5 19q55 0 96.5 -18.5t54.5 -47.5v112h-149zM170 252q0 -60 41.5 -95.5t107.5 -35.5q46 0 84 19.5t50 47.5
v130q-12 29 -49.5 47.5t-84.5 18.5q-66 0 -107.5 -36t-41.5 -96z" />
    <glyph glyph-name="Emacron" unicode="&#x112;" horiz-adv-x="541" 
d="M85 0v718h396v-142h-265v-136h235v-142h-235v-156h265v-142h-396zM122 888h320v-98h-320v98z" />
    <glyph glyph-name="emacron" unicode="&#x113;" horiz-adv-x="599" 
d="M322 114q48 0 92.5 18t65.5 46l39 -98q-25 -41 -79 -67.5t-122 -26.5q-58 0 -108.5 19t-88 54.5t-58.5 86.5t-21 111q0 54 18.5 103.5t53.5 87.5t84.5 59.5t107.5 21.5q41 0 78.5 -12.5t67.5 -35.5t55.5 -59t37.5 -81t12 -84q0 -27 -3 -45h-382q9 -48 49.5 -73t100.5 -25
zM177 316h250q-6 39 -40 61.5t-81 22.5q-48 0 -84.5 -22.5t-44.5 -61.5zM141 710h320v-100h-320v100z" />
    <glyph glyph-name="Ebreve" unicode="&#x114;" horiz-adv-x="541" 
d="M85 0v718h396v-142h-265v-136h235v-142h-235v-156h265v-142h-396zM334 922h98q0 -62 -44 -106t-106 -44t-106 44t-44 106h99q0 -18 15 -31.5t36 -13.5t36.5 13.5t15.5 31.5z" />
    <glyph glyph-name="ebreve" unicode="&#x115;" horiz-adv-x="599" 
d="M322 114q48 0 92.5 18t65.5 46l39 -98q-25 -41 -79 -67.5t-122 -26.5q-58 0 -108.5 19t-88 54.5t-58.5 86.5t-21 111q0 54 18.5 103.5t53.5 87.5t84.5 59.5t107.5 21.5q41 0 78.5 -12.5t67.5 -35.5t55.5 -59t37.5 -81t12 -84q0 -27 -3 -45h-382q9 -48 49.5 -73t100.5 -25
zM177 316h250q-6 39 -40 61.5t-81 22.5q-48 0 -84.5 -22.5t-44.5 -61.5zM353 740h98q0 -62 -44 -106t-106 -44t-106 44t-44 106h99q0 -18 15 -31.5t36 -13.5t36.5 13.5t15.5 31.5z" />
    <glyph glyph-name="Edotaccent" unicode="&#x116;" horiz-adv-x="541" 
d="M85 0v718h396v-142h-265v-136h235v-142h-235v-156h265v-142h-396zM204 847q0 32 23 54t55 22t55 -22t23 -54t-23 -54t-55 -22t-55 22t-23 54z" />
    <glyph glyph-name="edotaccent" unicode="&#x117;" horiz-adv-x="599" 
d="M322 114q48 0 92.5 18t65.5 46l39 -98q-25 -41 -79 -67.5t-122 -26.5q-58 0 -108.5 19t-88 54.5t-58.5 86.5t-21 111q0 54 18.5 103.5t53.5 87.5t84.5 59.5t107.5 21.5q41 0 78.5 -12.5t67.5 -35.5t55.5 -59t37.5 -81t12 -84q0 -27 -3 -45h-382q9 -48 49.5 -73t100.5 -25
zM177 316h250q-6 39 -40 61.5t-81 22.5q-48 0 -84.5 -22.5t-44.5 -61.5zM216 673q0 16 8.5 36t30 34.5t46.5 14.5q16 0 36 -8.5t34.5 -30t14.5 -46.5q0 -16 -8.5 -36t-30 -34.5t-46.5 -14.5q-16 0 -36 8.5t-34.5 30t-14.5 46.5z" />
    <glyph glyph-name="Eogonek" unicode="&#x118;" horiz-adv-x="537" 
d="M85 0v718h396v-142h-265v-136h235v-142h-235v-156h265v-142q-21 -25 -28.5 -39.5t-7.5 -30.5q0 -18 12.5 -29.5t29.5 -11.5q18 0 29 9l14 -92q-8 -11 -27 -20.5t-44 -9.5q-55 0 -88 31t-33 78q0 29 18.5 60.5t51.5 54.5h-323z" />
    <glyph glyph-name="eogonek" unicode="&#x119;" horiz-adv-x="599" 
d="M322 114q48 0 92.5 18t65.5 46l39 -97q-16 -19 -26 -35t-10 -35q0 -18 12.5 -29.5t29.5 -11.5q18 0 29 9l14 -92q-8 -11 -27 -20.5t-44 -9.5q-55 0 -88 31t-33 78q0 14 3 26q-28 -6 -61 -6q-58 0 -108.5 19t-88 54.5t-58.5 86.5t-21 111q0 54 18.5 103.5t53.5 87.5
t84.5 59.5t107.5 21.5q41 0 78.5 -12.5t67.5 -35.5t55.5 -59t37.5 -81t12 -84q0 -27 -3 -45h-382q9 -48 49.5 -73t100.5 -25zM177 316h250q-6 39 -40 61.5t-81 22.5q-48 0 -84.5 -22.5t-44.5 -61.5z" />
    <glyph glyph-name="Ecaron" unicode="&#x11a;" horiz-adv-x="541" 
d="M85 0v718h396v-142h-265v-136h235v-142h-235v-156h265v-142h-396zM354 772h-148l-85 150h95l64 -69l64 69h95z" />
    <glyph glyph-name="ecaron" unicode="&#x11b;" horiz-adv-x="599" 
d="M322 114q48 0 92.5 18t65.5 46l39 -98q-25 -41 -79 -67.5t-122 -26.5q-58 0 -108.5 19t-88 54.5t-58.5 86.5t-21 111q0 54 18.5 103.5t53.5 87.5t84.5 59.5t107.5 21.5q41 0 78.5 -12.5t67.5 -35.5t55.5 -59t37.5 -81t12 -84q0 -27 -3 -45h-382q9 -48 49.5 -73t100.5 -25
zM177 316h250q-6 39 -40 61.5t-81 22.5q-48 0 -84.5 -22.5t-44.5 -61.5zM379 590h-156l-85 160h99l64 -79l64 79h99z" />
    <glyph glyph-name="Gcircumflex" unicode="&#x11c;" horiz-adv-x="749" 
d="M401 732q90 0 163 -37t104 -91l-41 -116q-23 30 -61.5 55.5t-80 36t-74.5 10.5q-53 0 -98 -16.5t-77 -47t-49.5 -73.5t-17.5 -94q0 -25 6 -56.5t22 -61t44.5 -55.5t74.5 -42t100 -16q91 0 150 51v73h-155v137h283v-253q-25 -39 -66.5 -75t-101 -55.5t-124.5 -19.5
q-71 0 -138 27t-118.5 77t-81 119.5t-29.5 148.5q0 80 29.5 149.5t81 119.5t118 77.5t137.5 27.5zM321 922h148l85 -150h-95l-64 69l-64 -69h-95z" />
    <glyph glyph-name="gcircumflex" unicode="&#x11d;" horiz-adv-x="646" 
d="M32 267q0 56 21 105t57 84t83.5 54t98.5 19q55 0 98.5 -19.5t56.5 -47.5v53h123v-508q0 -51 -18 -94.5t-52 -74.5t-81.5 -48t-104.5 -17q-36 0 -81.5 10.5t-85.5 35.5t-57 54l38 114q27 -34 74.5 -57.5t101.5 -23.5q67 0 103 31.5t36 91.5v41q-13 -29 -55 -48t-98 -19
q-50 0 -97 19.5t-83.5 55t-57 84.5t-20.5 105zM160 264q0 -58 41 -94t108 -36q46 0 84 19.5t50 46.5v127q-6 12 -22.5 28t-47.5 27.5t-64 11.5q-67 0 -108 -36.5t-41 -93.5zM244 750h156l85 -160h-99l-64 79l-64 -79h-99z" />
    <glyph glyph-name="Gbreve" unicode="&#x11e;" horiz-adv-x="749" 
d="M401 732q90 0 163 -37t104 -91l-41 -116q-23 30 -61.5 55.5t-80 36t-74.5 10.5q-53 0 -98 -16.5t-77 -47t-49.5 -73.5t-17.5 -94q0 -25 6 -56.5t22 -61t44.5 -55.5t74.5 -42t100 -16q91 0 150 51v73h-155v137h283v-253q-25 -39 -66.5 -75t-101 -55.5t-124.5 -19.5
q-71 0 -138 27t-118.5 77t-81 119.5t-29.5 148.5q0 80 29.5 149.5t81 119.5t118 77.5t137.5 27.5zM442 922h98q0 -62 -44 -106t-106 -44t-106 44t-44 106h99q0 -18 15 -31.5t36 -13.5t36.5 13.5t15.5 31.5z" />
    <glyph glyph-name="gbreve" unicode="&#x11f;" horiz-adv-x="646" 
d="M32 267q0 56 21 105t57 84t83.5 54t98.5 19q55 0 98.5 -19.5t56.5 -47.5v53h123v-508q0 -51 -18 -94.5t-52 -74.5t-81.5 -48t-104.5 -17q-36 0 -81.5 10.5t-85.5 35.5t-57 54l38 114q27 -34 74.5 -57.5t101.5 -23.5q67 0 103 31.5t36 91.5v41q-13 -29 -55 -48t-98 -19
q-50 0 -97 19.5t-83.5 55t-57 84.5t-20.5 105zM160 264q0 -58 41 -94t108 -36q46 0 84 19.5t50 46.5v127q-6 12 -22.5 28t-47.5 27.5t-64 11.5q-67 0 -108 -36.5t-41 -93.5zM374 740h98q0 -62 -44 -106t-106 -44t-106 44t-44 106h99q0 -18 15 -31.5t36 -13.5t36.5 13.5
t15.5 31.5z" />
    <glyph glyph-name="Gdotaccent" unicode="&#x120;" horiz-adv-x="749" 
d="M401 732q90 0 163 -37t104 -91l-41 -116q-23 30 -61.5 55.5t-80 36t-74.5 10.5q-53 0 -98 -16.5t-77 -47t-49.5 -73.5t-17.5 -94q0 -25 6 -56.5t22 -61t44.5 -55.5t74.5 -42t100 -16q91 0 150 51v73h-155v137h283v-253q-25 -39 -66.5 -75t-101 -55.5t-124.5 -19.5
q-71 0 -138 27t-118.5 77t-81 119.5t-29.5 148.5q0 80 29.5 149.5t81 119.5t118 77.5t137.5 27.5zM312 847q0 32 23 54t55 22t55 -22t23 -54t-23 -54t-55 -22t-55 22t-23 54z" />
    <glyph glyph-name="gdotaccent" unicode="&#x121;" horiz-adv-x="646" 
d="M32 267q0 56 21 105t57 84t83.5 54t98.5 19q55 0 98.5 -19.5t56.5 -47.5v53h123v-508q0 -51 -18 -94.5t-52 -74.5t-81.5 -48t-104.5 -17q-36 0 -81.5 10.5t-85.5 35.5t-57 54l38 114q27 -34 74.5 -57.5t101.5 -23.5q67 0 103 31.5t36 91.5v41q-13 -29 -55 -48t-98 -19
q-50 0 -97 19.5t-83.5 55t-57 84.5t-20.5 105zM160 264q0 -58 41 -94t108 -36q46 0 84 19.5t50 46.5v127q-6 12 -22.5 28t-47.5 27.5t-64 11.5q-67 0 -108 -36.5t-41 -93.5zM237 673q0 16 8.5 36t30 34.5t46.5 14.5q16 0 36 -8.5t34.5 -30t14.5 -46.5q0 -16 -8.5 -36
t-30 -34.5t-46.5 -14.5q-16 0 -36 8.5t-34.5 30t-14.5 46.5z" />
    <glyph glyph-name="Gcommaaccent" unicode="&#x122;" horiz-adv-x="749" 
d="M401 732q90 0 163 -37t104 -91l-41 -116q-23 30 -61.5 55.5t-80 36t-74.5 10.5q-53 0 -98 -16.5t-77 -47t-49.5 -73.5t-17.5 -94q0 -25 6 -56.5t22 -61t44.5 -55.5t74.5 -42t100 -16q91 0 150 51v73h-155v137h283v-253q-25 -39 -66.5 -75t-101 -55.5t-124.5 -19.5
q-71 0 -138 27t-118.5 77t-81 119.5t-29.5 148.5q0 80 29.5 149.5t81 119.5t118 77.5t137.5 27.5zM324 -286l51 103q-20 5 -35 21t-15 40q0 28 23 48.5t55 20.5q31 0 52 -21t21 -50q0 -33 -30 -82l-48 -80h-74z" />
    <glyph glyph-name="gcommaaccent" unicode="&#x123;" horiz-adv-x="646" 
d="M32 267q0 56 21 105t57 84t83.5 54t98.5 19q55 0 98.5 -19.5t56.5 -47.5v53h123v-508q0 -51 -18 -94.5t-52 -74.5t-81.5 -48t-104.5 -17q-36 0 -81.5 10.5t-85.5 35.5t-57 54l38 114q27 -34 74.5 -57.5t101.5 -23.5q67 0 103 31.5t36 91.5v41q-13 -29 -55 -48t-98 -19
q-50 0 -97 19.5t-83.5 55t-57 84.5t-20.5 105zM160 264q0 -58 41 -94t108 -36q46 0 84 19.5t50 46.5v127q-6 12 -22.5 28t-47.5 27.5t-64 11.5q-67 0 -108 -36.5t-41 -93.5zM390 813l-51 -103q20 -5 35 -21t15 -40q0 -28 -23 -48.5t-55 -20.5q-31 0 -52 21t-21 50
q0 33 30 82l48 80h74z" />
    <glyph glyph-name="Hcircumflex" unicode="&#x124;" horiz-adv-x="766" 
d="M85 0v718h131v-278h334v278h131v-718h-131v298h-334v-298h-131zM309 922h148l85 -150h-95l-64 69l-64 -69h-95z" />
    <glyph glyph-name="hcircumflex" unicode="&#x125;" horiz-adv-x="623" 
d="M203 316v-316h-127v728h127v-265q11 29 46 47.5t88 18.5q40 0 79.5 -14t71 -42.5t50 -72.5t18.5 -101v-299h-127v278q0 39 -18.5 67.5t-44.5 38.5t-48 10q-40 0 -74 -22.5t-41 -55.5zM242 942h156l85 -160h-99l-64 79l-64 -79h-99z" />
    <glyph glyph-name="Hbar" unicode="&#x126;" horiz-adv-x="816" 
d="M10 521v99h100v98h131v-98h334v98h131v-98h100v-99h-100v-521h-131v298h-334v-298h-131v521h-100zM241 440h334v81h-334v-81z" />
    <glyph glyph-name="hbar" unicode="&#x127;" horiz-adv-x="626" 
d="M206 284v-284h-127v556h-77v109h77v63h127v-63h149v-109h-149v-125q11 29 46 47.5t88 18.5q40 0 79.5 -14t71 -42.5t50 -72.5t18.5 -101v-267h-127v246q0 39 -18.5 67.5t-44.5 38.5t-48 10q-40 0 -74 -22.5t-41 -55.5z" />
    <glyph glyph-name="Itilde" unicode="&#x128;" horiz-adv-x="301" 
d="M85 0v718h131v-718h-131zM67 772h-78q-12 27 -12 56q0 41 28.5 67.5t69.5 26.5q33 0 74.5 -23t51.5 -26t15 -3q11 0 18 6.5t7 17.5q0 13 -7 28h78q13 -30 13 -57q0 -19 -9.5 -41t-33.5 -37t-54 -15q-33 0 -74.5 23t-51.5 26t-15 3q-18 0 -24.5 -14t4.5 -38z" />
    <glyph glyph-name="itilde" unicode="&#x129;" horiz-adv-x="277" 
d="M78 0v515h127v-515h-127zM55 590h-78q-12 27 -12 56q0 41 28.5 67.5t69.5 26.5q33 0 74.5 -23t51.5 -26t15 -3q11 0 18 6.5t7 17.5q0 13 -7 28h78q13 -30 13 -57q0 -19 -9.5 -41t-33.5 -37t-54 -15q-33 0 -74.5 23t-51.5 26t-15 3q-11 0 -19 -7t-8 -19t7 -26z" />
    <glyph glyph-name="Imacron" unicode="&#x12a;" horiz-adv-x="301" 
d="M85 0v718h131v-718h-131zM-10 888h320v-98h-320v98z" />
    <glyph glyph-name="imacron" unicode="&#x12b;" horiz-adv-x="277" 
d="M78 0v515h127v-515h-127zM-22 710h320v-100h-320v100z" />
    <glyph glyph-name="Ibreve" unicode="&#x12c;" horiz-adv-x="301" 
d="M85 0v718h131v-718h-131zM202 922h98q0 -62 -44 -106t-106 -44t-106 44t-44 106h99q0 -18 15 -31.5t36 -13.5t36.5 13.5t15.5 31.5z" />
    <glyph glyph-name="ibreve" unicode="&#x12d;" horiz-adv-x="277" 
d="M78 0v515h127v-515h-127zM190 740h98q0 -62 -44 -106t-106 -44t-106 44t-44 106h99q0 -18 15 -31.5t36 -13.5t36.5 13.5t15.5 31.5z" />
    <glyph glyph-name="Iogonek" unicode="&#x12e;" horiz-adv-x="301" 
d="M85 0v718h131v-718q-21 -25 -28.5 -39.5t-7.5 -30.5q0 -18 12.5 -29.5t29.5 -11.5q18 0 29 9l14 -92q-8 -11 -27 -20.5t-44 -9.5q-55 0 -88 31t-33 78q0 29 18.5 60.5t51.5 54.5h-58z" />
    <glyph glyph-name="iogonek" unicode="&#x12f;" horiz-adv-x="282" 
d="M78 0v515h127v-515q-21 -25 -28.5 -39.5t-7.5 -30.5q0 -18 12.5 -29.5t29.5 -11.5q18 0 29 9l14 -92q-8 -11 -27 -20.5t-44 -9.5q-55 0 -88 31t-33 78q0 29 18.5 60.5t51.5 54.5h-54zM56 673q0 16 8.5 36t30 34.5t46.5 14.5q16 0 36 -8.5t34.5 -30t14.5 -46.5
q0 -16 -8.5 -36t-30 -34.5t-46.5 -14.5q-16 0 -36 8.5t-34.5 30t-14.5 46.5z" />
    <glyph glyph-name="Idotaccent" unicode="&#x130;" horiz-adv-x="301" 
d="M85 0v718h131v-718h-131zM72 847q0 32 23 54t55 22t55 -22t23 -54t-23 -54t-55 -22t-55 22t-23 54z" />
    <glyph glyph-name="dotlessi" unicode="&#x131;" horiz-adv-x="283" 
d="M78 0v515h127v-515h-127z" />
    <glyph glyph-name="IJ" unicode="&#x132;" horiz-adv-x="558" 
d="M85 280v438h131v-438h-131zM478 718v-508q0 -107 -57.5 -165.5t-170.5 -58.5q-22 0 -54 6.5t-64 24.5t-47 41l11 135q31 -31 71 -48t82 -17q43 0 70.5 24.5t27.5 76.5v489h131z" />
    <glyph glyph-name="ij" unicode="&#x133;" horiz-adv-x="565" 
d="M78 0v515h127v-515h-127zM56 673q0 16 8.5 36t30 34.5t46.5 14.5q16 0 36 -8.5t34.5 -30t14.5 -46.5q0 -16 -8.5 -36t-30 -34.5t-46.5 -14.5q-16 0 -36 8.5t-34.5 30t-14.5 46.5zM361 -27v542h127v-571q0 -84 -35 -127.5t-102 -43.5q-25 0 -54 8.5t-52 28.5l12 121
q11 -11 26.5 -17t28.5 -6q26 0 37.5 15.5t11.5 49.5zM339 673q0 16 8.5 36t30 34.5t46.5 14.5q16 0 36 -8.5t34.5 -30t14.5 -46.5q0 -16 -8.5 -36t-30 -34.5t-46.5 -14.5q-16 0 -36 8.5t-34.5 30t-14.5 46.5z" />
    <glyph glyph-name="Jcircumflex" unicode="&#x134;" horiz-adv-x="428" 
d="M348 718v-533q0 -95 -47.5 -147t-140.5 -52q-40 0 -81.5 19.5t-58.5 47.5l14 128q48 -53 111 -53q33 0 52.5 20.5t19.5 64.5v505h131zM209 922h148l85 -150h-95l-64 69l-64 -69h-95z" />
    <glyph glyph-name="jcircumflex" unicode="&#x135;" horiz-adv-x="287" 
d="M83 -27v542h127v-571q0 -84 -35 -127.5t-102 -43.5q-25 0 -54 8.5t-52 28.5l12 121q11 -11 26.5 -17t28.5 -6q26 0 37.5 15.5t11.5 49.5zM68 740h156l85 -160h-99l-64 79l-64 -79h-99z" />
    <glyph glyph-name="Kcommaaccent" unicode="&#x136;" horiz-adv-x="667" 
d="M85 0v718h131v-274l244 274h168l-303 -341l342 -377h-181l-270 297v-297h-131zM273 -286l51 103q-20 5 -35 21t-15 40q0 28 23 48.5t55 20.5q31 0 52 -21t21 -50q0 -33 -30 -82l-48 -80h-74z" />
    <glyph glyph-name="kcommaaccent" unicode="&#x137;" horiz-adv-x="575" 
d="M76 0v728h127v-404l188 191h170l-238 -242l260 -273h-171l-209 217v-217h-127zM231 -286l51 103q-20 5 -35 21t-15 40q0 28 23 48.5t55 20.5q31 0 52 -21t21 -50q0 -33 -30 -82l-48 -80h-74z" />
    <glyph glyph-name="kgreenlandic" unicode="&#x138;" horiz-adv-x="575" 
d="M76 0v515h127v-195l190 195h163l-233 -246l260 -269h-171l-209 213v-213h-127z" />
    <glyph glyph-name="Lacute" unicode="&#x139;" horiz-adv-x="485" 
d="M85 0v718h131v-576h249v-142h-380zM170 922h150l-120 -150h-100z" />
    <glyph glyph-name="lacute" unicode="&#x13a;" horiz-adv-x="277" 
d="M66 0v728h127v-728h-127zM146 922h150l-120 -150h-100z" />
    <glyph glyph-name="Lcommaaccent" unicode="&#x13b;" horiz-adv-x="485" 
d="M85 0v718h131v-576h249v-142h-380zM202 -286l51 103q-20 5 -35 21t-15 40q0 28 23 48.5t55 20.5q31 0 52 -21t21 -50q0 -33 -30 -82l-48 -80h-74z" />
    <glyph glyph-name="lcommaaccent" unicode="&#x13c;" horiz-adv-x="279" 
d="M76 0v728h127v-728h-127zM64 -286l51 103q-20 5 -35 21t-15 40q0 28 23 48.5t55 20.5q31 0 52 -21t21 -50q0 -33 -30 -82l-48 -80h-74z" />
    <glyph glyph-name="Lcaron" unicode="&#x13d;" horiz-adv-x="503" 
d="M85 0v718h131v-576h249v-142h-380zM306 499l51 103q-20 5 -35 21t-15 40q0 28 23 48.5t55 20.5q31 0 52 -21t21 -50q0 -33 -30 -82l-48 -80h-74z" />
    <glyph glyph-name="lcaron" unicode="&#x13e;" horiz-adv-x="417" 
d="M76 0v728h127v-728h-127zM290 499l51 103q-20 5 -35 21t-15 40q0 28 23 48.5t55 20.5q31 0 52 -21t21 -50q0 -33 -30 -82l-48 -80h-74z" />
    <glyph glyph-name="Ldot" unicode="&#x13f;" horiz-adv-x="516" 
d="M85 0v718h131v-576h249v-142h-380zM310 389q0 32 23 54t55 22t55 -22t23 -54t-23 -54t-55 -22t-55 22t-23 54z" />
    <glyph glyph-name="ldot" unicode="&#x140;" horiz-adv-x="447" 
d="M76 0v728h127v-728h-127zM270 375q0 16 8.5 36t30 34.5t46.5 14.5q16 0 36 -8.5t34.5 -30t14.5 -46.5q0 -16 -8.5 -36t-30 -34.5t-46.5 -14.5q-16 0 -36 8.5t-34.5 30t-14.5 46.5z" />
    <glyph glyph-name="Lslash" unicode="&#x141;" horiz-adv-x="513" 
d="M113 0v233l-107 -59v137l107 59v348h131v-275l177 98v-137l-177 -98v-164h249v-142h-380z" />
    <glyph glyph-name="lslash" unicode="&#x142;" horiz-adv-x="371" 
d="M122 0v285l-92 -51v137l92 51v306h127v-236l92 51v-137l-92 -51v-355h-127z" />
    <glyph glyph-name="Nacute" unicode="&#x143;" horiz-adv-x="766" 
d="M85 0v718h131l334 -487v487h131v-718h-132l-333 484v-484h-131zM386 922h150l-120 -150h-100z" />
    <glyph glyph-name="nacute" unicode="&#x144;" horiz-adv-x="623" 
d="M556 299v-299h-127v278q0 39 -18.5 67.5t-44.5 38.5t-48 10q-40 0 -74 -22.5t-41 -55.5v-316h-127v515h123v-52q11 29 48 47.5t90 18.5q40 0 79.5 -14t71 -42.5t50 -72.5t18.5 -101zM322 750h150l-120 -160h-100z" />
    <glyph glyph-name="Ncommaaccent" unicode="&#x145;" horiz-adv-x="766" 
d="M85 0v718h131l334 -487v487h131v-718h-132l-333 484v-484h-131zM307 -286l51 103q-20 5 -35 21t-15 40q0 28 23 48.5t55 20.5q31 0 52 -21t21 -50q0 -33 -30 -82l-48 -80h-74z" />
    <glyph glyph-name="ncommaaccent" unicode="&#x146;" horiz-adv-x="623" 
d="M556 299v-299h-127v278q0 39 -18.5 67.5t-44.5 38.5t-48 10q-40 0 -74 -22.5t-41 -55.5v-316h-127v515h123v-52q11 29 48 47.5t90 18.5q40 0 79.5 -14t71 -42.5t50 -72.5t18.5 -101zM240 -286l51 103q-20 5 -35 21t-15 40q0 28 23 48.5t55 20.5q31 0 52 -21t21 -50
q0 -33 -30 -82l-48 -80h-74z" />
    <glyph glyph-name="Ncaron" unicode="&#x147;" horiz-adv-x="766" 
d="M85 0v718h131l334 -487v487h131v-718h-132l-333 484v-484h-131zM457 772h-148l-85 150h95l64 -69l64 69h95z" />
    <glyph glyph-name="ncaron" unicode="&#x148;" horiz-adv-x="623" 
d="M556 299v-299h-127v278q0 39 -18.5 67.5t-44.5 38.5t-48 10q-40 0 -74 -22.5t-41 -55.5v-316h-127v515h123v-52q11 29 48 47.5t90 18.5q40 0 79.5 -14t71 -42.5t50 -72.5t18.5 -101zM394 590h-156l-85 160h99l64 -79l64 79h99z" />
    <glyph glyph-name="napostrophe" unicode="&#x149;" horiz-adv-x="623" 
d="M556 299v-299h-127v278q0 39 -18.5 67.5t-44.5 38.5t-48 10q-40 0 -74 -22.5t-41 -55.5v-316h-127v515h123v-52q11 29 48 47.5t90 18.5q40 0 79.5 -14t71 -42.5t50 -72.5t18.5 -101zM66 562l51 103q-20 5 -35 21t-15 40q0 28 23 48.5t55 20.5q31 0 52 -21t21 -50
q0 -33 -30 -82l-48 -80h-74z" />
    <glyph glyph-name="Eng" unicode="&#x14a;" horiz-adv-x="766" 
d="M85 0v718h131l334 -487v487h131v-746q0 -95 -47.5 -147t-140.5 -52q-40 0 -81.5 19.5t-58.5 47.5l14 128q48 -53 111 -53q33 0 52.5 20.5t19.5 64.5l-334 484v-484h-131z" />
    <glyph glyph-name="eng" unicode="&#x14b;" horiz-adv-x="623" 
d="M429 -27v305q0 39 -18.5 67.5t-44.5 38.5t-48 10q-40 0 -74 -22.5t-41 -55.5v-316h-127v515h123v-52q11 29 48 47.5t90 18.5q40 0 79.5 -14t71 -42.5t50 -72.5t18.5 -101v-355q0 -84 -35 -127.5t-102 -43.5q-25 0 -54 8.5t-52 28.5l12 121q11 -11 26.5 -17t28.5 -6
q26 0 37.5 15.5t11.5 49.5z" />
    <glyph glyph-name="Omacron" unicode="&#x14c;" horiz-adv-x="810" 
d="M405 732q93 0 178 -45t138.5 -132t53.5 -196q0 -77 -29 -146t-81 -120t-119.5 -79t-140.5 -28t-140.5 28t-119.5 79t-81 120t-29 146t29 146t81 120t119.5 79t140.5 28zM405 590q-49 0 -92.5 -16.5t-75.5 -47.5t-50 -74t-18 -93t18 -93t50 -74t75.5 -47.5t92.5 -16.5
t92 16.5t75 47.5t50 74t18 93q0 37 -12 77t-44.5 78t-81 57t-97.5 19zM244 888h320v-98h-320v98z" />
    <glyph glyph-name="omacron" unicode="&#x14d;" horiz-adv-x="628" 
d="M586 257q0 -56 -21.5 -106.5t-59.5 -87t-88 -57t-103 -20.5t-103 20.5t-88 57t-59.5 87t-21.5 106.5t21.5 106.5t59.5 87.5t88 57.5t103 20.5q39 0 84.5 -13.5t92 -51.5t71 -94.5t24.5 -112.5zM170 257q0 -61 43 -98.5t101 -37.5t101 37.5t43 98.5t-43 99t-101 38
t-101 -38t-43 -99zM153 710h320v-100h-320v100z" />
    <glyph glyph-name="Obreve" unicode="&#x14e;" horiz-adv-x="810" 
d="M405 732q93 0 178 -45t138.5 -132t53.5 -196q0 -77 -29 -146t-81 -120t-119.5 -79t-140.5 -28t-140.5 28t-119.5 79t-81 120t-29 146t29 146t81 120t119.5 79t140.5 28zM405 590q-49 0 -92.5 -16.5t-75.5 -47.5t-50 -74t-18 -93t18 -93t50 -74t75.5 -47.5t92.5 -16.5
t92 16.5t75 47.5t50 74t18 93q0 37 -12 77t-44.5 78t-81 57t-97.5 19zM456 922h98q0 -62 -44 -106t-106 -44t-106 44t-44 106h99q0 -18 15 -31.5t36 -13.5t36.5 13.5t15.5 31.5z" />
    <glyph glyph-name="obreve" unicode="&#x14f;" horiz-adv-x="628" 
d="M586 257q0 -56 -21.5 -106.5t-59.5 -87t-88 -57t-103 -20.5t-103 20.5t-88 57t-59.5 87t-21.5 106.5t21.5 106.5t59.5 87.5t88 57.5t103 20.5q39 0 84.5 -13.5t92 -51.5t71 -94.5t24.5 -112.5zM170 257q0 -61 43 -98.5t101 -37.5t101 37.5t43 98.5t-43 99t-101 38
t-101 -38t-43 -99zM365 740h98q0 -62 -44 -106t-106 -44t-106 44t-44 106h99q0 -18 15 -31.5t36 -13.5t36.5 13.5t15.5 31.5z" />
    <glyph glyph-name="Ohungarumlaut" unicode="&#x150;" horiz-adv-x="810" 
d="M405 732q93 0 178 -45t138.5 -132t53.5 -196q0 -77 -29 -146t-81 -120t-119.5 -79t-140.5 -28t-140.5 28t-119.5 79t-81 120t-29 146t29 146t81 120t119.5 79t140.5 28zM405 590q-49 0 -92.5 -16.5t-75.5 -47.5t-50 -74t-18 -93t18 -93t50 -74t75.5 -47.5t92.5 -16.5
t92 16.5t75 47.5t50 74t18 93q0 37 -12 77t-44.5 78t-81 57t-97.5 19zM318 922h140l-120 -150h-90zM510 922h140l-120 -150h-90z" />
    <glyph glyph-name="ohungarumlaut" unicode="&#x151;" horiz-adv-x="627" 
d="M586 257q0 -56 -21.5 -106.5t-59.5 -87t-88 -57t-103 -20.5t-103 20.5t-88 57t-59.5 87t-21.5 106.5t21.5 106.5t59.5 87.5t88 57.5t103 20.5q39 0 84.5 -13.5t92 -51.5t71 -94.5t24.5 -112.5zM170 257q0 -61 43 -98.5t101 -37.5t101 37.5t43 98.5t-43 99t-101 38
t-101 -38t-43 -99zM237 750h140l-120 -160h-90zM427 750h140l-120 -160h-90z" />
    <glyph glyph-name="OE" unicode="&#x152;" horiz-adv-x="1096" 
d="M405 732q64 0 125.5 -22t109.5 -61v69h396v-142h-265v-136h235v-142h-235v-156h265v-142h-396v70q-49 -40 -110 -62t-125 -22q-73 0 -140.5 28t-119.5 79t-81 120t-29 146t29 146t81 120t119.5 79t140.5 28zM405 590q-49 0 -92.5 -16.5t-75.5 -47.5t-50 -74t-18 -93
t18 -93t50 -74t75.5 -47.5t92.5 -16.5t92 16.5t75 47.5t50 74t18 93q0 37 -12 77t-44.5 78t-81 57t-97.5 19z" />
    <glyph glyph-name="oe" unicode="&#x153;" horiz-adv-x="1010" 
d="M170 257q0 -61 43 -98.5t101 -37.5t101 37.5t43 98.5t-43 99t-101 38t-101 -38t-43 -99zM588 316h250q-3 19 -16.5 39t-42 32.5t-62.5 12.5q-49 0 -84.5 -22t-44.5 -62zM729 -14q-64 0 -120 23.5t-93 65.5q-37 -41 -90.5 -65t-111.5 -24q-53 0 -103 20.5t-88 57t-59.5 87
t-21.5 106.5t21.5 106.5t59.5 87.5t88 57.5t103 20.5q58 0 111.5 -24t91.5 -66q35 41 87 65.5t113 24.5q41 0 78.5 -12.5t67.5 -35.5t55.5 -59t37.5 -81t12 -84q0 -27 -3 -45h-382q9 -48 49.5 -73t100.5 -25q48 0 92.5 18t65.5 46l39 -98q-25 -41 -79 -67.5t-122 -26.5z" />
    <glyph glyph-name="Racute" unicode="&#x154;" horiz-adv-x="571" 
d="M85 0v718h213q63 0 112 -27t76.5 -73t27.5 -110q0 -69 -35.5 -122t-97.5 -74l165 -312h-146l-158 298h-26v-298h-131zM309 577h-93v-147h93q31 0 52.5 20.5t21.5 52.5q0 31 -21 52.5t-53 21.5zM279 922h150l-120 -150h-100z" />
    <glyph glyph-name="racute" unicode="&#x155;" horiz-adv-x="416" 
d="M396 490l-18 -117q-12 8 -30.5 14.5t-37.5 6.5q-42 0 -70.5 -24t-36.5 -60v-310h-127v515h123v-68q11 36 41.5 59t72.5 23q27 0 50 -11.5t33 -27.5zM244 750h150l-120 -160h-100z" />
    <glyph glyph-name="Rcommaaccent" unicode="&#x156;" horiz-adv-x="571" 
d="M85 0v718h213q63 0 112 -27t76.5 -73t27.5 -110q0 -69 -35.5 -122t-97.5 -74l165 -312h-146l-158 298h-26v-298h-131zM309 577h-93v-147h93q31 0 52.5 20.5t21.5 52.5q0 31 -21 52.5t-53 21.5zM231 -286l51 103q-20 5 -35 21t-15 40q0 28 23 48.5t55 20.5q31 0 52 -21
t21 -50q0 -33 -30 -82l-48 -80h-74z" />
    <glyph glyph-name="rcommaaccent" unicode="&#x157;" horiz-adv-x="406" 
d="M386 490l-18 -117q-12 8 -30.5 14.5t-37.5 6.5q-42 0 -70.5 -24t-36.5 -60v-310h-127v515h123v-68q11 36 41.5 59t72.5 23q27 0 50 -11.5t33 -27.5zM53 -286l51 103q-20 5 -35 21t-15 40q0 28 23 48.5t55 20.5q31 0 52 -21t21 -50q0 -33 -30 -82l-48 -80h-74z" />
    <glyph glyph-name="Rcaron" unicode="&#x158;" horiz-adv-x="571" 
d="M85 0v718h213q63 0 112 -27t76.5 -73t27.5 -110q0 -69 -35.5 -122t-97.5 -74l165 -312h-146l-158 298h-26v-298h-131zM309 577h-93v-147h93q31 0 52.5 20.5t21.5 52.5q0 31 -21 52.5t-53 21.5zM358 772h-148l-85 150h95l64 -69l64 69h95z" />
    <glyph glyph-name="rcaron" unicode="&#x159;" horiz-adv-x="419" 
d="M399 490l-18 -117q-12 8 -30.5 14.5t-37.5 6.5q-42 0 -70.5 -24t-36.5 -60v-310h-127v515h123v-68q11 36 41.5 59t72.5 23q27 0 50 -11.5t33 -27.5zM313 590h-156l-85 160h99l64 -79l64 79h99z" />
    <glyph glyph-name="Sacute" unicode="&#x15a;" horiz-adv-x="503" 
d="M442 636l-26 -124q-31 35 -76 56.5t-87 21.5q-27 0 -47 -10t-20 -32q0 -23 48 -62q8 -6 58.5 -46.5t77.5 -64.5q34 -30 57.5 -61t33 -64t9.5 -61q0 -33 -10.5 -68t-40 -68.5t-75 -50t-92.5 -16.5q-76 0 -140 38t-83 85l39 124q32 -45 86 -75t105 -30q34 0 56 15.5
t22 43.5q0 16 -9 33.5t-43 46.5q-15 12 -52.5 42.5t-63.5 53t-46 43.5q-32 34 -51 69.5t-19 78.5q0 51 23.5 90t68.5 63.5t107 24.5q46 0 88 -17t66.5 -39.5t35.5 -39.5zM247 922h150l-120 -150h-100z" />
    <glyph glyph-name="sacute" unicode="&#x15b;" horiz-adv-x="442" 
d="M220 201l-43 22q-124 63 -124 157q0 62 47.5 105.5t120.5 43.5q53 0 95.5 -21t61.5 -50l-24 -113q-28 27 -64 40.5t-66 13.5q-15 0 -29 -5.5t-14 -19.5q0 -6 5 -14t36 -24l48 -25q48 -25 78 -51.5t40.5 -56t10.5 -56.5q0 -25 -9 -52.5t-33.5 -54.5t-63 -40.5t-79.5 -13.5
q-30 0 -65 9t-65.5 31t-44.5 48l36 112q30 -39 68 -55.5t75 -16.5q24 0 39.5 8.5t15.5 26.5q0 12 -8.5 22.5t-44.5 29.5zM224 750h150l-120 -160h-100z" />
    <glyph glyph-name="Scircumflex" unicode="&#x15c;" horiz-adv-x="503" 
d="M442 636l-26 -124q-31 35 -76 56.5t-87 21.5q-27 0 -47 -10t-20 -32q0 -23 48 -62q8 -6 58.5 -46.5t77.5 -64.5q34 -30 57.5 -61t33 -64t9.5 -61q0 -33 -10.5 -68t-40 -68.5t-75 -50t-92.5 -16.5q-76 0 -140 38t-83 85l39 124q32 -45 86 -75t105 -30q34 0 56 15.5
t22 43.5q0 16 -9 33.5t-43 46.5q-15 12 -52.5 42.5t-63.5 53t-46 43.5q-32 34 -51 69.5t-19 78.5q0 51 23.5 90t68.5 63.5t107 24.5q46 0 88 -17t66.5 -39.5t35.5 -39.5zM179 922h148l85 -150h-95l-64 69l-64 -69h-95z" />
    <glyph glyph-name="scircumflex" unicode="&#x15d;" horiz-adv-x="442" 
d="M220 201l-43 22q-124 63 -124 157q0 62 47.5 105.5t120.5 43.5q53 0 95.5 -21t61.5 -50l-24 -113q-28 27 -64 40.5t-66 13.5q-15 0 -29 -5.5t-14 -19.5q0 -6 5 -14t36 -24l48 -25q48 -25 78 -51.5t40.5 -56t10.5 -56.5q0 -25 -9 -52.5t-33.5 -54.5t-63 -40.5t-79.5 -13.5
q-30 0 -65 9t-65.5 31t-44.5 48l36 112q30 -39 68 -55.5t75 -16.5q24 0 39.5 8.5t15.5 26.5q0 12 -8.5 22.5t-44.5 29.5zM138 750h156l85 -160h-99l-64 79l-64 -79h-99z" />
    <glyph glyph-name="Scedilla" unicode="&#x15e;" horiz-adv-x="503" 
d="M273 -121q0 13 -10 19t-25 6q-18 0 -36 -6l-19 37l16 56q-29 5 -64 20.5t-65 43t-41 54.5l39 124q32 -45 86 -75t105 -30q34 0 56 15.5t22 43.5q0 16 -9 33.5t-43 46.5q-15 12 -52.5 42.5t-63.5 53t-46 43.5q-32 34 -51 69.5t-19 78.5q0 51 23.5 90t68.5 63.5t107 24.5
q46 0 88 -17t66.5 -39.5t35.5 -39.5l-26 -124q-31 35 -76 56.5t-87 21.5q-27 0 -47 -10t-20 -32q0 -23 48 -62q8 -6 58.5 -46.5t77.5 -64.5q34 -30 57.5 -61t33 -64t9.5 -61q0 -53 -25 -100.5t-73.5 -73t-103.5 -28.5l-8 -28q32 0 58 -12.5t36 -32.5t10 -38q0 -45 -33 -70.5
t-85 -25.5q-34 0 -65.5 14t-46.5 33l12 60q45 -32 91 -32q16 0 26 7t10 17z" />
    <glyph glyph-name="scedilla" unicode="&#x15f;" horiz-adv-x="442" 
d="M246 -121q0 13 -10 19t-25 6q-18 0 -36 -6l-19 37l16 55q-46 7 -81.5 30.5t-51.5 53.5l36 112q30 -39 68 -55.5t75 -16.5q24 0 39.5 8.5t15.5 26.5q0 12 -8.5 22.5t-44.5 29.5l-43 22q-124 63 -124 157q0 62 47.5 105.5t120.5 43.5q53 0 95.5 -21t61.5 -50l-24 -113
q-28 27 -64 40.5t-66 13.5q-15 0 -29 -5.5t-14 -19.5q0 -6 5 -14t36 -24l48 -25q48 -25 78 -51.5t40.5 -56t10.5 -56.5q0 -39 -17 -72t-52.5 -57t-88.5 -30l-8 -29q32 0 58 -12.5t36 -32.5t10 -38q0 -45 -33 -70.5t-85 -25.5q-34 0 -65.5 14t-46.5 33l12 60q45 -32 91 -32
q16 0 26 7t10 17z" />
    <glyph glyph-name="Scaron" unicode="&#x160;" horiz-adv-x="503" 
d="M442 636l-26 -124q-31 35 -76 56.5t-87 21.5q-27 0 -47 -10t-20 -32q0 -23 48 -62q8 -6 58.5 -46.5t77.5 -64.5q34 -30 57.5 -61t33 -64t9.5 -61q0 -33 -10.5 -68t-40 -68.5t-75 -50t-92.5 -16.5q-76 0 -140 38t-83 85l39 124q32 -45 86 -75t105 -30q34 0 56 15.5
t22 43.5q0 16 -9 33.5t-43 46.5q-15 12 -52.5 42.5t-63.5 53t-46 43.5q-32 34 -51 69.5t-19 78.5q0 51 23.5 90t68.5 63.5t107 24.5q46 0 88 -17t66.5 -39.5t35.5 -39.5zM327 772h-148l-85 150h95l64 -69l64 69h95z" />
    <glyph glyph-name="scaron" unicode="&#x161;" horiz-adv-x="442" 
d="M220 201l-43 22q-124 63 -124 157q0 62 47.5 105.5t120.5 43.5q53 0 95.5 -21t61.5 -50l-24 -113q-28 27 -64 40.5t-66 13.5q-15 0 -29 -5.5t-14 -19.5q0 -6 5 -14t36 -24l48 -25q48 -25 78 -51.5t40.5 -56t10.5 -56.5q0 -25 -9 -52.5t-33.5 -54.5t-63 -40.5t-79.5 -13.5
q-30 0 -65 9t-65.5 31t-44.5 48l36 112q30 -39 68 -55.5t75 -16.5q24 0 39.5 8.5t15.5 26.5q0 12 -8.5 22.5t-44.5 29.5zM294 590h-156l-85 160h99l64 -79l64 79h99z" />
    <glyph glyph-name="Tcommaaccent" unicode="&#x162;" horiz-adv-x="579" 
d="M325 -121q0 13 -10 19t-25 6q-18 0 -36 -6l-19 37l19 65h-30v578h-211v140h553v-140h-211v-578h-31l-12 -41q32 0 58 -12.5t36 -32.5t10 -38q0 -45 -33 -70.5t-85 -25.5q-34 0 -65.5 14t-46.5 33l12 60q45 -32 91 -32q16 0 26 7t10 17z" />
    <glyph glyph-name="tcommaaccent" unicode="&#x163;" horiz-adv-x="458" 
d="M299 -121q0 13 -10 19t-25 6q-18 0 -36 -6l-19 37l16 58q-55 13 -83.5 57t-28.5 112v218h-88v41l177 224h39v-130h163v-135h-164v-190q0 -35 18 -52t46 -17q19 0 38 7t41 32l27 -114q-18 -25 -48.5 -41t-67.5 -18l-8 -28q32 0 58 -12.5t36 -32.5t10 -38q0 -45 -33 -70.5
t-85 -25.5q-34 0 -65.5 14t-46.5 33l12 60q45 -32 91 -32q16 0 26 7t10 17z" />
    <glyph glyph-name="Tcaron" unicode="&#x164;" horiz-adv-x="579" 
d="M13 578v140h553v-140h-211v-578h-131v578h-211zM363 772h-148l-85 150h95l64 -69l64 69h95z" />
    <glyph glyph-name="tcaron" unicode="&#x165;" horiz-adv-x="610" 
d="M383 160l27 -114q-19 -26 -53 -43t-75 -17q-84 0 -126.5 46t-42.5 130v218h-88v41l177 224h39v-130h163v-135h-164v-190q0 -35 18 -52t46 -17q19 0 38 7t41 32zM458 457l51 103q-20 5 -35 21t-15 40q0 28 23 48.5t55 20.5q31 0 52 -21t21 -50q0 -33 -30 -82l-48 -80h-74z
" />
    <glyph glyph-name="Tbar" unicode="&#x166;" horiz-adv-x="579" 
d="M13 578v140h553v-140h-211v-139h121v-140h-121v-299h-131v299h-121v140h121v139h-211z" />
    <glyph glyph-name="tbar" unicode="&#x167;" horiz-adv-x="458" 
d="M383 160l27 -114q-19 -26 -53 -43t-75 -17q-84 0 -126.5 46t-42.5 130v61h-88v108h88v49h-88v41l177 224h39v-130h163v-135h-164v-49h164v-108h-164v-33q0 -35 18 -52t46 -17q19 0 38 7t41 32z" />
    <glyph glyph-name="Utilde" unicode="&#x168;" horiz-adv-x="733" 
d="M522 288v430h131v-433q0 -64 -20 -119.5t-58 -95.5t-91.5 -62t-117.5 -22q-62 0 -115.5 21.5t-91.5 61t-58.5 95t-20.5 120.5v434h131v-431q0 -72 43 -115.5t114 -43.5q70 0 112 44t42 116zM283 772h-78q-12 27 -12 56q0 41 28.5 67.5t69.5 26.5q33 0 74.5 -23t51.5 -26
t15 -3q11 0 18 6.5t7 17.5q0 13 -7 28h78q13 -30 13 -57q0 -19 -9.5 -41t-33.5 -37t-54 -15q-33 0 -74.5 23t-51.5 26t-15 3q-18 0 -24.5 -14t4.5 -38z" />
    <glyph glyph-name="utilde" unicode="&#x169;" horiz-adv-x="620" 
d="M67 216v299h127v-278q0 -25 10.5 -53t37.5 -45.5t61 -17.5q40 0 73.5 22.5t40.5 55.5v316h127v-515h-123v52q-11 -29 -47.5 -47.5t-89.5 -18.5q-40 0 -79 14t-70 42.5t-49.5 72.5t-18.5 101zM223 590h-78q-12 27 -12 56q0 41 28.5 67.5t69.5 26.5q33 0 74.5 -23t51.5 -26
t15 -3q11 0 18 6.5t7 17.5q0 13 -7 28h78q13 -30 13 -57q0 -19 -9.5 -41t-33.5 -37t-54 -15q-33 0 -74.5 23t-51.5 26t-15 3q-11 0 -19 -7t-8 -19t7 -26z" />
    <glyph glyph-name="Umacron" unicode="&#x16a;" horiz-adv-x="733" 
d="M522 288v430h131v-433q0 -64 -20 -119.5t-58 -95.5t-91.5 -62t-117.5 -22q-62 0 -115.5 21.5t-91.5 61t-58.5 95t-20.5 120.5v434h131v-431q0 -72 43 -115.5t114 -43.5q70 0 112 44t42 116zM206 888h320v-98h-320v98z" />
    <glyph glyph-name="umacron" unicode="&#x16b;" horiz-adv-x="620" 
d="M67 216v299h127v-278q0 -25 10.5 -53t37.5 -45.5t61 -17.5q40 0 73.5 22.5t40.5 55.5v316h127v-515h-123v52q-11 -29 -47.5 -47.5t-89.5 -18.5q-40 0 -79 14t-70 42.5t-49.5 72.5t-18.5 101zM147 710h320v-100h-320v100z" />
    <glyph glyph-name="Ubreve" unicode="&#x16c;" horiz-adv-x="733" 
d="M522 288v430h131v-433q0 -64 -20 -119.5t-58 -95.5t-91.5 -62t-117.5 -22q-62 0 -115.5 21.5t-91.5 61t-58.5 95t-20.5 120.5v434h131v-431q0 -72 43 -115.5t114 -43.5q70 0 112 44t42 116zM418 922h98q0 -62 -44 -106t-106 -44t-106 44t-44 106h99q0 -18 15 -31.5
t36 -13.5t36.5 13.5t15.5 31.5z" />
    <glyph glyph-name="ubreve" unicode="&#x16d;" horiz-adv-x="620" 
d="M67 216v299h127v-278q0 -25 10.5 -53t37.5 -45.5t61 -17.5q40 0 73.5 22.5t40.5 55.5v316h127v-515h-123v52q-11 -29 -47.5 -47.5t-89.5 -18.5q-40 0 -79 14t-70 42.5t-49.5 72.5t-18.5 101zM359 740h98q0 -62 -44 -106t-106 -44t-106 44t-44 106h99q0 -18 15 -31.5
t36 -13.5t36.5 13.5t15.5 31.5z" />
    <glyph glyph-name="Uring" unicode="&#x16e;" horiz-adv-x="733" 
d="M522 288v430h131v-433q0 -64 -20 -119.5t-58 -95.5t-91.5 -62t-117.5 -22q-62 0 -115.5 21.5t-91.5 61t-58.5 95t-20.5 120.5v434h131v-431q0 -72 43 -115.5t114 -43.5q70 0 112 44t42 116zM256 854q0 21 11 47t38.5 44.5t60.5 18.5q21 0 47 -11t44.5 -38.5t18.5 -60.5
q0 -21 -11 -47t-38.5 -44.5t-60.5 -18.5q-21 0 -47 11t-44.5 38.5t-18.5 60.5zM330 854q0 -15 11 -24t25 -9q13 0 24 9t11 24t-11 24t-24 9q-14 0 -25 -9t-11 -24z" />
    <glyph glyph-name="uring" unicode="&#x16f;" horiz-adv-x="620" 
d="M67 216v299h127v-278q0 -25 10.5 -53t37.5 -45.5t61 -17.5q40 0 73.5 22.5t40.5 55.5v316h127v-515h-123v52q-11 -29 -47.5 -47.5t-89.5 -18.5q-40 0 -79 14t-70 42.5t-49.5 72.5t-18.5 101zM198 682q0 33 18.5 60.5t44 38.5t46.5 11t47 -11t44.5 -38.5t18.5 -60.5
q0 -21 -11 -47t-38.5 -44.5t-60.5 -18.5q-21 0 -46.5 11t-44 38.5t-18.5 60.5zM272 682q0 -15 11 -24t24 -9t24 9t11 24t-11 24t-24 9t-24 -9t-11 -24z" />
    <glyph glyph-name="Uhungarumlaut" unicode="&#x170;" horiz-adv-x="733" 
d="M522 288v430h131v-433q0 -64 -20 -119.5t-58 -95.5t-91.5 -62t-117.5 -22q-62 0 -115.5 21.5t-91.5 61t-58.5 95t-20.5 120.5v434h131v-431q0 -72 43 -115.5t114 -43.5q70 0 112 44t42 116zM273 922h140l-120 -150h-90zM465 922h140l-120 -150h-90z" />
    <glyph glyph-name="uhungarumlaut" unicode="&#x171;" horiz-adv-x="620" 
d="M67 216v299h127v-278q0 -25 10.5 -53t37.5 -45.5t61 -17.5q40 0 73.5 22.5t40.5 55.5v316h127v-515h-123v52q-11 -29 -47.5 -47.5t-89.5 -18.5q-40 0 -79 14t-70 42.5t-49.5 72.5t-18.5 101zM220 750h140l-120 -160h-90zM410 750h140l-120 -160h-90z" />
    <glyph glyph-name="Uogonek" unicode="&#x172;" horiz-adv-x="733" 
d="M522 288v430h131v-433q0 -108 -54 -185.5t-147 -102.5q-33 -36 -33 -67q0 -18 12.5 -29.5t29.5 -11.5q18 0 29 9l14 -92q-8 -11 -27 -20.5t-44 -9.5q-55 0 -88 31t-33 78q0 23 12 50t40 51q-62 0 -115 21.5t-90.5 61t-58 95t-20.5 120.5v434h131v-431q0 -72 43 -115.5
t114 -43.5q70 0 112 44t42 116z" />
    <glyph glyph-name="uogonek" unicode="&#x173;" horiz-adv-x="620" 
d="M471 0h-50v52q-11 -29 -47.5 -47.5t-89.5 -18.5q-40 0 -79 14t-70 42.5t-49.5 72.5t-18.5 101v299h127v-278q0 -25 10.5 -53t37.5 -45.5t61 -17.5q40 0 73.5 22.5t40.5 55.5v316h127v-515q-21 -25 -28.5 -39.5t-7.5 -30.5q0 -18 12.5 -29.5t29.5 -11.5q18 0 29 9l14 -92
q-8 -11 -27 -20.5t-44 -9.5q-55 0 -88 31t-33 78q0 29 18.5 60.5t51.5 54.5z" />
    <glyph glyph-name="Wcircumflex" unicode="&#x174;" horiz-adv-x="1022" 
d="M570 718l134 -467l157 467h146l-238 -718h-120l-138 486l-138 -486h-120l-238 718h141l157 -467l134 467h123zM437 922h148l85 -150h-95l-64 69l-64 -69h-95z" />
    <glyph glyph-name="wcircumflex" unicode="&#x175;" horiz-adv-x="876" 
d="M494 515l103 -319l122 319h143l-205 -515h-116l-103 321l-103 -321h-116l-205 515h139l122 -319l103 319h116zM360 750h156l85 -160h-99l-64 79l-64 -79h-99z" />
    <glyph glyph-name="Ycircumflex" unicode="&#x176;" horiz-adv-x="595" 
d="M233 300l-228 418h145l146 -266l146 266h148l-226 -418v-300h-131v300zM223 922h148l85 -150h-95l-64 69l-64 -69h-95z" />
    <glyph glyph-name="ycircumflex" unicode="&#x177;" horiz-adv-x="584" 
d="M223 32l-206 483h137l135 -320l135 320h141l-308 -728h-139zM211 750h156l85 -160h-99l-64 79l-64 -79h-99z" />
    <glyph glyph-name="Ydieresis" unicode="&#x178;" horiz-adv-x="595" 
d="M233 300l-228 418h145l146 -266l146 266h148l-226 -418v-300h-131v300zM120 847q0 30 21 51t51 21t51 -21t21 -51t-21 -51t-51 -21t-51 21t-21 51zM330 847q0 30 21 51t51 21t51 -21t21 -51t-21 -51t-51 -21t-51 21t-21 51z" />
    <glyph glyph-name="Zacute" unicode="&#x179;" horiz-adv-x="511" 
d="M45 576v142h414v-107l-253 -469h255v-142h-416v107l249 469h-249zM247 922h150l-120 -150h-100z" />
    <glyph glyph-name="zacute" unicode="&#x17a;" horiz-adv-x="470" 
d="M55 380v135h355v-106l-191 -274h202v-135h-372v106l194 274h-188zM233 750h150l-120 -160h-100z" />
    <glyph glyph-name="Zdotaccent" unicode="&#x17b;" horiz-adv-x="511" 
d="M45 576v142h414v-107l-253 -469h255v-142h-416v107l249 469h-249zM172 847q0 32 23 54t55 22t55 -22t23 -54t-23 -54t-55 -22t-55 22t-23 54z" />
    <glyph glyph-name="zdotaccent" unicode="&#x17c;" horiz-adv-x="470" 
d="M55 380v135h355v-106l-191 -274h202v-135h-372v106l194 274h-188zM147 673q0 16 8.5 36t30 34.5t46.5 14.5q16 0 36 -8.5t34.5 -30t14.5 -46.5q0 -16 -8.5 -36t-30 -34.5t-46.5 -14.5q-16 0 -36 8.5t-34.5 30t-14.5 46.5z" />
    <glyph glyph-name="Zcaron" unicode="&#x17d;" horiz-adv-x="511" 
d="M45 576v142h414v-107l-253 -469h255v-142h-416v107l249 469h-249zM325 772h-148l-85 150h95l64 -69l64 69h95z" />
    <glyph glyph-name="zcaron" unicode="&#x17e;" horiz-adv-x="470" 
d="M55 380v135h355v-106l-191 -274h202v-135h-372v106l194 274h-188zM311 590h-156l-85 160h99l64 -79l64 79h99z" />
    <glyph glyph-name="longs" unicode="&#x17f;" horiz-adv-x="375" 
d="M428 681l-24 -103q-40 34 -88 34q-20 0 -37 -9.5t-24.5 -26.5t-7.5 -34v-542h-127v387h-85v128h85v52q0 83 44.5 129t128.5 46q46 0 82 -17.5t53 -43.5z" />
    <glyph glyph-name="uni018F" unicode="&#x18f;" horiz-adv-x="792" 
d="M41 435h572q-22 76 -83.5 115.5t-146.5 39.5q-74 0 -136.5 -26.5t-99.5 -74.5l-42 117q35 57 112.5 91.5t169.5 34.5q53 0 114 -17t110 -54t80 -81.5t48.5 -101.5t17.5 -121q0 -76 -27.5 -144.5t-77 -119t-115.5 -79t-138 -28.5q-81 0 -149 28.5t-116 80t-73.5 121.5
t-25.5 149q0 36 6 70zM399 128q35 0 72 9t67.5 29t50 52t25.5 75h-437q6 -52 35 -88t76.5 -56.5t110.5 -20.5z" />
    <glyph glyph-name="florin" unicode="&#x192;" horiz-adv-x="511" 
d="M150 437l25 142q14 77 60.5 120t118.5 43q51 0 87 -17.5t54 -47.5l-27 -108q-41 43 -96 43q-27 0 -47.5 -15.5t-26.5 -47.5l-21 -112h163v-128h-185l-93 -522h-127l92 522h-92v128h115z" />
    <glyph glyph-name="uni01B5" unicode="&#x1b5;" horiz-adv-x="521" 
d="M50 576v142h414v-107l-98 -182h82v-136h-156l-81 -151h255v-142h-416v107l99 186h-84v136h156l78 147h-249z" />
    <glyph glyph-name="uni01B6" unicode="&#x1b6;" horiz-adv-x="470" 
d="M55 387v128h355v-99l-69 -101h59v-108h-133l-54 -79h208v-128h-372v99l75 108h-60v108h135l50 72h-194z" />
    <glyph glyph-name="Aringacute" unicode="&#x1fa;" horiz-adv-x="707" 
d="M243 751q0 21 11 47t38.5 44.5t60.5 18.5q21 0 47 -11t44.5 -38.5t18.5 -60.5q0 -20 -8 -40.5t-21 -34.5l267 -676h-138l-58 147h-300l-58 -147h-141l266 675q-13 14 -21 35t-8 41zM355 528l-96 -242h191zM374 1036h150l-120 -150h-100zM317 751q0 -15 11 -24t25 -9
q13 0 24 9t11 24t-11 24t-24 9q-14 0 -25 -9t-11 -24z" />
    <glyph glyph-name="aringacute" unicode="&#x1fb;" horiz-adv-x="566" 
d="M367 148v37q-8 14 -35.5 24.5t-61.5 10.5q-48 0 -74 -16t-26 -42t26.5 -41.5t72.5 -15.5q33 0 61 12.5t37 30.5zM100 334l-31 104q13 20 40.5 41.5t70.5 35.5t87 14q103 0 165 -55t62 -151v-323h-123v45q-18 -27 -58 -43t-83 -16q-82 0 -135 46.5t-53 122.5q0 49 24.5 86
t70.5 60t106 23q45 0 78.5 -11t45.5 -25v14q0 45 -30.5 72t-85.5 27q-46 0 -87 -19t-64 -48zM172 682q0 33 18.5 60.5t44 38.5t46.5 11t47 -11t44.5 -38.5t18.5 -60.5q0 -21 -11 -47t-38.5 -44.5t-60.5 -18.5q-21 0 -46.5 11t-44 38.5t-18.5 60.5zM246 682q0 -15 11 -24
t24 -9t24 9t11 24t-11 24t-24 9t-24 -9t-11 -24zM297 993h150l-120 -160h-100z" />
    <glyph glyph-name="AEacute" unicode="&#x1fc;" horiz-adv-x="932" 
d="M480 0v147h-254l-90 -147h-151l441 718h450v-142h-265v-136h235v-142h-235v-156h265v-142h-396zM480 561l-169 -275h169v275zM609 922h150l-120 -150h-100z" />
    <glyph glyph-name="aeacute" unicode="&#x1fd;" horiz-adv-x="918" 
d="M42 154q0 49 24.5 86.5t70.5 60.5t106 23q45 0 78.5 -11t45.5 -25v14q0 34 -15 55.5t-41 32.5t-59 11q-22 0 -51.5 -6.5t-58 -23.5t-44.5 -39l-31 104q27 42 83.5 67.5t116.5 25.5q57 0 104.5 -18.5t76.5 -52.5q35 32 80.5 51.5t96.5 19.5q41 0 78.5 -12.5t67.5 -35.5
t55.5 -59t37.5 -81t12 -84q0 -27 -3 -45h-382q9 -48 49.5 -73t100.5 -25q48 0 92.5 18t65.5 46l39 -98q-25 -41 -79 -67.5t-122 -26.5q-64 0 -119 23t-92 65q-15 -23 -46.5 -45.5t-69 -32.5t-69.5 -10q-42 0 -79 11t-63.5 32.5t-41.5 53.5t-15 71zM496 316h250
q-3 19 -16.5 39t-42 32.5t-62.5 12.5q-49 0 -84.5 -22t-44.5 -62zM367 148v37q-8 14 -35.5 24.5t-61.5 10.5q-48 0 -74 -16t-26 -42t26.5 -41.5t72.5 -15.5q33 0 61 12.5t37 30.5zM455 750h150l-120 -160h-100z" />
    <glyph glyph-name="Oslashacute" unicode="&#x1fe;" horiz-adv-x="819" 
d="M410 732q104 0 191 -53l45 53h157l-110 -130q41 -48 64 -111t23 -132q0 -77 -29 -146t-81 -120t-119.5 -79t-140.5 -28q-105 0 -192 53l-45 -53h-157l111 131q-41 48 -64 111t-23 131q0 77 29 146t81 120t119.5 79t140.5 28zM645 359q0 76 -42 136l-294 -348
q45 -19 101 -19q49 0 92 16.5t75 47.5t50 74t18 93zM410 590q-49 0 -92.5 -16.5t-75.5 -47.5t-50 -74t-18 -93q0 -79 41 -137l294 348q-46 20 -99 20zM413 922h150l-120 -150h-100z" />
    <glyph glyph-name="oslashacute" unicode="&#x1ff;" horiz-adv-x="637" 
d="M591 257q0 -56 -21.5 -106.5t-59.5 -87t-88 -57t-103 -20.5q-32 0 -66 8.5t-61 22.5l-26 -31h-155l90 107q-25 33 -39.5 75.5t-14.5 88.5q0 56 21.5 106.5t59.5 87.5t88 57.5t103 20.5q31 0 65 -8.5t61 -22.5l26 31h155l-91 -107q26 -34 41 -76.5t15 -88.5zM468 257
q0 36 -16 66l-172 -202q17 -4 39 -4q63 0 106 39.5t43 100.5zM171 257q0 -37 15 -64l170 201q-24 4 -37 4q-62 0 -105 -39.5t-43 -101.5zM329 750h150l-120 -160h-100z" />
    <glyph glyph-name="Scommaaccent" unicode="&#x218;" horiz-adv-x="503" 
d="M442 636l-26 -124q-31 35 -76 56.5t-87 21.5q-27 0 -47 -10t-20 -32q0 -23 48 -62q8 -6 58.5 -46.5t77.5 -64.5q34 -30 57.5 -61t33 -64t9.5 -61q0 -33 -10.5 -68t-40 -68.5t-75 -50t-92.5 -16.5q-76 0 -140 38t-83 85l39 124q32 -45 86 -75t105 -30q34 0 56 15.5
t22 43.5q0 16 -9 33.5t-43 46.5q-15 12 -52.5 42.5t-63.5 53t-46 43.5q-32 34 -51 69.5t-19 78.5q0 51 23.5 90t68.5 63.5t107 24.5q46 0 88 -17t66.5 -39.5t35.5 -39.5zM175 -286l51 103q-20 5 -35 21t-15 40q0 28 23 48.5t55 20.5q31 0 52 -21t21 -50q0 -33 -30 -82
l-48 -80h-74z" />
    <glyph glyph-name="scommaaccent" unicode="&#x219;" horiz-adv-x="442" 
d="M220 201l-43 22q-124 63 -124 157q0 62 47.5 105.5t120.5 43.5q53 0 95.5 -21t61.5 -50l-24 -113q-28 27 -64 40.5t-66 13.5q-15 0 -29 -5.5t-14 -19.5q0 -6 5 -14t36 -24l48 -25q48 -25 78 -51.5t40.5 -56t10.5 -56.5q0 -25 -9 -52.5t-33.5 -54.5t-63 -40.5t-79.5 -13.5
q-30 0 -65 9t-65.5 31t-44.5 48l36 112q30 -39 68 -55.5t75 -16.5q24 0 39.5 8.5t15.5 26.5q0 12 -8.5 22.5t-44.5 29.5zM145 -286l51 103q-20 5 -35 21t-15 40q0 28 23 48.5t55 20.5q31 0 52 -21t21 -50q0 -33 -30 -82l-48 -80h-74z" />
    <glyph glyph-name="uni021A" unicode="&#x21a;" horiz-adv-x="579" 
d="M13 578v140h553v-140h-211v-578h-131v578h-211zM213 -286l51 103q-20 5 -35 21t-15 40q0 28 23 48.5t55 20.5q31 0 52 -21t21 -50q0 -33 -30 -82l-48 -80h-74z" />
    <glyph glyph-name="uni021B" unicode="&#x21b;" horiz-adv-x="458" 
d="M383 160l27 -114q-19 -26 -53 -43t-75 -17q-84 0 -126.5 46t-42.5 130v218h-88v41l177 224h39v-130h163v-135h-164v-190q0 -35 18 -52t46 -17q19 0 38 7t41 32zM176 -286l51 103q-20 5 -35 21t-15 40q0 28 23 48.5t55 20.5q31 0 52 -21t21 -50q0 -33 -30 -82l-48 -80h-74
z" />
    <glyph glyph-name="uni0259" unicode="&#x259;" horiz-adv-x="599" 
d="M277 401q-48 0 -92.5 -18t-65.5 -46l-39 98q25 41 79 67.5t122 26.5q58 0 108.5 -19t88 -54.5t58.5 -86.5t21 -111q0 -54 -18.5 -103.5t-53.5 -87.5t-84.5 -59.5t-107.5 -21.5q-41 0 -78.5 12.5t-67.5 35.5t-55.5 59t-37.5 81t-12 84q0 27 3 45h382q-9 48 -49.5 73
t-100.5 25zM422 199h-250q6 -39 40 -61.5t81 -22.5q48 0 84.5 22.5t44.5 61.5z" />
    <glyph glyph-name="circumflex" unicode="&#x2c6;" horiz-adv-x="450" 
d="M147 750h156l85 -160h-99l-64 79l-64 -79h-99z" />
    <glyph glyph-name="caron" unicode="&#x2c7;" horiz-adv-x="450" 
d="M303 590h-156l-85 160h99l64 -79l64 79h99z" />
    <glyph glyph-name="uni02C9" unicode="&#x2c9;" horiz-adv-x="460" 
d="M70 710h320v-100h-320v100z" />
    <glyph glyph-name="breve" unicode="&#x2d8;" horiz-adv-x="440" 
d="M272 740h98q0 -62 -44 -106t-106 -44t-106 44t-44 106h99q0 -18 15 -31.5t36 -13.5t36.5 13.5t15.5 31.5z" />
    <glyph glyph-name="dotaccent" unicode="&#x2d9;" horiz-adv-x="310" 
d="M70 673q0 16 8.5 36t30 34.5t46.5 14.5q16 0 36 -8.5t34.5 -30t14.5 -46.5q0 -16 -8.5 -36t-30 -34.5t-46.5 -14.5q-16 0 -36 8.5t-34.5 30t-14.5 46.5z" />
    <glyph glyph-name="ring" unicode="&#x2da;" horiz-adv-x="360" 
d="M71 682q0 33 18.5 60.5t44 38.5t46.5 11t47 -11t44.5 -38.5t18.5 -60.5q0 -21 -11 -47t-38.5 -44.5t-60.5 -18.5q-21 0 -46.5 11t-44 38.5t-18.5 60.5zM145 682q0 -15 11 -24t24 -9t24 9t11 24t-11 24t-24 9t-24 -9t-11 -24z" />
    <glyph glyph-name="ogonek" unicode="&#x2db;" horiz-adv-x="340" 
d="M147 0h73q-21 -25 -28.5 -39.5t-7.5 -30.5q0 -18 12.5 -29.5t29.5 -11.5q18 0 29 9l14 -92q-8 -11 -27 -20.5t-44 -9.5q-55 0 -88 31t-33 78q0 29 18.5 60.5t51.5 54.5z" />
    <glyph glyph-name="tilde" unicode="&#x2dc;" horiz-adv-x="520" 
d="M163 590h-78q-12 27 -12 56q0 41 28.5 67.5t69.5 26.5q33 0 74.5 -23t51.5 -26t15 -3q11 0 18 6.5t7 17.5q0 13 -7 28h78q13 -30 13 -57q0 -19 -9.5 -41t-33.5 -37t-54 -15q-33 0 -74.5 23t-51.5 26t-15 3q-11 0 -19 -7t-8 -19t7 -26z" />
    <glyph glyph-name="hungarumlaut" unicode="&#x2dd;" horiz-adv-x="550" 
d="M145 750h140l-120 -160h-90zM335 750h140l-120 -160h-90z" />
    <glyph glyph-name="Delta" unicode="&#x394;" horiz-adv-x="655" 
d="M385 718l264 -718h-643l264 718h115zM183 129h291l-145 403z" />
    <glyph glyph-name="Omega" unicode="&#x3a9;" horiz-adv-x="824" 
d="M696 142h84v-142h-295v107q33 17 70 49.5t60.5 85t23.5 116.5q0 47 -16.5 89.5t-46.5 74.5t-72.5 50t-91.5 18t-91.5 -18t-72.5 -50t-46.5 -74.5t-16.5 -89.5q0 -54 17 -100.5t52 -85.5t85 -65v-107h-295v142h84q-31 35 -54 97t-23 124q0 74 27 142t76 119t116 79.5
t142 28.5t142 -28.5t116 -79.5t76 -119t27 -142q0 -62 -23 -124t-54 -97z" />
    <glyph glyph-name="mu" unicode="&#x3bc;" horiz-adv-x="629" 
d="M76 -213v728h127v-278q0 -25 10.5 -53t37.5 -45.5t61 -17.5q40 0 73.5 22.5t40.5 55.5v316h127v-515h-123v52q-11 -29 -47.5 -47.5t-89.5 -18.5q-48 0 -90 18v-217h-127z" />
    <glyph glyph-name="pi" unicode="&#x3c0;" horiz-adv-x="643" 
d="M243 391v-391h-117v391h-86v124h563v-124h-86v-391h-117v391h-157z" />
    <glyph glyph-name="afii10023" unicode="&#x401;" horiz-adv-x="541" 
d="M85 0v718h396v-142h-265v-136h235v-142h-235v-156h265v-142h-396zM102 847q0 30 21 51t51 21t51 -21t21 -51t-21 -51t-51 -21t-51 21t-21 51zM312 847q0 30 21 51t51 21t51 -21t21 -51t-21 -51t-51 -21t-51 21t-21 51z" />
    <glyph glyph-name="afii10051" unicode="&#x402;" horiz-adv-x="663" 
d="M400 441q45 0 88 -16t77 -46.5t53.5 -74t19.5 -94.5q0 -48 -16 -89t-44.5 -70t-66.5 -45t-79 -16q-24 0 -53.5 10.5t-43.5 27.5l25 115q22 -18 60 -18q39 0 61.5 22.5t22.5 58.5q0 19 -11 41.5t-40.5 37t-69.5 14.5q-41 0 -91 -11v-288h-131v578h-148v140h487v-140h-208
v-148q46 11 108 11z" />
    <glyph glyph-name="afii10052" unicode="&#x403;" horiz-adv-x="482" 
d="M73 0v718h359v-142h-228v-576h-131zM250 922h150l-120 -150h-100z" />
    <glyph glyph-name="afii10053" unicode="&#x404;" horiz-adv-x="705" 
d="M473 440v-142h-298q16 -83 80.5 -126.5t160.5 -43.5q31 0 74 11t84 39t57 60l43 -124q-19 -31 -55 -60t-94.5 -48.5t-122.5 -19.5q-74 0 -141.5 27t-118 77t-79 119t-28.5 149t28.5 150t79 120t118 77t141.5 27q87 0 161.5 -37.5t104.5 -90.5l-41 -120q-21 30 -61.5 57
t-82 38t-72.5 11q-87 0 -148 -39t-82 -111h292z" />
    <glyph glyph-name="afii10054" unicode="&#x405;" horiz-adv-x="503" 
d="M442 636l-26 -124q-31 35 -76 56.5t-87 21.5q-27 0 -47 -10t-20 -32q0 -23 48 -62q8 -6 58.5 -46.5t77.5 -64.5q34 -30 57.5 -61t33 -64t9.5 -61q0 -33 -10.5 -68t-40 -68.5t-75 -50t-92.5 -16.5q-76 0 -140 38t-83 85l39 124q32 -45 86 -75t105 -30q34 0 56 15.5
t22 43.5q0 16 -9 33.5t-43 46.5q-15 12 -52.5 42.5t-63.5 53t-46 43.5q-32 34 -51 69.5t-19 78.5q0 51 23.5 90t68.5 63.5t107 24.5q46 0 88 -17t66.5 -39.5t35.5 -39.5z" />
    <glyph glyph-name="afii10055" unicode="&#x406;" horiz-adv-x="301" 
d="M85 0v718h131v-718h-131z" />
    <glyph glyph-name="afii10056" unicode="&#x407;" horiz-adv-x="303" 
d="M85 0v718h131v-718h-131zM-25 847q0 30 21 51t51 21t51 -21t21 -51t-21 -51t-51 -21t-51 21t-21 51zM185 847q0 30 21 51t51 21t51 -21t21 -51t-21 -51t-51 -21t-51 21t-21 51z" />
    <glyph glyph-name="afii10057" unicode="&#x408;" horiz-adv-x="428" 
d="M348 718v-533q0 -95 -47.5 -147t-140.5 -52q-40 0 -81.5 19.5t-58.5 47.5l14 128q48 -53 111 -53q33 0 52.5 20.5t19.5 64.5v505h131z" />
    <glyph glyph-name="afii10058" unicode="&#x409;" horiz-adv-x="911" 
d="M581 141h91q36 0 59.5 24t23.5 59q0 36 -24 59t-59 23h-91v-165zM178 718h403v-271h72q50 0 93 -16.5t74.5 -46t48.5 -71t17 -89.5q0 -61 -30 -115t-86.5 -81.5t-117.5 -27.5h-202v576h-146l-2 -58q-3 -93 -13.5 -185.5t-31.5 -157t-46.5 -102.5t-59.5 -57.5t-75 -19.5
q-6 0 -22 2t-30 9l-24 116q49 4 80 26t51 73t32 149.5t14 287.5z" />
    <glyph glyph-name="afii10059" unicode="&#x40a;" horiz-adv-x="911" 
d="M85 0v718h131v-271h234v271h131v-271h72q50 0 93 -16.5t74.5 -46t48.5 -71t17 -89.5q0 -61 -30 -115t-86.5 -81.5t-117.5 -27.5h-202v305h-234v-305h-131zM581 141h91q36 0 59.5 24t23.5 59q0 36 -24 59t-59 23h-91v-165z" />
    <glyph glyph-name="afii10060" unicode="&#x40b;" horiz-adv-x="672" 
d="M622 0h-131v196q0 55 -26.5 79t-81.5 24q-45 0 -87 -11v-288h-131v578h-148v140h487v-140h-208v-148q46 11 107 11q70 0 119 -25t74.5 -69.5t25.5 -108.5v-238z" />
    <glyph glyph-name="afii10061" unicode="&#x40c;" horiz-adv-x="667" 
d="M85 0v718h131v-274l244 274h168l-303 -341l342 -377h-181l-270 297v-297h-131zM343 922h150l-120 -150h-100z" />
    <glyph glyph-name="afii10062" unicode="&#x40e;" horiz-adv-x="599" 
d="M241 231l-219 487h141l144 -323l129 323h143l-287 -718h-143zM375 921l95 -15q0 -40 -22.5 -77t-64 -56.5t-84.5 -19.5t-84.5 19.5t-64 56.5t-22.5 77l96 15q2 -28 23 -48t52 -20q33 0 53.5 19.5t22.5 48.5z" />
    <glyph glyph-name="afii10145" unicode="&#x40f;" horiz-adv-x="756" 
d="M85 0v718h131v-576h324v576h131v-718h-229v-154h-128v154h-229z" />
    <glyph glyph-name="afii10017" unicode="&#x410;" horiz-adv-x="707" 
d="M418 718l283 -718h-138l-58 147h-300l-58 -147h-141l283 718h129zM355 528l-96 -242h191z" />
    <glyph glyph-name="afii10018" unicode="&#x411;" horiz-adv-x="565" 
d="M85 0v718h380v-142h-249v-129h76q50 0 93 -16.5t74.5 -46t48.5 -71t17 -89.5q0 -61 -30 -115t-86.5 -81.5t-117.5 -27.5h-206zM216 141h95q36 0 59.5 24t23.5 59q0 36 -24 59t-59 23h-95v-165z" />
    <glyph glyph-name="afii10019" unicode="&#x412;" horiz-adv-x="583" 
d="M85 718h182q75 0 127.5 -26t79.5 -69t27 -102q0 -86 -62 -138q46 -23 72.5 -67t26.5 -106q0 -35 -12.5 -72t-46.5 -71t-83 -50.5t-97 -16.5h-214v718zM289 584h-73v-160h74q24 0 44 13t28 32t8 35q0 32 -23.5 56t-57.5 24zM324 298h-108v-164h109q34 0 58 24t24 58
q0 15 -8 34t-28.5 33.5t-46.5 14.5z" />
    <glyph glyph-name="afii10020" unicode="&#x413;" horiz-adv-x="494" 
d="M85 0v718h359v-142h-228v-576h-131z" />
    <glyph glyph-name="afii10021" unicode="&#x414;" horiz-adv-x="776" 
d="M639 718v-576h92v-296h-124v154h-457v-154h-124v296h60q135 231 135 517v59h418zM232 142h276v434h-163q-8 -121 -36.5 -232t-76.5 -202z" />
    <glyph glyph-name="afii10022" unicode="&#x415;" horiz-adv-x="541" 
d="M85 0v718h396v-142h-265v-136h235v-142h-235v-156h265v-142h-396z" />
    <glyph glyph-name="afii10024" unicode="&#x416;" horiz-adv-x="981" 
d="M556 718v-274l234 274h165l-292 -340l313 -378h-180l-240 297v-297h-131v297l-240 -297h-180l313 378l-292 340h165l234 -274v274h131z" />
    <glyph glyph-name="afii10025" unicode="&#x417;" horiz-adv-x="544" 
d="M254 590q-93 0 -168 -81l-29 116q23 43 80.5 75t124.5 32q43 0 81.5 -13.5t67.5 -39.5t45 -64t16 -84q0 -44 -20 -83.5t-49 -63.5q96 -55 96 -177q0 -49 -18.5 -90.5t-52 -70.5t-78.5 -44.5t-96 -15.5q-62 0 -111 21.5t-75 48.5t-35 47l32 115q31 -42 79.5 -66t109.5 -24
q51 0 82.5 25t31.5 65q0 35 -25.5 57.5t-68.5 22.5h-82v142h62q37 0 61.5 20.5t24.5 55.5q0 33 -24 53.5t-62 20.5z" />
    <glyph glyph-name="afii10026" unicode="&#x418;" horiz-adv-x="772" 
d="M687 718v-718h-131v484l-339 -484h-132v718h131v-487l340 487h131z" />
    <glyph glyph-name="afii10027" unicode="&#x419;" horiz-adv-x="772" 
d="M687 718v-718h-131v484l-339 -484h-132v718h131v-487l340 487h131zM459 921l95 -15q0 -40 -22.5 -77t-64 -56.5t-84.5 -19.5t-84.5 19.5t-64 56.5t-22.5 77l96 15q2 -28 23 -48t52 -20q33 0 53.5 19.5t22.5 48.5z" />
    <glyph glyph-name="afii10028" unicode="&#x41a;" horiz-adv-x="667" 
d="M85 0v718h131v-274l244 274h168l-303 -341l342 -377h-181l-270 297v-297h-131z" />
    <glyph glyph-name="afii10029" unicode="&#x41b;" horiz-adv-x="714" 
d="M178 718h451v-718h-131v576h-194l-2 -58q-3 -93 -13.5 -185.5t-31.5 -157t-46.5 -102.5t-59.5 -57.5t-75 -19.5q-6 0 -22 2t-30 9l-24 116q49 4 80 26t51 73t32 149.5t14 287.5z" />
    <glyph glyph-name="afii10030" unicode="&#x41c;" horiz-adv-x="952" 
d="M479 208l193 510h135l96 -718h-132l-61 462l-167 -462h-121l-167 462l-61 -462h-139l96 718h135z" />
    <glyph glyph-name="afii10031" unicode="&#x41d;" horiz-adv-x="766" 
d="M85 0v718h131v-278h334v278h131v-718h-131v298h-334v-298h-131z" />
    <glyph glyph-name="afii10032" unicode="&#x41e;" horiz-adv-x="810" 
d="M405 732q93 0 178 -45t138.5 -132t53.5 -196q0 -77 -29 -146t-81 -120t-119.5 -79t-140.5 -28t-140.5 28t-119.5 79t-81 120t-29 146t29 146t81 120t119.5 79t140.5 28zM405 590q-49 0 -92.5 -16.5t-75.5 -47.5t-50 -74t-18 -93t18 -93t50 -74t75.5 -47.5t92.5 -16.5
t92 16.5t75 47.5t50 74t18 93q0 37 -12 77t-44.5 78t-81 57t-97.5 19z" />
    <glyph glyph-name="afii10033" unicode="&#x41f;" horiz-adv-x="752" 
d="M85 0v718h582v-718h-131v576h-320v-576h-131z" />
    <glyph glyph-name="afii10034" unicode="&#x420;" horiz-adv-x="550" 
d="M85 718h206q61 0 117.5 -27.5t86.5 -81.5t30 -115q0 -35 -11.5 -73.5t-43 -75.5t-80 -55.5t-98.5 -18.5h-76v-271h-131v718zM311 577h-95v-165h95q35 0 59 23t24 59q0 35 -23.5 59t-59.5 24z" />
    <glyph glyph-name="afii10035" unicode="&#x421;" horiz-adv-x="704" 
d="M632 233l41 -119q-32 -55 -103.5 -91.5t-168.5 -36.5q-71 0 -137.5 27t-118 77t-81 119.5t-29.5 149.5t29.5 149.5t81 119.5t118 77t137.5 27q91 0 163.5 -36.5t103.5 -90.5l-41 -116q-31 43 -89 72t-127 29q-52 0 -97 -16t-77.5 -46.5t-50 -73.5t-17.5 -95t17.5 -95
t50 -73.5t77.5 -46.5t97 -16q36 0 79 10.5t81 36.5t61 58z" />
    <glyph glyph-name="afii10036" unicode="&#x422;" horiz-adv-x="579" 
d="M13 578v140h553v-140h-211v-578h-131v578h-211z" />
    <glyph glyph-name="afii10037" unicode="&#x423;" horiz-adv-x="599" 
d="M241 231l-219 487h141l144 -323l129 323h143l-287 -718h-143z" />
    <glyph glyph-name="afii10038" unicode="&#x424;" horiz-adv-x="813" 
d="M167 364q0 -26 8.5 -53.5t32 -52t60 -36.5t73.5 -12v311q-28 0 -58 -7.5t-55.5 -25t-43 -48.5t-17.5 -76zM646 364q0 27 -8.5 54.5t-32 52.5t-59.5 37.5t-74 12.5v-311q37 0 65.5 9.5t50.5 24.5t40 45.5t18 74.5zM472 71v-81h-131v81q-66 3 -122.5 25.5t-97.5 62
t-63.5 93t-22.5 114.5t22.5 114t63.5 92t97.5 61.5t122.5 25.5v73h131v-73q66 -3 122.5 -25.5t97.5 -61.5t63.5 -92t22.5 -114t-22.5 -114.5t-63.5 -93t-97.5 -62t-122.5 -25.5z" />
    <glyph glyph-name="afii10039" unicode="&#x425;" horiz-adv-x="672" 
d="M338 250l-163 -250h-160l242 371l-228 347h156l149 -228l149 228h160l-228 -347l242 -371h-156z" />
    <glyph glyph-name="afii10040" unicode="&#x426;" horiz-adv-x="808" 
d="M85 0v718h131v-576h324v576h131v-576h92v-296h-124v154h-554z" />
    <glyph glyph-name="afii10041" unicode="&#x427;" horiz-adv-x="592" 
d="M50 718h131v-196q0 -55 26.5 -79t81.5 -24q45 0 87 11v288h131v-718h-131v288q-46 -11 -107 -11q-70 0 -119 25t-74.5 69.5t-25.5 108.5v238z" />
    <glyph glyph-name="afii10042" unicode="&#x428;" horiz-adv-x="963" 
d="M85 0v718h131v-576h200v576h131v-576h200v576h131v-718h-793z" />
    <glyph glyph-name="afii10043" unicode="&#x429;" horiz-adv-x="1015" 
d="M85 0v718h131v-576h200v576h131v-576h200v576h131v-576h92v-296h-124v154h-761z" />
    <glyph glyph-name="afii10044" unicode="&#x42a;" horiz-adv-x="632" 
d="M171 0v576h-151v142h282v-271h72q50 0 93 -16.5t74.5 -46t48.5 -71t17 -89.5q0 -61 -30 -115t-86.5 -81.5t-117.5 -27.5h-202zM393 141q36 0 59.5 24t23.5 59q0 36 -24 59t-59 23h-91v-165h91z" />
    <glyph glyph-name="afii10045" unicode="&#x42b;" horiz-adv-x="821" 
d="M291 0h-206v718h131v-271h76q50 0 93 -16.5t74.5 -46t48.5 -71t17 -89.5q0 -61 -30 -115t-86.5 -81.5t-117.5 -27.5zM216 141h95q36 0 59.5 24t23.5 59q0 36 -24 59t-59 23h-95v-165zM605 0v718h131v-718h-131z" />
    <glyph glyph-name="afii10046" unicode="&#x42c;" horiz-adv-x="550" 
d="M291 0h-206v718h131v-271h76q50 0 93 -16.5t74.5 -46t48.5 -71t17 -89.5q0 -61 -30 -115t-86.5 -81.5t-117.5 -27.5zM216 141h95q36 0 59.5 24t23.5 59q0 36 -24 59t-59 23h-95v-165z" />
    <glyph glyph-name="afii10047" unicode="&#x42d;" horiz-adv-x="707" 
d="M234 298v142h292q-21 72 -82 111t-148 39q-31 0 -72.5 -11t-82 -38t-61.5 -57l-41 120q30 53 104.5 90.5t161.5 37.5q74 0 141.5 -27t118 -77t79 -120t28.5 -150t-28.5 -149t-79 -119t-118 -77t-141.5 -27q-64 0 -122.5 19.5t-94.5 48.5t-55 60l43 124q16 -32 57 -60
t84 -39t74 -11q96 0 160.5 43.5t80.5 126.5h-298z" />
    <glyph glyph-name="afii10048" unicode="&#x42e;" horiz-adv-x="1091" 
d="M686 732q93 0 178 -45t138.5 -132t53.5 -196q0 -77 -29 -146t-80.5 -120t-119 -79t-139.5 -28q-66 0 -128.5 23t-112 65t-82.5 100t-44 124h-105v-298h-131v718h131v-278h108q13 62 47 116.5t83 93.5t109 60.5t123 21.5zM686 590q-49 0 -92.5 -16.5t-75.5 -47.5t-50 -74
t-18 -93t18 -93t50 -74t75.5 -47.5t92.5 -16.5t92 16.5t75 47.5t50 74t18 93q0 37 -12 77t-44.5 78t-81 57t-97.5 19z" />
    <glyph glyph-name="afii10049" unicode="&#x42f;" horiz-adv-x="572" 
d="M487 718v-718h-131v294h-34l-154 -294h-146l162 309q-57 22 -91 72.5t-34 119.5q0 67 26.5 114.5t75 75t112.5 27.5h214zM356 577h-91q-33 0 -54.5 -22t-21.5 -54q0 -33 22 -54t54 -21h91v151z" />
    <glyph glyph-name="afii10065" unicode="&#x430;" horiz-adv-x="566" 
d="M367 148v37q-8 14 -35.5 24.5t-61.5 10.5q-48 0 -74 -16t-26 -42t26.5 -41.5t72.5 -15.5q33 0 61 12.5t37 30.5zM100 334l-31 104q13 20 40.5 41.5t70.5 35.5t87 14q103 0 165 -55t62 -151v-323h-123v45q-18 -27 -58 -43t-83 -16q-82 0 -135 46.5t-53 122.5q0 49 24.5 86
t70.5 60t106 23q45 0 78.5 -11t45.5 -25v14q0 45 -30.5 72t-85.5 27q-46 0 -87 -19t-64 -48z" />
    <glyph glyph-name="afii10066" unicode="&#x431;" horiz-adv-x="633" 
d="M505 735l42 -101q-22 -25 -67.5 -43.5t-138.5 -35.5q-81 -14 -118 -46t-36 -89q20 28 64 47t95 19t96.5 -18t78.5 -50.5t51.5 -77.5t18.5 -96q0 -52 -19.5 -99.5t-55 -83t-83.5 -55.5t-102 -20q-62 0 -113 21.5t-87.5 63.5t-56 105.5t-19.5 143.5q0 160 61 243.5
t181 109.5q5 1 49.5 10.5t71.5 17t48.5 16.5t38.5 18zM328 121q58 0 97 31.5t39 83.5q0 26 -14 52.5t-47.5 44.5t-74.5 18q-46 0 -87 -23.5t-57 -64.5q2 -51 26 -84.5t57.5 -45.5t60.5 -12z" />
    <glyph glyph-name="afii10067" unicode="&#x432;" horiz-adv-x="528" 
d="M76 515h198q60 0 101.5 -19t63 -51t21.5 -77q0 -22 -7 -45t-31 -46q66 -42 66 -120q0 -27 -10 -55t-34 -50.5t-61 -37t-85 -14.5h-222v515zM287 397h-89v-87h90q22 0 35.5 12.5t13.5 30.5t-13.5 31t-36.5 13zM314 207h-116v-89h117q21 0 34.5 13t13.5 32q0 18 -14 31
t-35 13z" />
    <glyph glyph-name="afii10068" unicode="&#x433;" horiz-adv-x="441" 
d="M76 515h335v-135h-208v-380h-127v515z" />
    <glyph glyph-name="afii10069" unicode="&#x434;" horiz-adv-x="641" 
d="M25 135h53q25 43 46 100.5t29.5 118.5t8.5 110v51h372v-380h72v-272h-123v137h-335v-137h-123v272zM210 135h197v245h-131q-15 -147 -66 -245z" />
    <glyph glyph-name="afii10070" unicode="&#x435;" horiz-adv-x="599" 
d="M322 114q48 0 92.5 18t65.5 46l39 -98q-25 -41 -79 -67.5t-122 -26.5q-58 0 -108.5 19t-88 54.5t-58.5 86.5t-21 111q0 54 18.5 103.5t53.5 87.5t84.5 59.5t107.5 21.5q41 0 78.5 -12.5t67.5 -35.5t55.5 -59t37.5 -81t12 -84q0 -27 -3 -45h-382q9 -48 49.5 -73t100.5 -25
zM177 316h250q-6 39 -40 61.5t-81 22.5q-48 0 -84.5 -22.5t-44.5 -61.5z" />
    <glyph glyph-name="afii10072" unicode="&#x436;" horiz-adv-x="807" 
d="M467 515v-195l163 195h153l-209 -246l226 -269h-161l-172 213v-213h-127v213l-172 -213h-161l226 269l-209 246h153l163 -195v195h127z" />
    <glyph glyph-name="afii10073" unicode="&#x437;" horiz-adv-x="494" 
d="M239 114q36 0 57 12.5t21 30.5q0 19 -17 30.5t-46 11.5h-75v122h57q28 0 45.5 9.5t17.5 29.5q0 17 -18 28t-47 11q-35 0 -73.5 -13.5t-67.5 -40.5l-30 102q24 35 73 58.5t105 23.5q87 0 137.5 -41t50.5 -112q0 -32 -15.5 -60t-38.5 -43q74 -35 74 -121q0 -47 -28 -86.5
t-79 -59.5t-106 -20q-59 0 -111.5 24.5t-82.5 67.5l35 104q22 -30 65 -49t97 -19z" />
    <glyph glyph-name="afii10074" unicode="&#x438;" horiz-adv-x="637" 
d="M76 515h125v-309l233 309h127v-515h-125v309l-233 -309h-127v515z" />
    <glyph glyph-name="afii10075" unicode="&#x439;" horiz-adv-x="637" 
d="M387 737l103 -15q0 -41 -20.5 -75.5t-60 -58t-91.5 -23.5q-26 0 -55 8t-55 27t-44.5 50t-18.5 72l104 15q2 -28 20.5 -46.5t48.5 -18.5q29 0 48 18.5t21 46.5zM76 515h125v-309l233 309h127v-515h-125v309l-233 -309h-127v515z" />
    <glyph glyph-name="afii10076" unicode="&#x43a;" horiz-adv-x="575" 
d="M76 0v515h127v-195l190 195h163l-233 -246l260 -269h-171l-209 213v-213h-127z" />
    <glyph glyph-name="afii10077" unicode="&#x43b;" horiz-adv-x="614" 
d="M39 4l-22 116q37 2 58.5 13.5t36.5 47t24.5 108.5t12.5 226h389v-515h-127v380h-147q-12 -384 -181 -384q-22 0 -44 8z" />
    <glyph glyph-name="afii10078" unicode="&#x43c;" horiz-adv-x="788" 
d="M389 186l145 329h123l81 -515h-126l-45 272l-120 -272h-102l-120 272l-46 -272h-129l80 515h114z" />
    <glyph glyph-name="afii10079" unicode="&#x43d;" horiz-adv-x="632" 
d="M76 515h127v-183h226v183h127v-515h-127v197h-226v-197h-127v515z" />
    <glyph glyph-name="afii10080" unicode="&#x43e;" horiz-adv-x="628" 
d="M586 257q0 -56 -21.5 -106.5t-59.5 -87t-88 -57t-103 -20.5t-103 20.5t-88 57t-59.5 87t-21.5 106.5t21.5 106.5t59.5 87.5t88 57.5t103 20.5q39 0 84.5 -13.5t92 -51.5t71 -94.5t24.5 -112.5zM170 257q0 -61 43 -98.5t101 -37.5t101 37.5t43 98.5t-43 99t-101 38
t-101 -38t-43 -99z" />
    <glyph glyph-name="afii10081" unicode="&#x43f;" horiz-adv-x="629" 
d="M76 515h477v-515h-127v380h-223v-380h-127v515z" />
    <glyph glyph-name="afii10082" unicode="&#x440;" horiz-adv-x="656" 
d="M614 258q0 -58 -21 -108.5t-57.5 -87t-84 -56.5t-97.5 -20q-55 0 -96.5 19.5t-54.5 48.5v-267h-127v728h123v-54q13 29 55.5 48.5t97.5 19.5q51 0 98.5 -19.5t84.5 -56t58 -87t21 -108.5zM486 258q0 60 -41.5 98t-107.5 38q-22 0 -49.5 -6.5t-51.5 -23.5t-33 -38v-137
q12 -29 50 -48.5t84 -19.5q66 0 107.5 38.5t41.5 98.5z" />
    <glyph glyph-name="afii10083" unicode="&#x441;" horiz-adv-x="550" 
d="M470 185l38 -107q-23 -39 -76.5 -65.5t-119.5 -26.5q-52 0 -101.5 20t-87.5 56.5t-59.5 87t-21.5 108.5t21.5 108.5t59.5 87t87 56t102 19.5q64 0 116.5 -26.5t75.5 -64.5l-36 -106q-21 26 -59 44t-83 18q-69 0 -111.5 -37.5t-42.5 -98.5t42.5 -99t111.5 -38
q45 0 83 18.5t61 45.5z" />
    <glyph glyph-name="afii10084" unicode="&#x442;" horiz-adv-x="505" 
d="M475 515v-135h-159v-380h-127v380h-159v135h445z" />
    <glyph glyph-name="afii10085" unicode="&#x443;" horiz-adv-x="584" 
d="M223 32l-206 483h137l135 -320l135 320h141l-308 -728h-139z" />
    <glyph glyph-name="afii10086" unicode="&#x444;" horiz-adv-x="755" 
d="M314 -213v203q-58 0 -108 18t-87 52.5t-57 85t-20 111.5t19.5 111.5t56 85.5t87 53t109.5 18v203h127v-203q59 0 109.5 -18t87 -53t56 -85.5t19.5 -111.5t-20 -111.5t-57 -85t-87 -52.5t-108 -18v-203h-127zM583 257q0 62 -37 95.5t-105 33.5v-257q69 0 105.5 32.5
t36.5 95.5zM172 257q0 -63 36.5 -95.5t105.5 -32.5v257q-68 0 -105 -33.5t-37 -95.5z" />
    <glyph glyph-name="afii10087" unicode="&#x445;" horiz-adv-x="564" 
d="M284 167l-120 -167h-155l196 272l-176 243h152l99 -138l99 138h156l-176 -243l196 -272h-151z" />
    <glyph glyph-name="afii10088" unicode="&#x446;" horiz-adv-x="655" 
d="M620 -137h-123v137h-421v515h127v-380h218v380h127v-380h72v-272z" />
    <glyph glyph-name="afii10089" unicode="&#x447;" horiz-adv-x="544" 
d="M51 359v156h127v-115q0 -49 22.5 -71t67.5 -22q37 0 73 17v191h127v-515h-127v189q-42 -17 -101 -17q-61 0 -102.5 22.5t-64 63t-22.5 101.5z" />
    <glyph glyph-name="afii10090" unicode="&#x448;" horiz-adv-x="838" 
d="M356 515h127v-380h152v380h127v-515h-686v515h127v-380h153v380z" />
    <glyph glyph-name="afii10091" unicode="&#x449;" horiz-adv-x="869" 
d="M356 515h127v-380h152v380h127v-380h72v-272h-123v137h-635v515h127v-380h153v380z" />
    <glyph glyph-name="afii10092" unicode="&#x44a;" horiz-adv-x="596" 
d="M28 515h257v-142h77q87 0 142 -51t55 -136q0 -31 -10 -64t-34 -60t-63 -44.5t-91 -17.5h-203v380h-130v135zM285 128h84q29 0 47 17t18 43t-18.5 41.5t-46.5 15.5h-84v-117z" />
    <glyph glyph-name="afii10093" unicode="&#x44b;" horiz-adv-x="758" 
d="M76 515h127v-142h77q87 0 142 -51t55 -136q0 -31 -10 -64t-34 -60t-63 -44.5t-91 -17.5h-203v515zM203 128h84q29 0 47 17t18 43t-18.5 41.5t-46.5 15.5h-84v-117zM555 0v515h127v-515h-127z" />
    <glyph glyph-name="afii10094" unicode="&#x44c;" horiz-adv-x="514" 
d="M76 515h127v-142h77q87 0 142 -51t55 -136q0 -31 -10 -64t-34 -60t-63 -44.5t-91 -17.5h-203v515zM203 128h84q29 0 47 17t18 43t-18.5 41.5t-46.5 15.5h-84v-117z" />
    <glyph glyph-name="afii10095" unicode="&#x44d;" horiz-adv-x="550" 
d="M42 79l39 111q15 -28 55.5 -48.5t85.5 -20.5q56 0 95 19t54 59h-181v118h181q-15 38 -54 57.5t-92 19.5q-43 0 -83.5 -19.5t-58.5 -46.5l-37 108q16 27 51 50.5t74 33t69 9.5q56 0 105 -20t85.5 -56t57 -87t20.5 -109t-20 -108.5t-56.5 -87t-86 -56t-105.5 -19.5
q-64 0 -117 25t-81 68z" />
    <glyph glyph-name="afii10096" unicode="&#x44e;" horiz-adv-x="851" 
d="M809 258q0 -54 -21 -104t-58 -87.5t-88 -59t-108 -21.5q-47 0 -90.5 15.5t-79 44t-59.5 67.5t-34 84h-68v-197h-127v515h127v-183h72q15 53 54 100.5t94.5 72t109.5 24.5q41 0 87 -14t93 -52t71.5 -94t24.5 -111zM393 258q0 -37 16.5 -67.5t49.5 -50t76 -19.5q27 0 55 10
t48 27t31.5 42.5t11.5 56.5q0 37 -18.5 70t-54 50t-73.5 17q-59 0 -100.5 -38.5t-41.5 -97.5z" />
    <glyph glyph-name="afii10097" unicode="&#x44f;" horiz-adv-x="526" 
d="M247 515h203v-515h-127v153h-42l-104 -153h-147l117 172q-44 23 -69.5 64.5t-25.5 95.5q0 83 55.5 133t139.5 50zM323 387h-86q-27 0 -43.5 -16t-16.5 -40q0 -23 17.5 -38t42.5 -15h86v109z" />
    <glyph glyph-name="afii10071" unicode="&#x451;" horiz-adv-x="599" 
d="M322 114q48 0 92.5 18t65.5 46l39 -98q-25 -41 -79 -67.5t-122 -26.5q-58 0 -108.5 19t-88 54.5t-58.5 86.5t-21 111q0 54 18.5 103.5t53.5 87.5t84.5 59.5t107.5 21.5q41 0 78.5 -12.5t67.5 -35.5t55.5 -59t37.5 -81t12 -84q0 -27 -3 -45h-382q9 -48 49.5 -73t100.5 -25
zM177 316h250q-6 39 -40 61.5t-81 22.5q-48 0 -84.5 -22.5t-44.5 -61.5zM128 665q0 31 22 53t53 22t53 -22t22 -53t-22 -53t-53 -22t-53 22t-22 53zM330 665q0 31 22 53t53 22t53 -22t22 -53t-22 -53t-53 -22t-53 22t-22 53z" />
    <glyph glyph-name="afii10099" unicode="&#x452;" horiz-adv-x="626" 
d="M432 -27v273q0 39 -18.5 67.5t-44.5 38.5t-48 10q-40 0 -74 -22.5t-41 -55.5v-284h-127v556h-77v109h77v63h127v-63h149v-109h-149v-125q11 29 46 47.5t88 18.5q40 0 79.5 -14t71 -42.5t50 -72.5t18.5 -101v-323q0 -84 -35 -127.5t-102 -43.5q-25 0 -54 8.5t-52 28.5
l12 121q11 -11 26.5 -17t28.5 -6q26 0 37.5 15.5t11.5 49.5z" />
    <glyph glyph-name="afii10100" unicode="&#x453;" horiz-adv-x="441" 
d="M76 515h335v-135h-208v-380h-127v515zM230 750h150l-120 -160h-100z" />
    <glyph glyph-name="afii10101" unicode="&#x454;" horiz-adv-x="550" 
d="M469 190l39 -111q-28 -43 -81 -68t-117 -25q-56 0 -105.5 19.5t-86 56t-56.5 87t-20 108.5t20.5 109t57 87t85.5 56t105 20q30 0 69 -9.5t74 -33t51 -50.5l-37 -108q-18 27 -58.5 46.5t-83.5 19.5q-53 0 -92 -19.5t-54 -57.5h181v-118h-181q15 -40 54 -59t95 -19
q45 0 85.5 20.5t55.5 48.5z" />
    <glyph glyph-name="afii10102" unicode="&#x455;" horiz-adv-x="442" 
d="M220 201l-43 22q-124 63 -124 157q0 62 47.5 105.5t120.5 43.5q53 0 95.5 -21t61.5 -50l-24 -113q-28 27 -64 40.5t-66 13.5q-15 0 -29 -5.5t-14 -19.5q0 -6 5 -14t36 -24l48 -25q48 -25 78 -51.5t40.5 -56t10.5 -56.5q0 -25 -9 -52.5t-33.5 -54.5t-63 -40.5t-79.5 -13.5
q-30 0 -65 9t-65.5 31t-44.5 48l36 112q30 -39 68 -55.5t75 -16.5q24 0 39.5 8.5t15.5 26.5q0 12 -8.5 22.5t-44.5 29.5z" />
    <glyph glyph-name="afii10103" unicode="&#x456;" horiz-adv-x="282" 
d="M78 0v515h127v-515h-127zM56 673q0 16 8.5 36t30 34.5t46.5 14.5q16 0 36 -8.5t34.5 -30t14.5 -46.5q0 -16 -8.5 -36t-30 -34.5t-46.5 -14.5q-16 0 -36 8.5t-34.5 30t-14.5 46.5z" />
    <glyph glyph-name="afii10104" unicode="&#x457;" horiz-adv-x="283" 
d="M78 0v515h127v-515h-127zM-35 663q0 31 22 53t53 22t53 -22t22 -53t-22 -53t-53 -22t-53 22t-22 53zM167 663q0 31 22 53t53 22t53 -22t22 -53t-22 -53t-53 -22t-53 22t-22 53z" />
    <glyph glyph-name="afii10105" unicode="&#x458;" horiz-adv-x="287" 
d="M83 -27v542h127v-571q0 -84 -35 -127.5t-102 -43.5q-25 0 -54 8.5t-52 28.5l12 121q11 -11 26.5 -17t28.5 -6q26 0 37.5 15.5t11.5 49.5zM61 673q0 16 8.5 36t30 34.5t46.5 14.5q16 0 36 -8.5t34.5 -30t14.5 -46.5q0 -16 -8.5 -36t-30 -34.5t-46.5 -14.5q-16 0 -36 8.5
t-34.5 30t-14.5 46.5z" />
    <glyph glyph-name="afii10106" unicode="&#x459;" horiz-adv-x="807" 
d="M501 515v-142h72q87 0 142 -51t55 -136q0 -31 -10 -64t-34 -60t-63 -44.5t-91 -17.5h-198v380h-110q-12 -384 -181 -384q-22 0 -44 8l-22 116q37 2 58.5 13.5t36.5 47t24.5 108.5t12.5 226h352zM501 128h79q29 0 47 17t18 43t-18.5 41.5t-46.5 15.5h-79v-117z" />
    <glyph glyph-name="afii10107" unicode="&#x45a;" horiz-adv-x="832" 
d="M76 515h127v-183h196v183h127v-142h72q87 0 142 -51t55 -136q0 -31 -10 -64t-34 -60t-63 -44.5t-91 -17.5h-198v197h-196v-197h-127v515zM526 128h79q29 0 47 17t18 43t-18.5 41.5t-46.5 15.5h-79v-117z" />
    <glyph glyph-name="afii10108" unicode="&#x45b;" horiz-adv-x="626" 
d="M206 284v-284h-127v556h-77v109h77v63h127v-63h149v-109h-149v-125q11 29 46 47.5t88 18.5q40 0 79.5 -14t71 -42.5t50 -72.5t18.5 -101v-267h-127v246q0 39 -18.5 67.5t-44.5 38.5t-48 10q-40 0 -74 -22.5t-41 -55.5z" />
    <glyph glyph-name="afii10109" unicode="&#x45c;" horiz-adv-x="575" 
d="M76 0v515h127v-195l190 195h163l-233 -246l260 -269h-171l-209 213v-213h-127zM293 750h150l-120 -160h-100z" />
    <glyph glyph-name="afii10110" unicode="&#x45e;" horiz-adv-x="584" 
d="M223 32l-206 483h137l135 -320l135 320h141l-308 -728h-139zM360 738l95 -15q0 -40 -22.5 -77t-64 -56.5t-84.5 -19.5t-84.5 19.5t-64 56.5t-22.5 77l96 15q2 -28 23 -48t52 -20q33 0 53.5 19.5t22.5 48.5z" />
    <glyph glyph-name="afii10193" unicode="&#x45f;" horiz-adv-x="624" 
d="M548 0h-175v-137h-123v137h-174v515h127v-380h218v380h127v-515z" />
    <glyph glyph-name="afii10050" unicode="&#x490;" horiz-adv-x="494" 
d="M85 0v718h235v154h124v-296h-228v-576h-131z" />
    <glyph glyph-name="afii10098" unicode="&#x491;" horiz-adv-x="441" 
d="M76 515h212v137h123v-272h-208v-380h-127v515z" />
    <glyph glyph-name="uni0492" unicode="&#x492;" horiz-adv-x="510" 
d="M101 0v288h-102v142h102v288h359v-142h-228v-146h175v-142h-175v-288h-131z" />
    <glyph glyph-name="uni0493" unicode="&#x493;" horiz-adv-x="470" 
d="M105 515h335v-135h-208v-80h165v-120h-165v-180h-127v180h-77v120h77v215z" />
    <glyph glyph-name="uni049A" unicode="&#x49a;" horiz-adv-x="689" 
d="M538 -154v154h-52l-270 297v-297h-131v718h131v-274l244 274h167l-302 -340l214 -236h123v-296h-124z" />
    <glyph glyph-name="uni049B" unicode="&#x49b;" horiz-adv-x="593" 
d="M76 0v515h127v-195l190 195h163l-233 -246l136 -141h109v-265h-123v137h-33l-209 213v-213h-127z" />
    <glyph glyph-name="uni04A2" unicode="&#x4a2;" horiz-adv-x="818" 
d="M85 0v718h131v-278h334v278h131v-576h92v-296h-124v154h-99v298h-334v-298h-131z" />
    <glyph glyph-name="uni04A3" unicode="&#x4a3;" horiz-adv-x="653" 
d="M76 515h127v-183h226v183h127v-387h70v-265h-123v137h-74v197h-226v-197h-127v515z" />
    <glyph glyph-name="uni04AE" unicode="&#x4ae;" horiz-adv-x="595" 
d="M233 300l-228 418h145l146 -266l146 266h148l-226 -418v-300h-131v300z" />
    <glyph glyph-name="uni04AF" unicode="&#x4af;" horiz-adv-x="568" 
d="M221 -213v225l-207 503h135l133 -333l133 333h139l-206 -501v-227h-127z" />
    <glyph glyph-name="uni04B0" unicode="&#x4b0;" horiz-adv-x="595" 
d="M97 180v142h124l-216 396h145l146 -266l146 266h148l-214 -396h123v-142h-135v-180h-131v180h-136z" />
    <glyph glyph-name="uni04B1" unicode="&#x4b1;" horiz-adv-x="568" 
d="M221 -213v213h-127v120h82l-162 395h135l133 -333l133 333h139l-163 -395h84v-120h-127v-213h-127z" />
    <glyph glyph-name="uni04BA" unicode="&#x4ba;" horiz-adv-x="592" 
d="M542 0h-131v196q0 55 -26.5 79t-81.5 24q-45 0 -87 -11v-288h-131v718h131v-288q46 11 107 11q70 0 119 -25t74.5 -69.5t25.5 -108.5v-238z" />
    <glyph glyph-name="uni04BB" unicode="&#x4bb;" horiz-adv-x="623" 
d="M203 316v-316h-127v728h127v-265q11 29 46 47.5t88 18.5q40 0 79.5 -14t71 -42.5t50 -72.5t18.5 -101v-299h-127v278q0 39 -18.5 67.5t-44.5 38.5t-48 10q-40 0 -74 -22.5t-41 -55.5z" />
    <glyph glyph-name="uni04D8" unicode="&#x4d8;" horiz-adv-x="792" 
d="M41 435h572q-22 76 -83.5 115.5t-146.5 39.5q-74 0 -136.5 -26.5t-99.5 -74.5l-42 117q35 57 112.5 91.5t169.5 34.5q53 0 114 -17t110 -54t80 -81.5t48.5 -101.5t17.5 -121q0 -76 -27.5 -144.5t-77 -119t-115.5 -79t-138 -28.5q-81 0 -149 28.5t-116 80t-73.5 121.5
t-25.5 149q0 36 6 70zM399 128q35 0 72 9t67.5 29t50 52t25.5 75h-437q6 -52 35 -88t76.5 -56.5t110.5 -20.5z" />
    <glyph glyph-name="afii10846" unicode="&#x4d9;" horiz-adv-x="599" 
d="M422 201h-250q3 -19 16 -39.5t42 -33.5t63 -13q35 0 65.5 13t45.5 33.5t18 39.5zM281 529q58 0 108.5 -19t88 -54.5t58.5 -86.5t21 -111q0 -54 -18.5 -103.5t-53.5 -87.5t-84.5 -59.5t-107.5 -21.5q-55 0 -102 21.5t-80 60t-51 88.5t-18 105q0 23 4 47h380
q-24 93 -147 93q-49 0 -92 -16.5t-67 -46.5l-37 99q26 41 79.5 66.5t118.5 25.5z" />
    <glyph glyph-name="uni04E8" unicode="&#x4e8;" horiz-adv-x="810" 
d="M405 732q75 0 143 -27.5t119 -77.5t79.5 -119t28.5 -149q0 -78 -28.5 -147.5t-79.5 -120t-118.5 -78t-141.5 -27.5q-75 0 -143.5 27.5t-119.5 78t-80 119.5t-29 148q0 80 28.5 149t79.5 119t119 77.5t143 27.5zM405 128q82 0 144 44.5t82 120.5h-454q20 -78 81.5 -121.5
t146.5 -43.5zM405 590q-81 0 -142 -41t-83 -114h446q-23 71 -83 113t-138 42z" />
    <glyph glyph-name="uni04E9" unicode="&#x4e9;" horiz-adv-x="628" 
d="M586 257q0 -57 -21.5 -107.5t-59 -87t-87.5 -56.5t-104 -20t-104 20t-87.5 56.5t-59 87t-21.5 107.5t21.5 107.5t59 87.5t87.5 57t104 20t104 -20t87.5 -57t59 -87.5t21.5 -107.5zM314 115q36 0 66 12.5t46.5 34.5t23.5 44h-273q7 -22 23.5 -44t47 -34.5t66.5 -12.5z
M314 401q-47 0 -83 -21.5t-51 -63.5h268q-7 21 -24 41.5t-46 32t-64 11.5z" />
    <glyph glyph-name="uni1E02" unicode="&#x1e02;" horiz-adv-x="583" 
d="M85 718h182q75 0 127.5 -26t79.5 -69t27 -102q0 -86 -62 -138q46 -23 72.5 -67t26.5 -106q0 -35 -12.5 -72t-46.5 -71t-83 -50.5t-97 -16.5h-214v718zM289 584h-73v-160h74q24 0 44 13t28 32t8 35q0 32 -23.5 56t-57.5 24zM324 298h-108v-164h109q34 0 58 24t24 58
q0 15 -8 34t-28.5 33.5t-46.5 14.5zM197 847q0 32 23 54t55 22t55 -22t23 -54t-23 -54t-55 -22t-55 22t-23 54z" />
    <glyph glyph-name="uni1E03" unicode="&#x1e03;" horiz-adv-x="656" 
d="M614 257q0 -58 -21 -108.5t-58 -87t-84.5 -56t-98.5 -19.5q-55 0 -97.5 19.5t-55.5 48.5v-54h-123v728h127v-267q13 29 54.5 48.5t96.5 19.5q50 0 97.5 -20t84 -56.5t57.5 -87t21 -108.5zM486 257q0 60 -41.5 98.5t-107.5 38.5q-46 0 -84 -19.5t-50 -48.5v-137
q6 -13 22 -29t47 -27.5t65 -11.5q66 0 107.5 38t41.5 98zM258 831q0 16 8.5 36t30 34.5t46.5 14.5q16 0 36 -8.5t34.5 -30t14.5 -46.5q0 -16 -8.5 -36t-30 -34.5t-46.5 -14.5q-16 0 -36 8.5t-34.5 30t-14.5 46.5z" />
    <glyph glyph-name="uni1E0A" unicode="&#x1e0a;" horiz-adv-x="735" 
d="M566 359q0 56 -27.5 108.5t-80 80.5t-110.5 28h-132v-434h132q45 0 85 15.5t70 44.5t46.5 69.5t16.5 87.5zM85 718h225q83 0 155.5 -24t124.5 -70.5t81 -114t29 -150.5q0 -82 -29 -149.5t-82 -114t-125 -71t-154 -24.5h-225v718zM252 847q0 32 23 54t55 22t55 -22t23 -54
t-23 -54t-55 -22t-55 22t-23 54z" />
    <glyph glyph-name="uni1E0B" unicode="&#x1e0b;" horiz-adv-x="644" 
d="M30 257q0 58 21 108.5t57.5 87t84 56.5t97.5 20q55 0 96.5 -19.5t54.5 -48.5v267h127v-728h-123v54q-13 -29 -55.5 -48.5t-97.5 -19.5q-51 0 -98.5 19.5t-84.5 56t-58 87t-21 108.5zM158 257q0 -60 41.5 -98t107.5 -38q22 0 49.5 6.5t51.5 23.5t33 38v137
q-12 29 -50 48.5t-84 19.5q-66 0 -107.5 -38.5t-41.5 -98.5zM216 831q0 16 8.5 36t30 34.5t46.5 14.5q16 0 36 -8.5t34.5 -30t14.5 -46.5q0 -16 -8.5 -36t-30 -34.5t-46.5 -14.5q-16 0 -36 8.5t-34.5 30t-14.5 46.5z" />
    <glyph glyph-name="uni1E1E" unicode="&#x1e1e;" horiz-adv-x="494" 
d="M85 0v718h359v-142h-228v-136h208v-142h-208v-298h-131zM187 847q0 32 23 54t55 22t55 -22t23 -54t-23 -54t-55 -22t-55 22t-23 54z" />
    <glyph glyph-name="uni1E1F" unicode="&#x1e1f;" horiz-adv-x="448" 
d="M428 681l-24 -103q-40 34 -85 34q-21 0 -39 -10t-25.5 -27.5t-7.5 -35.5v-24h163v-135h-163v-380h-127v380h-89v135h89v45q0 82 46 132t129 50q45 0 81 -17.5t52 -43.5zM184 870q0 16 8.5 36t30 34.5t46.5 14.5q16 0 36 -8.5t34.5 -30t14.5 -46.5q0 -16 -8.5 -36
t-30 -34.5t-46.5 -14.5q-16 0 -36 8.5t-34.5 30t-14.5 46.5z" />
    <glyph glyph-name="uni1E40" unicode="&#x1e40;" horiz-adv-x="958" 
d="M479 208l193 510h135l96 -718h-132l-61 462l-167 -462h-121l-167 462l-61 -462h-139l96 718h135zM401 847q0 32 23 54t55 22t55 -22t23 -54t-23 -54t-55 -22t-55 22t-23 54z" />
    <glyph glyph-name="uni1E41" unicode="&#x1e41;" horiz-adv-x="936" 
d="M664 529q37 0 74 -13.5t66.5 -40t47 -67.5t17.5 -92v-316h-127v288q0 23 -9.5 48.5t-34 41.5t-55.5 16q-37 0 -68.5 -22t-38.5 -53v-319h-127v289q0 48 -28.5 76.5t-71.5 28.5q-37 0 -68 -22t-38 -53v-319h-127v515h123v-52q10 28 46 47t86 19q45 0 88.5 -19.5
t72.5 -55.5q55 75 172 75zM383 673q0 16 8.5 36t30 34.5t46.5 14.5q16 0 36 -8.5t34.5 -30t14.5 -46.5q0 -16 -8.5 -36t-30 -34.5t-46.5 -14.5q-16 0 -36 8.5t-34.5 30t-14.5 46.5z" />
    <glyph glyph-name="uni1E56" unicode="&#x1e56;" horiz-adv-x="550" 
d="M85 718h206q61 0 117.5 -27.5t86.5 -81.5t30 -115q0 -35 -11.5 -73.5t-43 -75.5t-80 -55.5t-98.5 -18.5h-76v-271h-131v718zM311 577h-95v-165h95q35 0 59 23t24 59q0 35 -23.5 59t-59.5 24zM196 847q0 32 23 54t55 22t55 -22t23 -54t-23 -54t-55 -22t-55 22t-23 54z" />
    <glyph glyph-name="uni1E57" unicode="&#x1e57;" horiz-adv-x="656" 
d="M614 258q0 -58 -21 -108.5t-57.5 -87t-84 -56.5t-97.5 -20q-55 0 -96.5 19.5t-54.5 48.5v-267h-127v728h123v-54q13 29 55.5 48.5t97.5 19.5q51 0 98.5 -19.5t84.5 -56t58 -87t21 -108.5zM486 258q0 60 -41.5 98t-107.5 38q-22 0 -49.5 -6.5t-51.5 -23.5t-33 -38v-137
q12 -29 50 -48.5t84 -19.5q66 0 107.5 38.5t41.5 98.5zM258 673q0 16 8.5 36t30 34.5t46.5 14.5q16 0 36 -8.5t34.5 -30t14.5 -46.5q0 -16 -8.5 -36t-30 -34.5t-46.5 -14.5q-16 0 -36 8.5t-34.5 30t-14.5 46.5z" />
    <glyph glyph-name="uni1E60" unicode="&#x1e60;" horiz-adv-x="503" 
d="M442 636l-26 -124q-31 35 -76 56.5t-87 21.5q-27 0 -47 -10t-20 -32q0 -23 48 -62q8 -6 58.5 -46.5t77.5 -64.5q34 -30 57.5 -61t33 -64t9.5 -61q0 -33 -10.5 -68t-40 -68.5t-75 -50t-92.5 -16.5q-76 0 -140 38t-83 85l39 124q32 -45 86 -75t105 -30q34 0 56 15.5
t22 43.5q0 16 -9 33.5t-43 46.5q-15 12 -52.5 42.5t-63.5 53t-46 43.5q-32 34 -51 69.5t-19 78.5q0 51 23.5 90t68.5 63.5t107 24.5q46 0 88 -17t66.5 -39.5t35.5 -39.5zM174 847q0 32 23 54t55 22t55 -22t23 -54t-23 -54t-55 -22t-55 22t-23 54z" />
    <glyph glyph-name="uni1E61" unicode="&#x1e61;" horiz-adv-x="442" 
d="M220 201l-43 22q-124 63 -124 157q0 62 47.5 105.5t120.5 43.5q53 0 95.5 -21t61.5 -50l-24 -113q-28 27 -64 40.5t-66 13.5q-15 0 -29 -5.5t-14 -19.5q0 -6 5 -14t36 -24l48 -25q48 -25 78 -51.5t40.5 -56t10.5 -56.5q0 -25 -9 -52.5t-33.5 -54.5t-63 -40.5t-79.5 -13.5
q-30 0 -65 9t-65.5 31t-44.5 48l36 112q30 -39 68 -55.5t75 -16.5q24 0 39.5 8.5t15.5 26.5q0 12 -8.5 22.5t-44.5 29.5zM131 673q0 16 8.5 36t30 34.5t46.5 14.5q16 0 36 -8.5t34.5 -30t14.5 -46.5q0 -16 -8.5 -36t-30 -34.5t-46.5 -14.5q-16 0 -36 8.5t-34.5 30
t-14.5 46.5z" />
    <glyph glyph-name="uni1E6A" unicode="&#x1e6a;" horiz-adv-x="579" 
d="M13 578v140h553v-140h-211v-578h-131v578h-211zM211 847q0 32 23 54t55 22t55 -22t23 -54t-23 -54t-55 -22t-55 22t-23 54z" />
    <glyph glyph-name="uni1E6B" unicode="&#x1e6b;" horiz-adv-x="458" 
d="M383 160l27 -114q-19 -26 -53 -43t-75 -17q-84 0 -126.5 46t-42.5 130v218h-88v41l177 224h39v-130h163v-135h-164v-190q0 -35 18 -52t46 -17q19 0 38 7t41 32zM180 796q0 16 8.5 36t30 34.5t46.5 14.5q16 0 36 -8.5t34.5 -30t14.5 -46.5q0 -16 -8.5 -36t-30 -34.5
t-46.5 -14.5q-16 0 -36 8.5t-34.5 30t-14.5 46.5z" />
    <glyph glyph-name="Wgrave" unicode="&#x1e80;" horiz-adv-x="1022" 
d="M570 718l134 -467l157 467h146l-238 -718h-120l-138 486l-138 -486h-120l-238 718h141l157 -467l134 467h123zM341 922h150l70 -150h-100z" />
    <glyph glyph-name="wgrave" unicode="&#x1e81;" horiz-adv-x="876" 
d="M494 515l103 -319l122 319h143l-205 -515h-116l-103 321l-103 -321h-116l-205 515h139l122 -319l103 319h116zM264 750h150l70 -160h-100z" />
    <glyph glyph-name="Wacute" unicode="&#x1e82;" horiz-adv-x="1022" 
d="M570 718l134 -467l157 467h146l-238 -718h-120l-138 486l-138 -486h-120l-238 718h141l157 -467l134 467h123zM534 922h150l-120 -150h-100z" />
    <glyph glyph-name="wacute" unicode="&#x1e83;" horiz-adv-x="876" 
d="M494 515l103 -319l122 319h143l-205 -515h-116l-103 321l-103 -321h-116l-205 515h139l122 -319l103 319h116zM460 750h150l-120 -160h-100z" />
    <glyph glyph-name="Wdieresis" unicode="&#x1e84;" horiz-adv-x="1022" 
d="M570 718l134 -467l157 467h146l-238 -718h-120l-138 486l-138 -486h-120l-238 718h141l157 -467l134 467h123zM334 847q0 30 21 51t51 21t51 -21t21 -51t-21 -51t-51 -21t-51 21t-21 51zM544 847q0 30 21 51t51 21t51 -21t21 -51t-21 -51t-51 -21t-51 21t-21 51z" />
    <glyph glyph-name="wdieresis" unicode="&#x1e85;" horiz-adv-x="876" 
d="M494 515l103 -319l122 319h143l-205 -515h-116l-103 321l-103 -321h-116l-205 515h139l122 -319l103 319h116zM262 665q0 31 22 53t53 22t53 -22t22 -53t-22 -53t-53 -22t-53 22t-22 53zM464 665q0 31 22 53t53 22t53 -22t22 -53t-22 -53t-53 -22t-53 22t-22 53z" />
    <glyph glyph-name="Ygrave" unicode="&#x1ef2;" horiz-adv-x="595" 
d="M233 300l-228 418h145l146 -266l146 266h148l-226 -418v-300h-131v300zM136 922h150l70 -150h-100z" />
    <glyph glyph-name="ygrave" unicode="&#x1ef3;" horiz-adv-x="584" 
d="M223 32l-206 483h137l135 -320l135 320h141l-308 -728h-139zM128 750h150l70 -160h-100z" />
    <glyph glyph-name="endash" unicode="&#x2013;" 
d="M45 222v110h510v-110h-510z" />
    <glyph glyph-name="emdash" unicode="&#x2014;" horiz-adv-x="924" 
d="M45 222v110h834v-110h-834z" />
    <glyph glyph-name="quoteleft" unicode="&#x2018;" horiz-adv-x="296" 
d="M233 718l-61 -131q20 -5 35 -23t15 -46q0 -30 -22 -51.5t-54 -21.5q-31 0 -53 22t-22 54q0 13 4.5 31.5t26.5 57.5l62 108h69z" />
    <glyph glyph-name="quoteright" unicode="&#x2019;" horiz-adv-x="296" 
d="M63 455l61 131q-20 5 -35 23t-15 46q0 30 22 51.5t54 21.5q31 0 53 -22t22 -54q0 -13 -4.5 -31.5t-26.5 -57.5l-62 -108h-69z" />
    <glyph glyph-name="quotesinglbase" unicode="&#x201a;" horiz-adv-x="296" 
d="M63 -134l61 131q-20 5 -35 23t-15 46q0 30 22 51.5t54 21.5q31 0 53 -22t22 -54q0 -13 -4.5 -31.5t-26.5 -57.5l-62 -108h-69z" />
    <glyph glyph-name="quotedblleft" unicode="&#x201c;" horiz-adv-x="503" 
d="M233 719l-61 -131q20 -5 35 -23t15 -46q0 -30 -22 -51.5t-54 -21.5q-31 0 -53 22t-22 54q0 13 4.5 31.5t26.5 57.5l62 108h69zM440 719l-61 -131q20 -5 35 -23t15 -46q0 -30 -22 -51.5t-54 -21.5q-31 0 -53 22t-22 54q0 13 4.5 31.5t26.5 57.5l62 108h69z" />
    <glyph glyph-name="quotedblright" unicode="&#x201d;" horiz-adv-x="503" 
d="M63 456l61 131q-20 5 -35 23t-15 46q0 30 22 51.5t54 21.5q31 0 53 -22t22 -54q0 -13 -4.5 -31.5t-26.5 -57.5l-62 -108h-69zM270 456l61 131q-20 5 -35 23t-15 46q0 30 22 51.5t54 21.5q31 0 53 -22t22 -54q0 -13 -4.5 -31.5t-26.5 -57.5l-62 -108h-69z" />
    <glyph glyph-name="quotedblbase" unicode="&#x201e;" horiz-adv-x="503" 
d="M63 -134l61 131q-20 5 -35 23t-15 46q0 30 22 51.5t54 21.5q31 0 53 -22t22 -54q0 -13 -4.5 -31.5t-26.5 -57.5l-62 -108h-69zM270 -134l61 131q-20 5 -35 23t-15 46q0 30 22 51.5t54 21.5q31 0 53 -22t22 -54q0 -13 -4.5 -31.5t-26.5 -57.5l-62 -108h-69z" />
    <glyph glyph-name="dagger" unicode="&#x2020;" horiz-adv-x="585" 
d="M65 395v128h167v195h121v-195h167v-128h-167v-564h-121v564h-167z" />
    <glyph glyph-name="daggerdbl" unicode="&#x2021;" horiz-adv-x="585" 
d="M65 395v128h167v195h121v-195h167v-128h-167v-241h167v-128h-167v-195h-121v195h-167v128h167v241h-167z" />
    <glyph glyph-name="bullet" unicode="&#x2022;" horiz-adv-x="402" 
d="M201 420q58 0 99.5 -41.5t41.5 -99.5q0 -57 -42 -99t-99 -42t-99 42t-42 99t42 99t99 42z" />
    <glyph glyph-name="ellipsis" unicode="&#x2026;" horiz-adv-x="854" 
d="M70 73q0 36 25.5 61.5t61.5 25.5t61.5 -25.5t25.5 -61.5t-25.5 -61.5t-61.5 -25.5t-61.5 25.5t-25.5 61.5zM340 73q0 36 25.5 61.5t61.5 25.5t61.5 -25.5t25.5 -61.5t-25.5 -61.5t-61.5 -25.5t-61.5 25.5t-25.5 61.5zM610 73q0 36 25.5 61.5t61.5 25.5t61.5 -25.5
t25.5 -61.5t-25.5 -61.5t-61.5 -25.5t-61.5 25.5t-25.5 61.5z" />
    <glyph glyph-name="perthousand" unicode="&#x2030;" horiz-adv-x="1347" 
d="M317 0h-114l412 718h114zM410 544q0 -37 -12 -66.5t-32 -53.5t-56.5 -44t-85.5 -20q-29 0 -60.5 9.5t-59.5 33t-47 59.5t-19 82q0 37 12 66.5t32 53.5t56.5 44t85.5 20q29 0 60.5 -9.5t59.5 -33t47 -59.5t19 -82zM294 544q0 27 -19.5 45.5t-50.5 18.5t-50.5 -18.5
t-19.5 -45.5t19.5 -45.5t50.5 -18.5t50.5 18.5t19.5 45.5zM893 174q0 -37 -12 -66.5t-32 -53.5t-56.5 -44t-85.5 -20q-29 0 -60.5 9.5t-59.5 33t-47 59.5t-19 82q0 37 12 66.5t32 53.5t56.5 44t85.5 20q29 0 60.5 -9.5t59.5 -33t47 -59.5t19 -82zM777 174q0 27 -19.5 45.5
t-50.5 18.5t-50.5 -18.5t-19.5 -45.5t19.5 -45.5t50.5 -18.5t50.5 18.5t19.5 45.5zM1309 174q0 -37 -12 -66.5t-32 -53.5t-56.5 -44t-85.5 -20q-29 0 -60.5 9.5t-59.5 33t-47 59.5t-19 82q0 37 12 66.5t32 53.5t56.5 44t85.5 20q29 0 60.5 -9.5t59.5 -33t47 -59.5t19 -82z
M1193 174q0 27 -19.5 45.5t-50.5 18.5t-50.5 -18.5t-19.5 -45.5t19.5 -45.5t50.5 -18.5t50.5 18.5t19.5 45.5z" />
    <glyph glyph-name="guilsinglleft" unicode="&#x2039;" horiz-adv-x="334" 
d="M171 269l113 -188h-116l-138 188l138 184h116z" />
    <glyph glyph-name="guilsinglright" unicode="&#x203a;" horiz-adv-x="334" 
d="M50 81l113 188l-113 184h116l138 -184l-138 -188h-116z" />
    <glyph glyph-name="uni2042" unicode="&#x2042;" horiz-adv-x="841" 
d="M354 380l-70 51l68 91l-109 36l26 81l108 -35v114h87v-114l108 36l26 -82l-109 -36l68 -91l-70 -51l-67 92zM141 -12l-70 51l68 91l-109 36l26 81l108 -35v114h87v-114l108 36l26 -82l-109 -36l68 -91l-70 -51l-67 92zM567 -12l-70 51l68 91l-109 36l26 81l108 -35v114
h87v-114l108 36l26 -82l-109 -36l68 -91l-70 -51l-67 92z" />
    <glyph glyph-name="fraction" unicode="&#x2044;" horiz-adv-x="198" 
d="M367 718l-429 -718h-107l429 718h107z" />
    <glyph glyph-name="uni2051" unicode="&#x2051;" horiz-adv-x="415" 
d="M141 380l-70 51l68 91l-109 36l26 81l108 -35v114h87v-114l108 36l26 -82l-109 -36l68 -91l-70 -51l-67 92zM141 -12l-70 51l68 91l-109 36l26 81l108 -35v114h87v-114l108 36l26 -82l-109 -36l68 -91l-70 -51l-67 92z" />
    <glyph glyph-name="uni207F" unicode="&#x207f;" horiz-adv-x="441" 
d="M243 645q25 0 52.5 -9t47.5 -26.5t32.5 -45.5t12.5 -64v-200h-95v180q0 30 -19.5 48t-49.5 18q-25 0 -45.5 -13t-24.5 -33v-200h-95v336h91v-32q8 18 33 29.5t60 11.5z" />
    <glyph glyph-name="Euro" unicode="&#x20ac;" horiz-adv-x="623" 
d="M0 370l49 108h68q10 45 30.5 90.5t54 81.5t79.5 59t101 23q75 0 128 -30t77 -79l-44 -106q-25 34 -62.5 53.5t-80.5 19.5q-38 0 -70 -15.5t-50 -42.5t-25 -54h271l-48 -108h-239l1 -51h215l-48 -108h-140q17 -41 53.5 -62t82.5 -21q43 0 82 20.5t64 58.5l43 -106
q-14 -28 -42 -55.5t-72.5 -43.5t-95.5 -16q-52 0 -106 25t-94 79t-59 121h-123l49 108h57l-1 51h-105z" />
    <glyph glyph-name="uni20B4" unicode="&#x20b4;" horiz-adv-x="544" 
d="M40 397v95h261q34 26 34 53q0 23 -20 34t-50 11q-33 0 -74 -16.5t-68 -47.5l-26 115q17 27 48.5 49.5t66 32t61.5 9.5q28 0 60 -8t60.5 -28t49 -55.5t20.5 -86.5q0 -32 -16 -62h47v-95h-122q-19 -20 -50 -47h172v-95h-267q-32 -32 -32 -65q0 -29 23 -45.5t61 -16.5
q46 0 90 21.5t75 64.5l40 -117q-24 -47 -79.5 -79t-130.5 -32q-44 0 -78 12.5t-60.5 33t-47.5 58t-21 88.5q0 17 5.5 40t12.5 37h-45v95h114l50 47h-164z" />
    <glyph glyph-name="uni20B8" unicode="&#x20b8;" horiz-adv-x="553" 
d="M50 410v142h453v-142h-161v-410h-131v410h-161zM50 610v108h453v-108h-453z" />
    <glyph glyph-name="uni20BD" unicode="&#x20bd;" horiz-adv-x="572" 
d="M30 271v141h76v306h202q61 0 117.5 -27.5t86.5 -81.5t30 -115q0 -35 -11.5 -73.5t-43 -75.5t-80 -55.5t-98.5 -18.5h-72v-51h190v-108h-190v-112h-131v112h-76v108h76v51h-76zM328 577h-91v-165h91q35 0 59 23t24 59q0 35 -23.5 59t-59.5 24z" />
    <glyph glyph-name="afii61289" unicode="&#x2113;" horiz-adv-x="414" 
d="M251 105q27 0 48 11t36 27l22 -99q-14 -24 -47.5 -41t-73.5 -17q-81 0 -122 45.5t-41 128.5v405q0 83 42.5 130t113.5 47q50 0 87.5 -28t51.5 -68t14 -77q0 -51 -25 -111t-72.5 -126t-103.5 -112v-44q0 -35 19 -53t51 -18zM181 563v-191q26 28 49.5 66.5t33 71.5t9.5 55
q0 27 -12 43t-32 16q-23 0 -35.5 -16t-12.5 -45z" />
    <glyph glyph-name="afii61352" unicode="&#x2116;" horiz-adv-x="1196" 
d="M1098 208h-327v114h327v-114zM934 728q28 0 58 -9t59.5 -33.5t44.5 -60.5t15 -71q0 -26 -9 -55t-30 -55t-56 -45t-82 -19q-27 0 -57 9t-56.5 31t-45 56t-18.5 78q0 26 9 55t30.5 55t56.5 45t81 19zM934 494q29 0 48 18t19 42q0 26 -18.5 43t-48.5 17q-29 0 -48 -17
t-19 -43q0 -24 19 -42t48 -18zM85 0v718h131l334 -487v487h131v-718h-132l-333 484v-484h-131z" />
    <glyph glyph-name="uni2117" unicode="&#x2117;" horiz-adv-x="816" 
d="M408 732q36 0 83 -9.5t95 -35.5t92.5 -70.5t73.5 -113.5t29 -144t-29 -143.5t-80.5 -120t-120 -80.5t-143.5 -29t-143.5 29t-120 80.5t-80.5 120t-29 143.5q0 56 16.5 110t47 99t79.5 85t111.5 59.5t118.5 19.5zM408 58q62 0 118 23.5t98.5 65.5t66 97t23.5 115
q0 61 -23.5 116t-66 96.5t-98.5 65t-118 23.5q-45 0 -89 -13.5t-81 -38t-65.5 -58t-46 -74.5t-21 -73t-3.5 -44q0 -60 24 -115t66.5 -97t98.5 -65.5t117 -23.5zM293 566h121q44 0 79.5 -21t49 -51t13.5 -59q0 -56 -40 -93t-102 -37h-33v-151h-88v412zM426 471h-45v-71h45
q18 0 30 10t12 25q0 16 -12 26t-30 10z" />
    <glyph glyph-name="trademark" unicode="&#x2122;" horiz-adv-x="811" 
d="M16 631v87h281v-87h-101v-261h-78v261h-102zM548 498l90 220h80l48 -348h-79l-28 190l-73 -190h-71l-71 191l-29 -191h-83l49 348h77z" />
    <glyph glyph-name="uni2126" unicode="&#x2126;" horiz-adv-x="824" 
d="M696 142h84v-142h-295v107q33 17 70 49.5t60.5 85t23.5 116.5q0 47 -16.5 89.5t-46.5 74.5t-72.5 50t-91.5 18t-91.5 -18t-72.5 -50t-46.5 -74.5t-16.5 -89.5q0 -54 17 -100.5t52 -85.5t85 -65v-107h-295v142h84q-31 35 -54 97t-23 124q0 74 27 142t76 119t116 79.5
t142 28.5t142 -28.5t116 -79.5t76 -119t27 -142q0 -62 -23 -124t-54 -97z" />
    <glyph glyph-name="estimated" unicode="&#x212e;" horiz-adv-x="792" 
d="M751 283h-572q22 -76 83.5 -115.5t146.5 -39.5q74 0 136.5 26.5t99.5 74.5l42 -117q-35 -57 -112.5 -91.5t-169.5 -34.5q-53 0 -114 17t-110 54t-80 81.5t-48.5 101.5t-17.5 121q0 76 27.5 144.5t77 119t115.5 79t138 28.5q81 0 149 -28.5t116 -80t73.5 -121.5t25.5 -149
q0 -36 -6 -70zM393 590q-35 0 -72 -9t-67.5 -29t-50 -52t-25.5 -75h437q-6 52 -35 88t-76.5 56.5t-110.5 20.5z" />
    <glyph glyph-name="onethird" unicode="&#x2153;" horiz-adv-x="801" 
d="M642 718l-429 -718h-107l429 718h107zM40 529v92l103 80h67v-395h-90v272zM611 87q29 0 46 12t17 30q0 17 -15 27t-40 10q-7 0 -24.5 -2.5t-28.5 -10.5l-15 65l77 81h-121v96h237v-69l-73 -77q96 -25 96 -120q0 -59 -43 -98.5t-111 -39.5q-48 0 -82.5 20t-45.5 45l21 73
q20 -20 44 -31t61 -11z" />
    <glyph glyph-name="twothirds" unicode="&#x2154;" horiz-adv-x="871" 
d="M154 614q-48 0 -80 -56l-39 64q7 22 27 44.5t48 33t54 10.5q38 0 66 -15t45 -43.5t17 -63.5q0 -29 -11 -53t-27 -43.5t-34 -39.5l-45 -50h128v-96h-269v75l121 124q25 26 34.5 40.5t9.5 30.5t-12 27t-33 11zM712 718l-429 -718h-107l429 718h107zM681 87q29 0 46 12
t17 30q0 17 -15 27t-40 10q-7 0 -24.5 -2.5t-28.5 -10.5l-15 65l77 81h-121v96h237v-69l-73 -77q96 -25 96 -120q0 -59 -43 -98.5t-111 -39.5q-48 0 -82.5 20t-45.5 45l21 73q20 -20 44 -31t61 -11z" />
    <glyph glyph-name="oneeighth" unicode="&#x215b;" horiz-adv-x="798" 
d="M642 718l-429 -718h-107l429 718h107zM40 529v92l103 80h67v-395h-90v272zM707 206q21 -12 36 -36t15 -53q0 -41 -24.5 -71.5t-58 -42.5t-61.5 -12t-61 12t-57.5 42.5t-24.5 71.5q0 22 11.5 47.5t37.5 41.5q-14 11 -26.5 32t-12.5 45q0 36 22 66.5t53 42.5t58 12
t58.5 -12t53.5 -42.5t22 -66.5q0 -24 -13 -45t-28 -32zM614 310q-19 0 -30 -9t-11 -23q0 -12 11 -21.5t30 -9.5t30 9.5t11 21.5q0 14 -10.5 23t-30.5 9zM614 85q23 0 37 10.5t14 27.5t-14 27.5t-37 10.5t-37 -10.5t-14 -27.5q0 -16 14 -27t37 -11z" />
    <glyph glyph-name="threeeighths" unicode="&#x215c;" horiz-adv-x="849" 
d="M152 393q29 0 46 12t17 30q0 17 -15 27t-40 10q-7 0 -24.5 -2.5t-28.5 -10.5l-15 65l77 81h-121v96h237v-69l-73 -77q96 -25 96 -120q0 -59 -43 -98.5t-111 -39.5q-48 0 -82.5 20t-45.5 45l21 73q20 -20 44 -31t61 -11zM758 206q21 -12 36 -36t15 -53q0 -41 -24.5 -71.5
t-58 -42.5t-61.5 -12t-61 12t-57.5 42.5t-24.5 71.5q0 22 11.5 47.5t37.5 41.5q-14 11 -26.5 32t-12.5 45q0 36 22 66.5t53 42.5t58 12t58.5 -12t53.5 -42.5t22 -66.5q0 -24 -13 -45t-28 -32zM665 310q-19 0 -30 -9t-11 -23q0 -12 11 -21.5t30 -9.5t30 9.5t11 21.5
q0 14 -10.5 23t-30.5 9zM665 85q23 0 37 10.5t14 27.5t-14 27.5t-37 10.5t-37 -10.5t-14 -27.5q0 -16 14 -27t37 -11zM693 718l-429 -718h-107l429 718h107z" />
    <glyph glyph-name="fiveeighths" unicode="&#x215d;" horiz-adv-x="854" 
d="M157 393q25 0 42 11.5t17 32.5q0 17 -14.5 28.5t-35.5 11.5q-18 0 -33 -5.5t-24 -15.5l-58 18l24 227h209v-96h-143l-4 -44q13 5 37 5q27 0 58.5 -12.5t54 -45t22.5 -73.5q0 -46 -25 -79.5t-60.5 -46t-62.5 -12.5q-24 0 -51.5 7t-49 23.5t-29.5 34.5l21 73q20 -20 44 -31
t61 -11zM763 206q21 -12 36 -36t15 -53q0 -41 -24.5 -71.5t-58 -42.5t-61.5 -12t-61 12t-57.5 42.5t-24.5 71.5q0 22 11.5 47.5t37.5 41.5q-14 11 -26.5 32t-12.5 45q0 36 22 66.5t53 42.5t58 12t58.5 -12t53.5 -42.5t22 -66.5q0 -24 -13 -45t-28 -32zM670 310q-19 0 -30 -9
t-11 -23q0 -12 11 -21.5t30 -9.5t30 9.5t11 21.5q0 14 -10.5 23t-30.5 9zM670 85q23 0 37 10.5t14 27.5t-14 27.5t-37 10.5t-37 -10.5t-14 -27.5q0 -16 14 -27t37 -11zM698 718l-429 -718h-107l429 718h107z" />
    <glyph glyph-name="seveneighths" unicode="&#x215e;" horiz-adv-x="775" 
d="M50 306l135 299h-151v96h258v-67l-147 -328h-95zM619 718l-429 -718h-107l429 718h107zM684 206q21 -12 36 -36t15 -53q0 -41 -24.5 -71.5t-58 -42.5t-61.5 -12t-61 12t-57.5 42.5t-24.5 71.5q0 22 11.5 47.5t37.5 41.5q-14 11 -26.5 32t-12.5 45q0 36 22 66.5t53 42.5
t58 12t58.5 -12t53.5 -42.5t22 -66.5q0 -24 -13 -45t-28 -32zM591 310q-19 0 -30 -9t-11 -23q0 -12 11 -21.5t30 -9.5t30 9.5t11 21.5q0 14 -10.5 23t-30.5 9zM591 85q23 0 37 10.5t14 27.5t-14 27.5t-37 10.5t-37 -10.5t-14 -27.5q0 -16 14 -27t37 -11z" />
    <glyph glyph-name="arrowleft" unicode="&#x2190;" horiz-adv-x="718" 
d="M35 277l283 241v-183h345v-115h-345v-183z" />
    <glyph glyph-name="arrowup" unicode="&#x2191;" horiz-adv-x="553" 
d="M277 649l240 -283h-183v-344h-115v344h-183z" />
    <glyph glyph-name="arrowright" unicode="&#x2192;" horiz-adv-x="718" 
d="M400 518l283 -241l-283 -240v183h-345v115h345v183z" />
    <glyph glyph-name="arrowdown" unicode="&#x2193;" horiz-adv-x="553" 
d="M517 305l-240 -283l-241 283h183v344h115v-344h183z" />
    <glyph glyph-name="uni2196" unicode="&#x2196;" horiz-adv-x="589" 
d="M84 208l-29 370l370 -30l-130 -129l244 -244l-81 -82l-245 244z" />
    <glyph glyph-name="uni2197" unicode="&#x2197;" horiz-adv-x="589" 
d="M534 578l-29 -370l-129 129l-245 -244l-81 82l244 244l-130 129z" />
    <glyph glyph-name="uni2198" unicode="&#x2198;" horiz-adv-x="589" 
d="M55 93l29 370l129 -129l245 244l81 -82l-244 -244l130 -129z" />
    <glyph glyph-name="uni2199" unicode="&#x2199;" horiz-adv-x="589" 
d="M505 463l29 -370l-370 30l130 129l-244 244l81 82l245 -244z" />
    <glyph glyph-name="partialdiff" unicode="&#x2202;" horiz-adv-x="593" 
d="M253 732q62 0 115.5 -28.5t91.5 -82t58.5 -130.5t20.5 -169q0 -76 -19 -139.5t-53.5 -107t-81.5 -66.5t-101 -23q-49 0 -93.5 19t-77.5 52.5t-52 78.5t-19 94t18 91.5t50 73.5t76 48t93 17q44 0 77.5 -15.5t52.5 -37.5q-4 61 -24 102t-55 64.5t-84 23.5q-28 0 -58 -9
t-49 -24l-29 110q17 24 53.5 41t89.5 17zM287 121q36 0 65 20t42 50.5t14 62.5q-14 34 -48 52.5t-73 18.5q-35 0 -64 -16.5t-40 -40.5t-11 -45q0 -22 11 -46.5t39.5 -40t64.5 -15.5z" />
    <glyph glyph-name="uni2206" unicode="&#x2206;" horiz-adv-x="655" 
d="M385 718l264 -718h-643l264 718h115zM183 129h291l-145 403z" />
    <glyph glyph-name="product" unicode="&#x220f;" horiz-adv-x="663" 
d="M85 718h493v-718h-121v587h-251v-587h-121v718z" />
    <glyph glyph-name="summation" unicode="&#x2211;" horiz-adv-x="564" 
d="M202 131h317v-131h-499v98l234 274l-224 249v97h472v-131h-284l195 -215z" />
    <glyph glyph-name="minus" unicode="&#x2212;" horiz-adv-x="548" 
d="M498 240h-448v114h448v-114z" />
    <glyph glyph-name="uni2215" unicode="&#x2215;" horiz-adv-x="538" 
d="M537 718l-429 -718h-107l429 718h107z" />
    <glyph glyph-name="uni2219" unicode="&#x2219;" horiz-adv-x="314" 
d="M70 337q0 36 25.5 61.5t61.5 25.5t61.5 -25.5t25.5 -61.5t-25.5 -61.5t-61.5 -25.5t-61.5 25.5t-25.5 61.5z" />
    <glyph glyph-name="radical" unicode="&#x221a;" horiz-adv-x="681" 
d="M530 815h135l-263 -815h-116l-148 388h-118v127h200l115 -315z" />
    <glyph glyph-name="infinity" unicode="&#x221e;" horiz-adv-x="788" 
d="M559 137q-26 0 -57 9t-59 31t-49 49q-69 -89 -165 -89q-74 0 -126.5 52t-52.5 132t52.5 132t126.5 52q95 0 165 -90q38 50 81.5 70t83.5 20q74 0 126.5 -52t52.5 -132t-52.5 -132t-126.5 -52zM559 395q-53 0 -104 -74q51 -74 104 -74q30 0 52 22t22 52t-22 52t-52 22z
M229 247q53 0 104 74q-51 74 -104 74q-30 0 -52 -22t-22 -52t22 -52t52 -22z" />
    <glyph glyph-name="integral" unicode="&#x222b;" horiz-adv-x="459" 
d="M287 -16q0 -49 -16 -86t-46.5 -59t-76.5 -29t-104 2v129q55 -10 85.5 9.5t30.5 58.5v556q0 49 16 86t46.5 59t76.5 29t104 -2v-129q-55 10 -85.5 -9.5t-30.5 -58.5v-556z" />
    <glyph glyph-name="approxequal" unicode="&#x2248;" horiz-adv-x="541" 
d="M165 319h-99q-16 38 -16 72q0 25 12 53t43 46.5t70 18.5q25 0 50 -9t67 -33t61 -24q13 0 22.5 8t9.5 23q0 14 -9 35h99q16 -38 16 -73q0 -52 -34.5 -84.5t-87.5 -32.5q-42 0 -94.5 29t-64.5 33t-20 4q-15 0 -24.5 -8.5t-9.5 -23.5q0 -14 9 -34zM165 85h-99q-16 38 -16 72
q0 25 12 53t43 46.5t70 18.5q25 0 50 -9t67 -33t61 -24q13 0 22.5 8t9.5 23q0 14 -9 35h99q16 -38 16 -73q0 -52 -34.5 -84.5t-87.5 -32.5q-42 0 -94.5 29t-64.5 33t-20 4q-15 0 -24.5 -8.5t-9.5 -23.5q0 -14 9 -34z" />
    <glyph glyph-name="notequal" unicode="&#x2260;" horiz-adv-x="548" 
d="M498 135h-253l-55 -102h-116l55 102h-79v114h140l52 96h-192v114h254l55 102h115l-55 -102h79v-114h-140l-52 -96h192v-114z" />
    <glyph glyph-name="equivalence" unicode="&#x2261;" horiz-adv-x="548" 
d="M50 435v114h448v-114h-448zM50 46v113h448v-113h-448zM50 240v114h448v-114h-448z" />
    <glyph glyph-name="lessequal" unicode="&#x2264;" horiz-adv-x="548" 
d="M498 0h-448v114h448v-114zM50 441l448 164v-124l-256 -91l256 -90v-124l-448 164v101z" />
    <glyph glyph-name="greaterequal" unicode="&#x2265;" horiz-adv-x="548" 
d="M498 0h-448v114h448v-114zM50 605l448 -164v-101l-448 -164v124l256 90l-256 91v124z" />
    <glyph glyph-name="uni2460" unicode="&#x2460;" horiz-adv-x="816" 
d="M408 732q36 0 83 -9.5t95 -35.5t92.5 -70.5t73.5 -113.5t29 -144t-29 -143.5t-80.5 -120t-120 -80.5t-143.5 -29t-143.5 29t-120 80.5t-80.5 120t-29 143.5q0 56 16.5 110t47 99t79.5 85t111.5 59.5t118.5 19.5zM408 58q62 0 118 23.5t98.5 65.5t66 97t23.5 115
q0 61 -23.5 116t-66 96.5t-98.5 65t-118 23.5q-45 0 -89 -13.5t-81 -38t-65.5 -58t-46 -74.5t-21 -73t-3.5 -44q0 -60 24 -115t66.5 -97t98.5 -65.5t117 -23.5zM297 390v92l103 80h67v-395h-90v272z" />
    <glyph glyph-name="uni2461" unicode="&#x2461;" horiz-adv-x="816" 
d="M408 732q36 0 83 -9.5t95 -35.5t92.5 -70.5t73.5 -113.5t29 -144t-29 -143.5t-80.5 -120t-120 -80.5t-143.5 -29t-143.5 29t-120 80.5t-80.5 120t-29 143.5q0 56 16.5 110t47 99t79.5 85t111.5 59.5t118.5 19.5zM408 58q62 0 118 23.5t98.5 65.5t66 97t23.5 115
q0 61 -23.5 116t-66 96.5t-98.5 65t-118 23.5q-45 0 -89 -13.5t-81 -38t-65.5 -58t-46 -74.5t-21 -73t-3.5 -44q0 -60 24 -115t66.5 -97t98.5 -65.5t117 -23.5zM392 475q-48 0 -80 -56l-39 64q7 22 27 44.5t48 33t54 10.5q38 0 66 -15t45 -43.5t17 -63.5q0 -29 -11 -53
t-27 -43.5t-34 -39.5l-45 -50h128v-96h-269v75l121 124q25 26 34.5 40.5t9.5 30.5t-12 27t-33 11z" />
    <glyph glyph-name="uni2462" unicode="&#x2462;" horiz-adv-x="816" 
d="M408 732q36 0 83 -9.5t95 -35.5t92.5 -70.5t73.5 -113.5t29 -144t-29 -143.5t-80.5 -120t-120 -80.5t-143.5 -29t-143.5 29t-120 80.5t-80.5 120t-29 143.5q0 56 16.5 110t47 99t79.5 85t111.5 59.5t118.5 19.5zM408 58q62 0 118 23.5t98.5 65.5t66 97t23.5 115
q0 61 -23.5 116t-66 96.5t-98.5 65t-118 23.5q-45 0 -89 -13.5t-81 -38t-65.5 -58t-46 -74.5t-21 -73t-3.5 -44q0 -60 24 -115t66.5 -97t98.5 -65.5t117 -23.5zM393 254q29 0 46 12t17 30q0 17 -15 27t-40 10q-7 0 -24.5 -2.5t-28.5 -10.5l-15 65l77 81h-121v96h237v-69
l-73 -77q96 -25 96 -120q0 -59 -43 -98.5t-111 -39.5q-48 0 -82.5 20t-45.5 45l21 73q20 -20 44 -31t61 -11z" />
    <glyph glyph-name="uni2463" unicode="&#x2463;" horiz-adv-x="816" 
d="M408 732q36 0 83 -9.5t95 -35.5t92.5 -70.5t73.5 -113.5t29 -144t-29 -143.5t-80.5 -120t-120 -80.5t-143.5 -29t-143.5 29t-120 80.5t-80.5 120t-29 143.5q0 56 16.5 110t47 99t79.5 85t111.5 59.5t118.5 19.5zM408 58q62 0 118 23.5t98.5 65.5t66 97t23.5 115
q0 61 -23.5 116t-66 96.5t-98.5 65t-118 23.5q-45 0 -89 -13.5t-81 -38t-65.5 -58t-46 -74.5t-21 -73t-3.5 -44q0 -60 24 -115t66.5 -97t98.5 -65.5t117 -23.5zM250 346l161 216h80v-202h46v-90h-46v-103h-88v103h-153v76zM344 360h59v80z" />
    <glyph glyph-name="uni2464" unicode="&#x2464;" horiz-adv-x="816" 
d="M408 732q36 0 83 -9.5t95 -35.5t92.5 -70.5t73.5 -113.5t29 -144t-29 -143.5t-80.5 -120t-120 -80.5t-143.5 -29t-143.5 29t-120 80.5t-80.5 120t-29 143.5q0 56 16.5 110t47 99t79.5 85t111.5 59.5t118.5 19.5zM408 58q62 0 118 23.5t98.5 65.5t66 97t23.5 115
q0 61 -23.5 116t-66 96.5t-98.5 65t-118 23.5q-45 0 -89 -13.5t-81 -38t-65.5 -58t-46 -74.5t-21 -73t-3.5 -44q0 -60 24 -115t66.5 -97t98.5 -65.5t117 -23.5zM390 254q25 0 42 11.5t17 32.5q0 17 -14.5 28.5t-35.5 11.5q-18 0 -33 -5.5t-24 -15.5l-58 18l24 227h209v-96
h-143l-4 -44q13 5 37 5q27 0 58.5 -12.5t54 -45t22.5 -73.5q0 -46 -25 -79.5t-60.5 -46t-62.5 -12.5q-24 0 -51.5 7t-49 23.5t-29.5 34.5l21 73q20 -20 44 -31t61 -11z" />
    <glyph glyph-name="uni2465" unicode="&#x2465;" horiz-adv-x="816" 
d="M408 732q36 0 83 -9.5t95 -35.5t92.5 -70.5t73.5 -113.5t29 -144t-29 -143.5t-80.5 -120t-120 -80.5t-143.5 -29t-143.5 29t-120 80.5t-80.5 120t-29 143.5q0 56 16.5 110t47 99t79.5 85t111.5 59.5t118.5 19.5zM408 58q62 0 118 23.5t98.5 65.5t66 97t23.5 115
q0 61 -23.5 116t-66 96.5t-98.5 65t-118 23.5q-45 0 -89 -13.5t-81 -38t-65.5 -58t-46 -74.5t-21 -73t-3.5 -44q0 -60 24 -115t66.5 -97t98.5 -65.5t117 -23.5zM492 562l-88 -130q38 0 74 -21.5t51 -52.5t15 -59q0 -21 -7 -41.5t-21 -40t-45.5 -39.5t-73.5 -20
q-62 0 -103.5 40.5t-41.5 99.5q0 50 44 117l96 147h100zM399 254q22 0 37 12.5t15 30.5q0 19 -15 32t-39 13q-22 0 -37.5 -12.5t-15.5 -32.5q0 -19 16 -31t39 -12z" />
    <glyph glyph-name="uni2466" unicode="&#x2466;" horiz-adv-x="816" 
d="M408 732q36 0 83 -9.5t95 -35.5t92.5 -70.5t73.5 -113.5t29 -144t-29 -143.5t-80.5 -120t-120 -80.5t-143.5 -29t-143.5 29t-120 80.5t-80.5 120t-29 143.5q0 56 16.5 110t47 99t79.5 85t111.5 59.5t118.5 19.5zM408 58q62 0 118 23.5t98.5 65.5t66 97t23.5 115
q0 61 -23.5 116t-66 96.5t-98.5 65t-118 23.5q-45 0 -89 -13.5t-81 -38t-65.5 -58t-46 -74.5t-21 -73t-3.5 -44q0 -60 24 -115t66.5 -97t98.5 -65.5t117 -23.5zM295 167l135 299h-151v96h258v-67l-147 -328h-95z" />
    <glyph glyph-name="uni2467" unicode="&#x2467;" horiz-adv-x="816" 
d="M408 732q36 0 83 -9.5t95 -35.5t92.5 -70.5t73.5 -113.5t29 -144t-29 -143.5t-80.5 -120t-120 -80.5t-143.5 -29t-143.5 29t-120 80.5t-80.5 120t-29 143.5q0 56 16.5 110t47 99t79.5 85t111.5 59.5t118.5 19.5zM408 58q62 0 118 23.5t98.5 65.5t66 97t23.5 115
q0 61 -23.5 116t-66 96.5t-98.5 65t-118 23.5q-45 0 -89 -13.5t-81 -38t-65.5 -58t-46 -74.5t-21 -73t-3.5 -44q0 -60 24 -115t66.5 -97t98.5 -65.5t117 -23.5zM501 373q21 -12 36 -36t15 -53q0 -41 -24.5 -71.5t-58 -42.5t-61.5 -12t-61 12t-57.5 42.5t-24.5 71.5
q0 22 11.5 47.5t37.5 41.5q-14 11 -26.5 32t-12.5 45q0 36 22 66.5t53 42.5t58 12t58.5 -12t53.5 -42.5t22 -66.5q0 -24 -13 -45t-28 -32zM408 477q-19 0 -30 -9t-11 -23q0 -12 11 -21.5t30 -9.5t30 9.5t11 21.5q0 14 -10.5 23t-30.5 9zM408 252q23 0 37 10.5t14 27.5
t-14 27.5t-37 10.5t-37 -10.5t-14 -27.5q0 -16 14 -27t37 -11z" />
    <glyph glyph-name="uni2468" unicode="&#x2468;" horiz-adv-x="816" 
d="M408 732q36 0 83 -9.5t95 -35.5t92.5 -70.5t73.5 -113.5t29 -144t-29 -143.5t-80.5 -120t-120 -80.5t-143.5 -29t-143.5 29t-120 80.5t-80.5 120t-29 143.5q0 56 16.5 110t47 99t79.5 85t111.5 59.5t118.5 19.5zM408 58q62 0 118 23.5t98.5 65.5t66 97t23.5 115
q0 61 -23.5 116t-66 96.5t-98.5 65t-118 23.5q-45 0 -89 -13.5t-81 -38t-65.5 -58t-46 -74.5t-21 -73t-3.5 -44q0 -60 24 -115t66.5 -97t98.5 -65.5t117 -23.5zM324 167l88 130q-38 0 -74 21.5t-51 52.5t-15 59q0 21 7 41.5t21 40t45.5 39.5t73.5 20q62 0 103.5 -40.5
t41.5 -99.5q0 -50 -44 -117l-96 -147h-100zM417 475q-22 0 -37 -12.5t-15 -30.5q0 -19 15 -32t39 -13q22 0 37.5 12.5t15.5 32.5q0 19 -16 31t-39 12z" />
    <glyph glyph-name="lozenge" unicode="&#x25ca;" horiz-adv-x="576" 
d="M349 718l197 -359l-197 -359h-122l-197 359l197 359h122zM288 136l122 223l-122 223l-122 -223z" />
    <glyph glyph-name="circle" unicode="&#x25cb;" horiz-adv-x="816" 
d="M408 732q36 0 83 -9.5t95 -35.5t92.5 -70.5t73.5 -113.5t29 -144t-29 -143.5t-80.5 -120t-120 -80.5t-143.5 -29t-143.5 29t-120 80.5t-80.5 120t-29 143.5q0 56 16.5 110t47 99t79.5 85t111.5 59.5t118.5 19.5zM408 58q62 0 118 23.5t98.5 65.5t66 97t23.5 115
q0 61 -23.5 116t-66 96.5t-98.5 65t-118 23.5q-45 0 -89 -13.5t-81 -38t-65.5 -58t-46 -74.5t-21 -73t-3.5 -44q0 -60 24 -115t66.5 -97t98.5 -65.5t117 -23.5z" />
    <glyph glyph-name="H18533" unicode="&#x25cf;" horiz-adv-x="816" 
d="M408 732q36 0 83 -9.5t95 -35.5t92.5 -70.5t73.5 -113.5t29 -144t-29 -143.5t-80.5 -120t-120 -80.5t-143.5 -29t-143.5 29t-120 80.5t-80.5 120t-29 143.5q0 56 16.5 110t47 99t79.5 85t111.5 59.5t118.5 19.5z" />
    <glyph glyph-name="uni2713" unicode="&#x2713;" horiz-adv-x="965" 
d="M867 732l88 -90l-595 -642h-93l-257 290l92 88l213 -241z" />
    <glyph glyph-name="uni2715" unicode="&#x2715;" horiz-adv-x="826" 
d="M504 359l282 -282l-91 -91l-282 283l-282 -283l-91 91l282 282l-282 283l91 90l282 -282l282 282l91 -90z" />
    <glyph glyph-name="uni2776" unicode="&#x2776;" horiz-adv-x="816" 
d="M297 482v-92l80 49v-272h90v395h-67zM408 732q36 0 83 -9.5t95 -35.5t92.5 -70.5t73.5 -113.5t29 -144t-29 -143.5t-80.5 -120t-120 -80.5t-143.5 -29t-143.5 29t-120 80.5t-80.5 120t-29 143.5q0 56 16.5 110t47 99t79.5 85t111.5 59.5t118.5 19.5z" />
    <glyph glyph-name="uni2777" unicode="&#x2777;" horiz-adv-x="816" 
d="M392 475q21 0 33 -11t12 -27q0 -12 -7 -26t-37 -45l-121 -124v-75h269v96h-128l45 50q48 52 60 79.5t12 56.5q0 35 -17 63.5t-45 43.5t-66 15q-26 0 -54 -10.5t-48 -33t-27 -44.5l39 -64q32 56 80 56zM408 732q36 0 83 -9.5t95 -35.5t92.5 -70.5t73.5 -113.5t29 -144
t-29 -143.5t-80.5 -120t-120 -80.5t-143.5 -29t-143.5 29t-120 80.5t-80.5 120t-29 143.5q0 56 16.5 110t47 99t79.5 85t111.5 59.5t118.5 19.5z" />
    <glyph glyph-name="uni2778" unicode="&#x2778;" horiz-adv-x="816" 
d="M393 254q-28 0 -54 8.5t-51 33.5l-21 -73q11 -25 45.5 -45t82.5 -20q68 0 111 39.5t43 98.5q0 95 -96 120l73 77v69h-237v-96h121l-77 -81l15 -65q6 5 21.5 9t31.5 4q25 0 40 -10t15 -27q0 -18 -17 -30t-46 -12zM408 732q36 0 83 -9.5t95 -35.5t92.5 -70.5t73.5 -113.5
t29 -144t-29 -143.5t-80.5 -120t-120 -80.5t-143.5 -29t-143.5 29t-120 80.5t-80.5 120t-29 143.5q0 56 16.5 110t47 99t79.5 85t111.5 59.5t118.5 19.5z" />
    <glyph glyph-name="uni2779" unicode="&#x2779;" horiz-adv-x="816" 
d="M411 562l-161 -216v-76h153v-103h88v103h46v90h-46v202h-80zM403 360h-59l59 80v-80zM408 732q36 0 83 -9.5t95 -35.5t92.5 -70.5t73.5 -113.5t29 -144t-29 -143.5t-80.5 -120t-120 -80.5t-143.5 -29t-143.5 29t-120 80.5t-80.5 120t-29 143.5q0 56 16.5 110t47 99
t79.5 85t111.5 59.5t118.5 19.5z" />
    <glyph glyph-name="uni277A" unicode="&#x277a;" horiz-adv-x="816" 
d="M390 254q-28 0 -54 8.5t-51 33.5l-21 -73q8 -18 29.5 -34.5t49 -23.5t51.5 -7q27 0 62.5 12.5t60.5 46t25 79.5q0 41 -22.5 73.5t-54 45t-58.5 12.5q-24 0 -37 -5l4 44h143v96h-209l-24 -227l58 -18q9 10 24 15.5t33 5.5q21 0 35.5 -11.5t14.5 -28.5q0 -21 -17 -32.5
t-42 -11.5zM408 732q36 0 83 -9.5t95 -35.5t92.5 -70.5t73.5 -113.5t29 -144t-29 -143.5t-80.5 -120t-120 -80.5t-143.5 -29t-143.5 29t-120 80.5t-80.5 120t-29 143.5q0 56 16.5 110t47 99t79.5 85t111.5 59.5t118.5 19.5z" />
    <glyph glyph-name="uni277B" unicode="&#x277b;" horiz-adv-x="816" 
d="M404 432l88 130h-100l-96 -147q-44 -67 -44 -117q0 -59 41.5 -99.5t103.5 -40.5q30 0 60 13t50.5 36t28.5 47t8 45q0 28 -15 59t-51 52.5t-74 21.5zM399 254q-23 0 -39 12t-16 31q0 20 15.5 32.5t37.5 12.5q24 0 39 -13t15 -32q0 -18 -15 -30.5t-37 -12.5zM408 732
q36 0 83 -9.5t95 -35.5t92.5 -70.5t73.5 -113.5t29 -144t-29 -143.5t-80.5 -120t-120 -80.5t-143.5 -29t-143.5 29t-120 80.5t-80.5 120t-29 143.5q0 56 16.5 110t47 99t79.5 85t111.5 59.5t118.5 19.5z" />
    <glyph glyph-name="uni277C" unicode="&#x277c;" horiz-adv-x="816" 
d="M430 466l-135 -299h95l147 328v67h-258v-96h151zM408 732q36 0 83 -9.5t95 -35.5t92.5 -70.5t73.5 -113.5t29 -144t-29 -143.5t-80.5 -120t-120 -80.5t-143.5 -29t-143.5 29t-120 80.5t-80.5 120t-29 143.5q0 56 16.5 110t47 99t79.5 85t111.5 59.5t118.5 19.5z" />
    <glyph glyph-name="uni277D" unicode="&#x277d;" horiz-adv-x="816" 
d="M501 373q15 11 28 32t13 45q0 36 -22 66.5t-53.5 42.5t-58.5 12t-58 -12t-53 -42.5t-22 -66.5q0 -24 12.5 -45t26.5 -32q-20 -12 -34.5 -36t-14.5 -53q0 -41 24.5 -71.5t57.5 -42.5t61 -12t61.5 12t58 42.5t24.5 71.5q0 29 -15 53t-36 36zM408 477q20 0 30.5 -9t10.5 -23
q0 -12 -11 -21.5t-30 -9.5t-30 9.5t-11 21.5q0 14 11 23t30 9zM408 252q-23 0 -37 11t-14 27q0 17 14 27.5t37 10.5t37 -10.5t14 -27.5t-14 -27.5t-37 -10.5zM408 732q36 0 83 -9.5t95 -35.5t92.5 -70.5t73.5 -113.5t29 -144t-29 -143.5t-80.5 -120t-120 -80.5t-143.5 -29
t-143.5 29t-120 80.5t-80.5 120t-29 143.5q0 56 16.5 110t47 99t79.5 85t111.5 59.5t118.5 19.5z" />
    <glyph glyph-name="uni277E" unicode="&#x277e;" horiz-adv-x="816" 
d="M412 297l-88 -130h100l96 147q44 67 44 117q0 59 -41.5 99.5t-103.5 40.5q-30 0 -60 -13t-50.5 -36t-28.5 -47t-8 -45q0 -28 15 -59t51 -52.5t74 -21.5zM417 475q23 0 39 -12t16 -31q0 -20 -15.5 -32.5t-37.5 -12.5q-24 0 -39 13t-15 32q0 18 15 30.5t37 12.5zM408 732
q36 0 83 -9.5t95 -35.5t92.5 -70.5t73.5 -113.5t29 -144t-29 -143.5t-80.5 -120t-120 -80.5t-143.5 -29t-143.5 29t-120 80.5t-80.5 120t-29 143.5q0 56 16.5 110t47 99t79.5 85t111.5 59.5t118.5 19.5z" />
    <glyph glyph-name="uni27E6" unicode="&#x27e6;" horiz-adv-x="611" 
d="M536 -169h-436v887h436v-128h-101v-631h101v-128zM217 -41h101v631h-101v-631z" />
    <glyph glyph-name="uni27E7" unicode="&#x27e7;" horiz-adv-x="611" 
d="M511 -169h-436v128h101v631h-101v128h436v-887zM293 -41h101v631h-101v-631z" />
    <glyph glyph-name="uni2E28" unicode="&#x2e28;" horiz-adv-x="614" 
d="M236 722l111 -10q-74 -98 -109 -212t-35 -227q0 -110 35 -223.5t109 -212.5l-111 -10q-49 57 -83.5 125t-53.5 149.5t-19 171.5q0 60 12 140t48.5 161.5t95.5 147.5zM463 722l111 -10q-74 -98 -109 -212t-35 -227q0 -110 35 -223.5t109 -212.5l-111 -10q-49 57 -83.5 125
t-53.5 149.5t-19 171.5q0 60 12 140t48.5 161.5t95.5 147.5z" />
    <glyph glyph-name="uni2E29" unicode="&#x2e29;" horiz-adv-x="614" 
d="M40 712l111 10q49 -55 83.5 -123t53.5 -151t19 -175q0 -90 -19 -171.5t-53.5 -149.5t-83.5 -125l-111 10q74 99 109 212.5t35 223.5q0 113 -35 227t-109 212zM267 712l111 10q49 -55 83.5 -123t53.5 -151t19 -175q0 -90 -19 -171.5t-53.5 -149.5t-83.5 -125l-111 10
q74 99 109 212.5t35 223.5q0 113 -35 227t-109 212z" />
    <glyph glyph-name="uni3008" unicode="&#x3008;" horiz-adv-x="408" 
d="M366 718l-164 -444l164 -443h-118l-183 443l183 444h118z" />
    <glyph glyph-name="uni3009" unicode="&#x3009;" horiz-adv-x="408" 
d="M206 274l-164 444h118l183 -444l-183 -443h-118z" />
    <glyph glyph-name="uniF485" unicode="&#xf485;" horiz-adv-x="972" 
d="M442 636l-26 -124q-31 35 -76 56.5t-87 21.5q-27 0 -47 -10t-20 -32q0 -23 48 -62q8 -6 58.5 -46.5t77.5 -64.5q34 -30 57.5 -61t33 -64t9.5 -61q0 -33 -10.5 -68t-40 -68.5t-75 -50t-92.5 -16.5q-76 0 -140 38t-83 85l39 124q32 -45 86 -75t105 -30q34 0 56 15.5
t22 43.5q0 16 -9 33.5t-43 46.5q-15 12 -52.5 42.5t-63.5 53t-46 43.5q-32 34 -51 69.5t-19 78.5q0 51 23.5 90t68.5 63.5t107 24.5q46 0 88 -17t66.5 -39.5t35.5 -39.5zM911 636l-26 -124q-31 35 -76 56.5t-87 21.5q-27 0 -47 -10t-20 -32q0 -23 48 -62q8 -6 58.5 -46.5
t77.5 -64.5q34 -30 57.5 -61t33 -64t9.5 -61q0 -33 -10.5 -68t-40 -68.5t-75 -50t-92.5 -16.5q-76 0 -140 38t-83 85l39 124q32 -45 86 -75t105 -30q34 0 56 15.5t22 43.5q0 16 -9 33.5t-43 46.5q-15 12 -52.5 42.5t-63.5 53t-46 43.5q-32 34 -51 69.5t-19 78.5
q0 51 23.5 90t68.5 63.5t107 24.5q46 0 88 -17t66.5 -39.5t35.5 -39.5z" />
    <glyph glyph-name="uniF6C3" unicode="&#xf6c3;" horiz-adv-x="220" 
d="M33 -286l51 103q-20 5 -35 21t-15 40q0 28 23 48.5t55 20.5q31 0 52 -21t21 -50q0 -33 -30 -82l-48 -80h-74z" />
    <glyph glyph-name="uniFB01" unicode="&#xfb01;" horiz-adv-x="693" 
d="M467 673q0 16 8.5 36t30 34.5t46.5 14.5q16 0 36 -8.5t34.5 -30t14.5 -46.5q0 -16 -8.5 -36t-30 -34.5t-46.5 -14.5q-16 0 -36 8.5t-34.5 30t-14.5 46.5zM489 515h127v-515h-127v515zM410 515v-135h-163v-380h-127v380h-89v135h89v45q0 82 46 132t129 50q33 0 62.5 -12
t49.5 -30l-16 -112q-34 24 -72 24q-21 0 -39 -10t-25.5 -27.5t-7.5 -35.5v-24h163z" />
    <glyph glyph-name="uniFB02" unicode="&#xfb02;" horiz-adv-x="692" 
d="M489 0v728h127v-728h-127zM410 515v-135h-163v-380h-127v380h-89v135h89v45q0 82 46 132t129 50q33 0 62.5 -12t49.5 -30l-16 -112q-34 24 -72 24q-21 0 -39 -10t-25.5 -27.5t-7.5 -35.5v-24h163z" />
    <glyph glyph-name="percent.aalt" 
d="M541 587v-114l-482 -342v114zM425 -10q-65 0 -109 44.5t-44 106.5t44 106.5t109 44.5t109 -44.5t44 -106.5t-44 -106.5t-109 -44.5zM425 194q-26 0 -42 -15.5t-16 -37.5t16 -37.5t42 -15.5t42 15.5t16 37.5t-16 37.5t-42 15.5zM175 426q-65 0 -109 44.5t-44 106.5
t44 106.5t109 44.5t109 -44.5t44 -106.5t-44 -106.5t-109 -44.5zM175 630q-26 0 -42 -15.5t-16 -37.5t16 -37.5t42 -15.5t42 15.5t16 37.5t-16 37.5t-42 15.5z" />
    <glyph glyph-name="plus.tnum" 
d="M76 354h171v167h106v-167h171v-114h-171v-167h-106v167h-171v114z" />
    <glyph glyph-name="comma.aalt" 
d="M201 -146l69 147q-23 5 -42 27t-19 56q0 28 16 51t38 32t40 9t39 -9.5t36 -33.5t15 -52q0 -22 -7 -47t-30 -62l-69 -118h-86z" />
    <glyph glyph-name="period.aalt" 
d="M205 81q0 18 9.5 40.5t33 38.5t52.5 16q19 0 41 -9.5t38 -33t16 -52.5q0 -19 -9 -41t-33 -38t-53 -16t-52.5 16t-33 38t-9.5 41z" />
    <glyph glyph-name="slash.aalt" horiz-adv-x="484" 
d="M484 796l-364 -887h-120l364 887h120z" />
    <glyph glyph-name="less.aalt" 
d="M76 348l448 190v-125l-272 -116l272 -115v-125l-448 190v101z" />
    <glyph glyph-name="equal.tnum" 
d="M524 345h-448v114h448v-114zM524 135h-448v114h448v-114z" />
    <glyph glyph-name="greater.aalt" 
d="M76 538l448 -190v-101l-448 -190v125l272 115l-272 116v125z" />
    <glyph glyph-name="at.aalt" horiz-adv-x="956" 
d="M558 274v33q-6 11 -28.5 19.5t-50.5 8.5q-39 0 -61.5 -13t-22.5 -36t22 -35.5t62 -12.5q25 0 48.5 10t30.5 26zM661 418v-108q0 -28 14.5 -47t39.5 -19q21 0 39 15.5t27.5 51t9.5 70.5q0 64 -25 120.5t-68.5 97.5t-100 63.5t-115.5 22.5q-64 0 -122 -25.5t-102 -70.5
t-68.5 -105.5t-24.5 -126.5q0 -67 22.5 -127t64.5 -104.5t101.5 -69.5t130.5 -25q55 0 98 13t81 43l19 -89q-33 -33 -85.5 -51.5t-112.5 -18.5q-85 0 -161.5 32.5t-133 91.5t-88 138t-31.5 168q0 64 21 136t71.5 136.5t112 100t113.5 46.5t92 11q38 0 87.5 -10t102 -37
t94.5 -68t71 -93.5t40 -104t11 -92.5q0 -49 -9.5 -92.5t-30 -77t-54.5 -53t-80 -19.5q-30 0 -60 11t-62 45q-16 -23 -55 -39.5t-81 -16.5q-54 0 -90.5 19.5t-55 50t-18.5 71.5q0 40 22.5 73t63 49.5t82.5 16.5q28 0 57.5 -7.5t42.5 -22.5v10q0 23 -10.5 41.5t-32.5 27
t-49 8.5q-39 0 -76.5 -16.5t-55.5 -40.5l-24 88q22 33 70 55.5t95 22.5q82 0 134 -45t52 -124z" />
    <glyph glyph-name="Q.ss02" horiz-adv-x="810" 
d="M405 732q93 0 178 -45t138.5 -132t53.5 -196q0 -74 -27 -140.5t-74 -116.5l123 -158h-158l-65 83q-39 -21 -83.5 -31t-85.5 -10q-73 0 -140.5 28t-119.5 79t-81 120t-29 146t29 146t81 120t119.5 79t140.5 28zM405 590q-49 0 -92.5 -16.5t-75.5 -47.5t-50 -74t-18 -93
t18 -93t50 -74t75.5 -47.5t92.5 -16.5q44 0 81 12l-123 159h159l68 -88q23 29 36.5 67t13.5 81q0 37 -12 77t-44.5 78t-81 57t-97.5 19z" />
    <glyph glyph-name="backslash.aalt" horiz-adv-x="484" 
d="M364 -91l-364 887h120l364 -887h-120z" />
    <glyph glyph-name="asciitilde.aalt" 
d="M194 202h-99q-16 38 -16 72q0 25 12 53t43 46.5t70 18.5q25 0 50 -9t67 -33t61 -24q13 0 22.5 8t9.5 23q0 14 -9 35h99q16 -38 16 -73q0 -52 -34.5 -84.5t-87.5 -32.5q-42 0 -94.5 29t-64.5 33t-20 4q-15 0 -24.5 -8.5t-9.5 -23.5q0 -14 9 -34z" />
    <glyph glyph-name="plusminus.aalt" 
d="M524 0h-448v114h448v-114zM76 448h171v158h106v-158h171v-114h-171v-158h-106v158h-171v114z" />
    <glyph glyph-name="multiply.aalt" 
d="M157 78l-79 79l146 146l-145 144l73 74l144 -145l147 146l79 -79l-146 -146l145 -144l-75 -74l-144 145z" />
    <glyph glyph-name="divide.aalt" 
d="M81 240v114h439v-114h-439zM300 179q34 0 58 -25t24 -59q0 -33 -24 -57t-58 -24q-33 0 -56.5 26.5t-23.5 61.5q0 32 23.5 54.5t56.5 22.5zM300 580q34 0 58 -25t24 -59q0 -33 -24 -57t-58 -24q-33 0 -56.5 26.5t-23.5 61.5q0 32 23.5 54.5t56.5 22.5z" />
    <glyph glyph-name="florin.aalt" 
d="M185 437l25 142q14 77 60.5 120t118.5 43q51 0 87 -17.5t54 -47.5l-27 -108q-41 43 -96 43q-27 0 -47.5 -15.5t-26.5 -47.5l-21 -112h163v-128h-185l-93 -522h-127l92 522h-92v128h115z" />
    <glyph glyph-name="minus.tnum" 
d="M524 240h-448v114h448v-114z" />
    <glyph glyph-name="approxequal.aalt" 
d="M194 319h-99q-16 38 -16 72q0 25 12 53t43 46.5t70 18.5q25 0 50 -9t67 -33t61 -24q13 0 22.5 8t9.5 23q0 14 -9 35h99q16 -38 16 -73q0 -52 -34.5 -84.5t-87.5 -32.5q-42 0 -94.5 29t-64.5 33t-20 4q-15 0 -24.5 -8.5t-9.5 -23.5q0 -14 9 -34zM194 85h-99q-16 38 -16 72
q0 25 12 53t43 46.5t70 18.5q25 0 50 -9t67 -33t61 -24q13 0 22.5 8t9.5 23q0 14 -9 35h99q16 -38 16 -73q0 -52 -34.5 -84.5t-87.5 -32.5q-42 0 -94.5 29t-64.5 33t-20 4q-15 0 -24.5 -8.5t-9.5 -23.5q0 -14 9 -34z" />
    <glyph glyph-name="notequal.aalt" 
d="M524 135h-253l-55 -102h-116l55 102h-79v114h140l52 96h-192v114h254l55 102h115l-55 -102h79v-114h-140l-52 -96h192v-114z" />
    <glyph glyph-name="lessequal.aalt" 
d="M524 0h-448v114h448v-114zM76 441l448 164v-124l-256 -91l256 -90v-124l-448 164v101z" />
    <glyph glyph-name="greaterequal.aalt" 
d="M524 0h-448v114h448v-114zM76 605l448 -164v-101l-448 -164v124l256 90l-256 91v124z" />
    <glyph glyph-name="zero.oldstyle.tnum" 
d="M572 257q0 -56 -21.5 -106.5t-59.5 -87t-88 -57t-103 -20.5t-103 20.5t-88 57t-59.5 87t-21.5 106.5t21.5 106.5t59.5 87.5t88 57.5t103 20.5q39 0 84.5 -13.5t92 -51.5t71 -94.5t24.5 -112.5zM156 257q0 -61 43 -98.5t101 -37.5t101 37.5t43 98.5t-43 99t-101 38
t-101 -38t-43 -99z" />
    <glyph glyph-name="one.oldstyle.tnum" 
d="M113 245v135l173 135h99v-373h164v-142h-456v142h165v203z" />
    <glyph glyph-name="two.oldstyle.tnum" 
d="M399 160l-49 -33h176v-127h-451v98q179 99 194 109q111 66 111 119q0 15 -9.5 31.5t-33 26.5t-52.5 10q-46 0 -85 -22.5t-62 -59.5l-55 89q13 33 42.5 63t72 47.5t96.5 17.5q49 0 89.5 -15t68 -41.5t41.5 -61.5t14 -73q0 -51 -26.5 -96t-81.5 -82z" />
    <glyph glyph-name="three.oldstyle.tnum" 
d="M281 -92q25 0 54.5 10t50.5 37t21 61q0 20 -11 44.5t-40.5 42t-69.5 17.5q-24 0 -47.5 -5.5t-36.5 -13.5l-20 96l150 190h-227v128h389v-102l-136 -173q31 -5 66.5 -23t62 -52t37 -71.5t10.5 -75.5q0 -49 -18.5 -94t-52.5 -79t-81.5 -53t-103.5 -19q-77 0 -135.5 34
t-75.5 77l32 111q63 -87 182 -87z" />
    <glyph glyph-name="four.oldstyle.tnum" 
d="M58 100l285 415h115v-387h84v-128h-84v-213h-127v213h-273v100zM203 128h128v186z" />
    <glyph glyph-name="five.oldstyle.tnum" 
d="M281 -227q-77 0 -136.5 34t-75.5 77l32 111q61 -87 178 -87q50 0 86 29.5t36 78.5q0 22 -11.5 47t-40 41.5t-61.5 16.5q-28 0 -56.5 -8.5t-48.5 -27.5l-87 22l35 408h351v-128h-246l-11 -144q31 14 75 14q35 0 73.5 -12t77 -45t58 -82t19.5 -98q0 -52 -19 -97.5
t-52.5 -79t-79 -52t-96.5 -18.5z" />
    <glyph glyph-name="six.oldstyle.tnum" 
d="M286 472l23 1q45 0 88 -18t76.5 -50.5t52.5 -76.5t19 -92q0 -24 -6.5 -55.5t-24 -64t-43.5 -58t-57.5 -42.5t-61.5 -23.5t-53 -6.5q-50 0 -95 18.5t-78 52.5t-51.5 79t-18.5 96q0 41 15.5 91.5t57.5 119.5l169 275h141zM418 229q0 22 -12 47.5t-41.5 43.5t-64.5 18
t-64.5 -18t-41 -43.5t-11.5 -47.5q0 -34 20 -61t47.5 -37t49.5 -10q35 0 64.5 17.5t41.5 43t12 47.5z" />
    <glyph glyph-name="seven.oldstyle.tnum" 
d="M120 -213l245 600h-280v128h431v-88l-263 -640h-133z" />
    <glyph glyph-name="eight.oldstyle.tnum" 
d="M449 375q39 -25 64 -70t25 -97q0 -45 -18 -86t-50.5 -71.5t-76.5 -47.5t-93 -17t-93 17t-76.5 47.5t-50.5 71.5t-18 86q0 52 24.5 97t63.5 70q-29 21 -49.5 60t-20.5 84q0 43 16 82t46 68.5t70.5 46t87.5 16.5q35 0 72.5 -11t74 -41t55 -74t18.5 -87q0 -45 -21 -84
t-50 -60zM300 597q-20 0 -42.5 -9t-37 -29.5t-14.5 -43.5q0 -22 14.5 -42.5t37 -29t42.5 -8.5t42.5 8.5t36.5 29t14 42.5q0 32 -25.5 57t-67.5 25zM300 121q22 0 48.5 9t44.5 32.5t18 52.5q0 18 -10.5 40.5t-38 38t-62.5 15.5q-22 0 -48.5 -9t-45 -32.5t-18.5 -52.5
t18.5 -52.5t45 -32.5t48.5 -9z" />
    <glyph glyph-name="nine.oldstyle.tnum" 
d="M156 -213l159 256l-23 -1q-45 0 -88 18t-76.5 50.5t-52.5 76.5t-19 92q0 24 6.5 55.5t24 64t43.5 58t57.5 42.5t61.5 23.5t53 6.5q50 0 95 -18.5t78 -52.5t51.5 -79t18.5 -96q0 -41 -15.5 -91.5t-57.5 -119.5l-175 -285h-141zM183 286q0 -22 12 -47.5t41.5 -43.5
t64.5 -18t64.5 18t41 43.5t11.5 47.5q0 34 -20 61t-47.5 37t-49.5 10q-35 0 -64.5 -17.5t-41.5 -43t-12 -47.5z" />
    <glyph glyph-name="zero.tnum" 
d="M300 732q115 0 182.5 -99.5t67.5 -275.5q0 -85 -16.5 -154t-48.5 -117.5t-78.5 -74t-104.5 -25.5q-60 0 -107.5 26t-79.5 75.5t-48.5 119t-16.5 153.5q0 85 17 154.5t49.5 118t79 74t104.5 25.5zM300 590q-51 0 -83.5 -58.5t-32.5 -174.5q0 -58 11.5 -112t40 -85.5
t65.5 -31.5q50 0 82.5 60t32.5 170q0 107 -32 169.5t-84 62.5z" />
    <glyph glyph-name="one.tnum" 
d="M111 442v141l171 135h103v-576h164v-142h-456v142h161v398z" />
    <glyph glyph-name="two.tnum" 
d="M274 590q-37 0 -75 -21t-70 -74l-56 94q12 44 44.5 76.5t75 49.5t91.5 17q38 0 77 -11.5t70.5 -38t52 -68.5t20.5 -97t-19.5 -102t-51.5 -88.5t-68 -82.5l-88 -102h244v-142h-445v112l201 223q50 56 71.5 91t21.5 74q0 17 -9 38t-33 36.5t-54 15.5z" />
    <glyph glyph-name="three.tnum" 
d="M280 128q39 0 68.5 16t40.5 40t11 45q0 19 -10.5 41.5t-38.5 37.5t-66 15q-23 0 -46 -5.5t-35 -12.5l-22 101l137 170h-214v142h389v-103l-134 -166q48 -8 87.5 -37t63 -74.5t23.5 -108.5q0 -49 -18 -93.5t-52 -78t-81.5 -52.5t-102.5 -19q-77 0 -136.5 34.5t-77.5 78.5
l33 116q64 -87 181 -87z" />
    <glyph glyph-name="four.tnum" 
d="M58 314l283 404h119v-376h82v-142h-82v-200h-131v200h-271v114zM204 342h125v179z" />
    <glyph glyph-name="five.tnum" 
d="M280 128q50 0 83.5 27t33.5 72q0 21 -11 44t-38.5 37.5t-58.5 14.5q-27 0 -55.5 -8.5t-47.5 -25.5l-90 25l35 404h354v-142h-249l-11 -123q15 6 38 9.5t39 3.5q35 0 74 -11.5t77.5 -44t58 -81.5t19.5 -98q0 -52 -19 -97.5t-53 -78.5t-79.5 -51t-95.5 -18
q-41 0 -85.5 12.5t-80.5 41.5t-46 59l33 117q30 -42 75.5 -65t99.5 -23z" />
    <glyph glyph-name="six.tnum" 
d="M291 472l18 1q45 0 88 -18t76.5 -50.5t52.5 -76.5t19 -92q0 -24 -6.5 -55.5t-24 -64t-43.5 -58t-57.5 -42.5t-61.5 -23.5t-53 -6.5q-50 0 -95 18.5t-78 52.5t-51.5 79t-18.5 96q0 41 15.5 91.5t57.5 119.5l168 275h147zM411 229q0 21 -11 45t-38.5 40.5t-60.5 16.5
q-21 0 -47 -9.5t-45 -35t-19 -57.5q0 -44 32.5 -72.5t78.5 -28.5q33 0 60.5 16t38.5 40t11 45z" />
    <glyph glyph-name="seven.tnum" 
d="M119 0l241 576h-275v142h431v-102l-259 -616h-138z" />
    <glyph glyph-name="eight.tnum" 
d="M449 375q39 -25 64 -70t25 -97q0 -45 -18 -86t-50.5 -71.5t-76.5 -47.5t-93 -17t-93 17t-76.5 47.5t-50.5 71.5t-18 86q0 52 24.5 97t63.5 70q-29 21 -49.5 60t-20.5 84q0 43 16 82t46 68.5t70.5 46t87.5 16.5q35 0 72.5 -11t74 -41t55 -74t18.5 -87q0 -45 -21 -84
t-50 -60zM300 590q-39 0 -63 -23t-24 -53t24 -52.5t63 -22.5t62.5 22.5t23.5 52.5t-23.5 53t-62.5 23zM300 128q33 0 59 15t35.5 35.5t9.5 37.5q0 37 -29.5 63t-74.5 26t-75 -26t-30 -63q0 -17 10 -37.5t36 -35.5t59 -15z" />
    <glyph glyph-name="nine.tnum" 
d="M309 246l-18 -1q-45 0 -88 18t-76.5 50.5t-52.5 76.5t-19 92q0 24 6.5 55.5t24 64t43.5 58t57.5 42.5t61.5 23.5t53 6.5q50 0 95 -18.5t78 -52.5t51.5 -79t18.5 -96q0 -41 -15.5 -91.5t-57.5 -119.5l-168 -275h-147zM189 489q0 -21 11 -45t38.5 -40.5t60.5 -16.5
q21 0 47 9.5t45 35t19 57.5q0 44 -32.5 72.5t-78.5 28.5q-33 0 -60.5 -16t-38.5 -40t-11 -45z" />
    <glyph glyph-name="dollar.tnum" 
d="M491 636l-26 -124q-32 35 -76.5 56.5t-89.5 21.5q-18 0 -34 -5t-23 -15.5t-7 -21.5q0 -23 48 -62q8 -6 58.5 -46.5t77.5 -64.5q34 -30 57.5 -61t33 -64t9.5 -61q0 -75 -43 -127.5t-114 -68.5v-104h-117v103q-43 9 -81.5 31t-58.5 45.5t-27 40.5l39 124q13 -20 40.5 -44.5
t70 -42.5t82.5 -18q22 0 41 8t27 22.5t8 29.5q0 37 -49 76q-12 10 -51.5 42t-66.5 55.5t-47 44.5q-32 34 -51 69.5t-19 78.5q0 69 41 113.5t102 58.5v103h117v-105q42 -11 76.5 -35.5t52.5 -52.5z" />
    <glyph glyph-name="Euro.tnum" 
d="M-5 370l49 108h68q10 45 30.5 90.5t54 81.5t79.5 59t101 23q75 0 128 -30t77 -79l-44 -106q-25 34 -62.5 53.5t-80.5 19.5q-38 0 -70 -15.5t-50 -42.5t-25 -54h271l-48 -108h-239l1 -51h215l-48 -108h-140q17 -41 53.5 -62t82.5 -21q43 0 82 20.5t64 58.5l43 -106
q-14 -28 -42 -55.5t-72.5 -43.5t-95.5 -16q-52 0 -106 25t-94 79t-59 121h-123l49 108h57l-1 51h-105z" />
    <glyph glyph-name="sterling.tnum" 
d="M275 142h249v-142h-448v106q20 9 45.5 30.5t45 56t19.5 68.5l-2 20h-107v128h67q-24 66 -24 111q0 23 5 52t19 56t39 51t64.5 38.5t85.5 14.5q32 0 70.5 -11.5t69.5 -40t43 -62.5l-53 -101q-49 73 -125 73q-39 0 -61.5 -22t-22.5 -55q0 -31 27 -104h138v-128h-101l2 -17
q0 -37 -13 -69.5t-32 -52.5z" />
    <glyph glyph-name="yen.aalt" 
d="M98 319h128l-22 51h-106v108h58l-106 240h132l117 -271l117 271h135l-105 -240h62v-108h-109l-23 -51h132v-108h-141v-211h-131v211h-138v108z" />
    <glyph glyph-name="uni20BD.tnum" 
d="M44 271v141h76v306h202q61 0 117.5 -27.5t86.5 -81.5t30 -115q0 -35 -11.5 -73.5t-43 -75.5t-80 -55.5t-98.5 -18.5h-72v-51h190v-108h-190v-112h-131v112h-76v108h76v51h-76zM342 577h-91v-165h91q35 0 59 23t24 59q0 35 -23.5 59t-59.5 24z" />
    <glyph glyph-name="uni20B4.tnum" 
d="M68 397v95h261q34 26 34 53q0 23 -20 34t-50 11q-33 0 -74 -16.5t-68 -47.5l-26 115q17 27 48.5 49.5t66 32t61.5 9.5q28 0 60 -8t60.5 -28t49 -55.5t20.5 -86.5q0 -32 -16 -62h47v-95h-122q-19 -20 -50 -47h172v-95h-267q-32 -32 -32 -65q0 -29 23 -45.5t61 -16.5
q46 0 90 21.5t75 64.5l40 -117q-24 -47 -79.5 -79t-130.5 -32q-44 0 -78 12.5t-60.5 33t-47.5 58t-21 88.5q0 17 5.5 40t12.5 37h-45v95h114l50 47h-164z" />
    <glyph glyph-name="uni20B8.tnum" 
d="M74 410v142h453v-142h-161v-410h-131v410h-161zM74 610v108h453v-108h-453z" />
    <glyph glyph-name="cent.aalt" 
d="M392 -117h-90v106q-47 6 -90 28t-75.5 57.5t-51 83t-18.5 100.5t18.5 100t51 82.5t75.5 57.5t90 28v101h90v-104q46 -9 82.5 -32.5t54.5 -52.5l-36 -106q-16 20 -43 36t-58 22v-265q31 4 57.5 21t45.5 39l38 -107q-18 -31 -55.5 -54.5t-85.5 -32.5v-108zM197 258
q0 -31 11 -57t34.5 -46t59.5 -28v261q-47 -10 -76 -45.5t-29 -84.5z" />
    <glyph glyph-name="glyph472" horiz-adv-x="450" 
d="M151 922h148l85 -150h-95l-64 69l-64 -69h-95z" />
    <glyph glyph-name="glyph473" horiz-adv-x="500" 
d="M73 847q0 30 21 51t51 21t51 -21t21 -51t-21 -51t-51 -21t-51 21t-21 51zM283 847q0 30 21 51t51 21t51 -21t21 -51t-21 -51t-51 -21t-51 21t-21 51z" />
    <glyph glyph-name="glyph474" horiz-adv-x="360" 
d="M140 922h150l-120 -150h-100z" />
    <glyph glyph-name="glyph475" horiz-adv-x="360" 
d="M70 922h150l70 -150h-100z" />
    <glyph glyph-name="glyph476" horiz-adv-x="360" 
d="M70 854q0 21 11 47t38.5 44.5t60.5 18.5q21 0 47 -11t44.5 -38.5t18.5 -60.5q0 -21 -11 -47t-38.5 -44.5t-60.5 -18.5q-21 0 -47 11t-44.5 38.5t-18.5 60.5zM144 854q0 -15 11 -24t25 -9q13 0 24 9t11 24t-11 24t-24 9q-14 0 -25 -9t-11 -24z" />
    <glyph glyph-name="glyph477" horiz-adv-x="450" 
d="M299 772h-148l-85 150h95l64 -69l64 69h95z" />
    <glyph glyph-name="glyph478" horiz-adv-x="296" 
d="M70 847q0 32 23 54t55 22t55 -22t23 -54t-23 -54t-55 -22t-55 22t-23 54z" />
    <glyph glyph-name="glyph479" horiz-adv-x="440" 
d="M272 922h98q0 -62 -44 -106t-106 -44t-106 44t-44 106h99q0 -18 15 -31.5t36 -13.5t36.5 13.5t15.5 31.5z" />
    <glyph glyph-name="glyph480" horiz-adv-x="550" 
d="M144 922h140l-120 -150h-90zM336 922h140l-120 -150h-90z" />
    <glyph glyph-name="glyph481" horiz-adv-x="489" 
d="M161 772h-78q-12 27 -12 56q0 41 28.5 67.5t69.5 26.5q33 0 74.5 -23t51.5 -26t15 -3q11 0 18 6.5t7 17.5q0 13 -7 28h78q13 -30 13 -57q0 -19 -9.5 -41t-33.5 -37t-54 -15q-33 0 -74.5 23t-51.5 26t-15 3q-18 0 -24.5 -14t4.5 -38z" />
    <glyph glyph-name="glyph482" horiz-adv-x="398" 
d="M39 888h320v-98h-320v98z" />
    <glyph glyph-name="hyphen.aalt" horiz-adv-x="470" 
d="M70 424h330v-110h-330v110z" />
    <glyph glyph-name="endash.aalt" 
d="M45 314v110h510v-110h-510z" />
    <glyph glyph-name="emdash.case" horiz-adv-x="924" 
d="M45 314v110h834v-110h-834z" />
    <glyph glyph-name="emdash.case.ss03" horiz-adv-x="1449" 
d="M1404 314h-1359v110h1359v-110z" />
    <glyph glyph-name="bracketleft.aalt" horiz-adv-x="393" 
d="M318 -91h-218v887h218v-128h-101v-631h101v-128z" />
    <glyph glyph-name="bracketright.aalt" horiz-adv-x="393" 
d="M293 -91h-218v128h101v631h-101v128h218v-887z" />
    <glyph glyph-name="braceleft.aalt" horiz-adv-x="415" 
d="M142 79l19 130q4 22 -3 41.5t-28 34.5t-55 15v103q39 0 65.5 24t20.5 67l-19 132q-6 42 5.5 76.5t39 58t68.5 33t90 2.5v-116q-43 4 -68.5 -17t-19.5 -62l21 -131q5 -32 -4 -58t-24.5 -40t-28.5 -20q30 -14 47 -44.5t10 -73.5l-21 -131q-6 -41 19.5 -62t68.5 -17v-115
q-49 -7 -90 2.5t-68.5 33t-39 58t-5.5 76.5z" />
    <glyph glyph-name="braceright.aalt" horiz-adv-x="415" 
d="M254 209l19 -130q6 -42 -5.5 -76.5t-39 -58t-68.5 -33t-90 -2.5v115q43 -4 68.5 17t19.5 62l-21 131q-5 32 4 58t24.5 40t28.5 20q-30 14 -47 44.5t-10 73.5l21 131q6 41 -19.5 62t-68.5 17v116q49 7 90 -2.5t68.5 -33t39 -58t5.5 -76.5l-19 -132q-6 -43 20.5 -67
t65.5 -24v-103q-23 0 -46 -10t-33.5 -31.5t-6.5 -49.5z" />
    <glyph glyph-name="parenleft.case" horiz-adv-x="387" 
d="M236 800l111 -10q-74 -98 -109 -212t-35 -227q0 -110 35 -223.5t109 -212.5l-111 -10q-49 57 -83.5 125t-53.5 149.5t-19 171.5q0 60 12 140t48.5 161.5t95.5 147.5z" />
    <glyph glyph-name="parenright.case" horiz-adv-x="387" 
d="M40 790l111 10q49 -55 83.5 -123t53.5 -151t19 -175q0 -90 -19 -171.5t-53.5 -149.5t-83.5 -125l-111 10q74 99 109 212.5t35 223.5q0 113 -35 227t-109 212z" />
    <glyph glyph-name="guillemotright.aalt" horiz-adv-x="556" 
d="M272 173l113 188l-113 184h116l138 -184l-138 -188h-116zM50 173l113 188l-113 184h116l138 -184l-138 -188h-116z" />
    <glyph glyph-name="guillemotleft.aalt" horiz-adv-x="556" 
d="M393 361l113 -188h-116l-138 188l138 184h116zM171 361l113 -188h-116l-138 188l138 184h116z" />
    <glyph glyph-name="guilsinglright.aalt" horiz-adv-x="334" 
d="M50 173l113 188l-113 184h116l138 -184l-138 -188h-116z" />
    <glyph glyph-name="guilsinglleft.aalt" horiz-adv-x="334" 
d="M171 361l113 -188h-116l-138 188l138 184h116z" />
    <glyph glyph-name="exclamdown.aalt" horiz-adv-x="384" 
d="M139 500h106l28 -500h-162zM110 650q0 33 24.5 57.5t57.5 24.5t57.5 -24.5t24.5 -57.5t-24.5 -57.5t-57.5 -24.5t-57.5 24.5t-24.5 57.5z" />
    <glyph glyph-name="questiondown.aalt" horiz-adv-x="479" 
d="M328 650q0 -33 -24.5 -57.5t-57.5 -24.5t-57.5 24.5t-24.5 57.5t24.5 57.5t57.5 24.5t57.5 -24.5t24.5 -57.5zM390 177l29 -99q-22 -38 -63 -61t-71.5 -27t-41.5 -4q-78 0 -125.5 42t-47.5 109q0 25 11 54t41 57t75 54q30 18 49.5 33.5t19.5 31.5q0 12 -9.5 19t-28.5 7
q-25 0 -54.5 -14t-52.5 -37l-21 102q19 30 57 50.5t84 20.5q65 0 107.5 -38t42.5 -96q0 -44 -27.5 -83t-95.5 -83q-32 -21 -53 -38t-21 -35q0 -17 15 -26.5t38 -9.5q33 0 72.5 16.5t70.5 54.5z" />
    <glyph glyph-name="a.ss01" horiz-adv-x="656" 
d="M42 257q0 58 21 108.5t58 87t84.5 56.5t98.5 20q55 0 97.5 -19.5t55.5 -48.5v54h123v-515h-123v54q-13 -29 -55.5 -48.5t-97.5 -19.5q-51 0 -98.5 19.5t-84.5 56t-58 87t-21 108.5zM170 257q0 -60 41.5 -98t107.5 -38q22 0 49.5 6.5t51.5 23.5t33 38v137q-12 29 -50 48.5
t-84 19.5q-66 0 -107.5 -38.5t-41.5 -98.5z" />
    <glyph glyph-name="aacute.ss01" horiz-adv-x="656" 
d="M42 257q0 58 21 108.5t58 87t84.5 56.5t98.5 20q55 0 97.5 -19.5t55.5 -48.5v54h123v-515h-123v54q-13 -29 -55.5 -48.5t-97.5 -19.5q-51 0 -98.5 19.5t-84.5 56t-58 87t-21 108.5zM170 257q0 -60 41.5 -98t107.5 -38q22 0 49.5 6.5t51.5 23.5t33 38v137q-12 29 -50 48.5
t-84 19.5q-66 0 -107.5 -38.5t-41.5 -98.5zM337 750h150l-120 -160h-100z" />
    <glyph glyph-name="agrave.ss01" horiz-adv-x="656" 
d="M42 257q0 58 21 108.5t58 87t84.5 56.5t98.5 20q55 0 97.5 -19.5t55.5 -48.5v54h123v-515h-123v54q-13 -29 -55.5 -48.5t-97.5 -19.5q-51 0 -98.5 19.5t-84.5 56t-58 87t-21 108.5zM170 257q0 -60 41.5 -98t107.5 -38q22 0 49.5 6.5t51.5 23.5t33 38v137q-12 29 -50 48.5
t-84 19.5q-66 0 -107.5 -38.5t-41.5 -98.5zM181 750h150l70 -160h-100z" />
    <glyph glyph-name="acircumflex.ss01" horiz-adv-x="656" 
d="M42 257q0 58 21 108.5t58 87t84.5 56.5t98.5 20q55 0 97.5 -19.5t55.5 -48.5v54h123v-515h-123v54q-13 -29 -55.5 -48.5t-97.5 -19.5q-51 0 -98.5 19.5t-84.5 56t-58 87t-21 108.5zM170 257q0 -60 41.5 -98t107.5 -38q22 0 49.5 6.5t51.5 23.5t33 38v137q-12 29 -50 48.5
t-84 19.5q-66 0 -107.5 -38.5t-41.5 -98.5zM254 750h156l85 -160h-99l-64 79l-64 -79h-99z" />
    <glyph glyph-name="adieresis.ss01" horiz-adv-x="656" 
d="M42 257q0 58 21 108.5t58 87t84.5 56.5t98.5 20q55 0 97.5 -19.5t55.5 -48.5v54h123v-515h-123v54q-13 -29 -55.5 -48.5t-97.5 -19.5q-51 0 -98.5 19.5t-84.5 56t-58 87t-21 108.5zM170 257q0 -60 41.5 -98t107.5 -38q22 0 49.5 6.5t51.5 23.5t33 38v137q-12 29 -50 48.5
t-84 19.5q-66 0 -107.5 -38.5t-41.5 -98.5zM156 665q0 31 22 53t53 22t53 -22t22 -53t-22 -53t-53 -22t-53 22t-22 53zM358 665q0 31 22 53t53 22t53 -22t22 -53t-22 -53t-53 -22t-53 22t-22 53z" />
    <glyph glyph-name="atilde.ss01" horiz-adv-x="656" 
d="M42 257q0 58 21 108.5t58 87t84.5 56.5t98.5 20q55 0 97.5 -19.5t55.5 -48.5v54h123v-515h-123v54q-13 -29 -55.5 -48.5t-97.5 -19.5q-51 0 -98.5 19.5t-84.5 56t-58 87t-21 108.5zM170 257q0 -60 41.5 -98t107.5 -38q22 0 49.5 6.5t51.5 23.5t33 38v137q-12 29 -50 48.5
t-84 19.5q-66 0 -107.5 -38.5t-41.5 -98.5zM249 590h-78q-12 27 -12 56q0 41 28.5 67.5t69.5 26.5q33 0 74.5 -23t51.5 -26t15 -3q11 0 18 6.5t7 17.5q0 13 -7 28h78q13 -30 13 -57q0 -19 -9.5 -41t-33.5 -37t-54 -15q-33 0 -74.5 23t-51.5 26t-15 3q-11 0 -19 -7t-8 -19
t7 -26z" />
    <glyph glyph-name="aring.ss01" horiz-adv-x="656" 
d="M42 257q0 58 21 108.5t58 87t84.5 56.5t98.5 20q55 0 97.5 -19.5t55.5 -48.5v54h123v-515h-123v54q-13 -29 -55.5 -48.5t-97.5 -19.5q-51 0 -98.5 19.5t-84.5 56t-58 87t-21 108.5zM170 257q0 -60 41.5 -98t107.5 -38q22 0 49.5 6.5t51.5 23.5t33 38v137q-12 29 -50 48.5
t-84 19.5q-66 0 -107.5 -38.5t-41.5 -98.5zM223 682q0 33 18.5 60.5t44 38.5t46.5 11t47 -11t44.5 -38.5t18.5 -60.5q0 -21 -11 -47t-38.5 -44.5t-60.5 -18.5q-21 0 -46.5 11t-44 38.5t-18.5 60.5zM297 682q0 -15 11 -24t24 -9t24 9t11 24t-11 24t-24 9t-24 -9t-11 -24z" />
    <glyph glyph-name="amacron.ss01" horiz-adv-x="656" 
d="M42 257q0 58 21 108.5t58 87t84.5 56.5t98.5 20q55 0 97.5 -19.5t55.5 -48.5v54h123v-515h-123v54q-13 -29 -55.5 -48.5t-97.5 -19.5q-51 0 -98.5 19.5t-84.5 56t-58 87t-21 108.5zM170 257q0 -60 41.5 -98t107.5 -38q22 0 49.5 6.5t51.5 23.5t33 38v137q-12 29 -50 48.5
t-84 19.5q-66 0 -107.5 -38.5t-41.5 -98.5zM172 710h320v-100h-320v100z" />
    <glyph glyph-name="abreve.ss01" horiz-adv-x="656" 
d="M42 257q0 58 21 108.5t58 87t84.5 56.5t98.5 20q55 0 97.5 -19.5t55.5 -48.5v54h123v-515h-123v54q-13 -29 -55.5 -48.5t-97.5 -19.5q-51 0 -98.5 19.5t-84.5 56t-58 87t-21 108.5zM170 257q0 -60 41.5 -98t107.5 -38q22 0 49.5 6.5t51.5 23.5t33 38v137q-12 29 -50 48.5
t-84 19.5q-66 0 -107.5 -38.5t-41.5 -98.5zM384 740h98q0 -62 -44 -106t-106 -44t-106 44t-44 106h99q0 -18 15 -31.5t36 -13.5t36.5 13.5t15.5 31.5z" />
    <glyph glyph-name="aogonek.ss01" horiz-adv-x="656" 
d="M507 0h-50v54q-13 -29 -55.5 -48.5t-97.5 -19.5q-51 0 -98.5 19.5t-84.5 56t-58 87t-21 108.5t21 108.5t58 87t84.5 56.5t98.5 20q55 0 97.5 -19.5t55.5 -48.5v54h123v-515q-21 -25 -28.5 -39.5t-7.5 -30.5q0 -18 12.5 -29.5t29.5 -11.5q18 0 29 9l14 -92
q-8 -11 -27 -20.5t-44 -9.5q-55 0 -88 31t-33 78q0 29 18.5 60.5t51.5 54.5zM170 257q0 -60 41.5 -98t107.5 -38q22 0 49.5 6.5t51.5 23.5t33 38v137q-12 29 -50 48.5t-84 19.5q-66 0 -107.5 -38.5t-41.5 -98.5z" />
    <glyph glyph-name="zero.zero" horiz-adv-x="610" 
d="M305 732q115 0 182.5 -99.5t67.5 -275.5q0 -85 -16.5 -154t-48.5 -117.5t-78.5 -74t-104.5 -25.5q-60 0 -107.5 26t-79.5 75.5t-48.5 119t-16.5 153.5q0 85 17 154.5t49.5 118t79 74t104.5 25.5zM421 358l-2 44l-192 -226q31 -48 79 -48q50 0 82.5 60t32.5 170zM305 590
q-51 0 -83.5 -58.5t-32.5 -174.5l1 -42l191 225q-31 50 -76 50z" />
    <glyph glyph-name="emdash.ss03" horiz-adv-x="1449" 
d="M1404 222h-1359v110h1359v-110z" />
    <glyph glyph-name="afii10065.ss01" horiz-adv-x="656" 
d="M42 257q0 58 21 108.5t58 87t84.5 56.5t98.5 20q55 0 97.5 -19.5t55.5 -48.5v54h123v-515h-123v54q-13 -29 -55.5 -48.5t-97.5 -19.5q-51 0 -98.5 19.5t-84.5 56t-58 87t-21 108.5zM170 257q0 -60 41.5 -98t107.5 -38q22 0 49.5 6.5t51.5 23.5t33 38v137q-12 29 -50 48.5
t-84 19.5q-66 0 -107.5 -38.5t-41.5 -98.5z" />
    <glyph glyph-name="glyph591" horiz-adv-x="579" 
d="M13 578v140h553v-140h-211v-578h-131v578h-211zM213 -286l51 103q-20 5 -35 21t-15 40q0 28 23 48.5t55 20.5q31 0 52 -21t21 -50q0 -33 -30 -82l-48 -80h-74z" />
    <glyph glyph-name="glyph592" horiz-adv-x="458" 
d="M383 160l27 -114q-19 -26 -53 -43t-75 -17q-84 0 -126.5 46t-42.5 130v218h-88v41l177 224h39v-130h163v-135h-164v-190q0 -35 18 -52t46 -17q19 0 38 7t41 32zM176 -286l51 103q-20 5 -35 21t-15 40q0 28 23 48.5t55 20.5q31 0 52 -21t21 -50q0 -33 -30 -82l-48 -80h-74
z" />
    <glyph glyph-name="uni3008.aalt" horiz-adv-x="408" 
d="M366 796l-164 -444l164 -443h-118l-183 443l183 444h118z" />
    <glyph glyph-name="uni3009.aalt" horiz-adv-x="408" 
d="M206 352l-164 444h118l183 -444l-183 -443h-118z" />
    <glyph glyph-name="glyph619" horiz-adv-x="505" 
d="M415 796v-887h-117v887h117zM207 796v-887h-117v887h117z" />
    <glyph glyph-name="glyph620" horiz-adv-x="507" 
d="M417 718v-887h-117v887h117zM207 718v-887h-117v887h117z" />
    <glyph glyph-name="bar.aalt" horiz-adv-x="297" 
d="M207 786v-887h-117v887h117z" />
    <glyph glyph-name="brokenbar.aalt" horiz-adv-x="297" 
d="M207 262v-353h-117v353h117zM207 796v-353h-117v353h117z" />
    <glyph glyph-name="bullet.aalt" horiz-adv-x="402" 
d="M201 512q58 0 99.5 -41.5t41.5 -99.5q0 -57 -42 -99t-99 -42t-99 42t-42 99t42 99t99 42z" />
    <glyph glyph-name="periodcentered.aalt" horiz-adv-x="314" 
d="M70 368q0 36 25.5 61.5t61.5 25.5t61.5 -25.5t25.5 -61.5t-25.5 -61.5t-61.5 -25.5t-61.5 25.5t-25.5 61.5z" />
    <glyph glyph-name="zero.tnum.zero" 
d="M300 732q115 0 182.5 -99.5t67.5 -275.5q0 -85 -16.5 -154t-48.5 -117.5t-78.5 -74t-104.5 -25.5q-60 0 -107.5 26t-79.5 75.5t-48.5 119t-16.5 153.5q0 85 17 154.5t49.5 118t79 74t104.5 25.5zM416 358l-2 44l-192 -226q31 -48 79 -48q50 0 82.5 60t32.5 170zM300 590
q-51 0 -83.5 -58.5t-32.5 -174.5l1 -42l191 225q-31 50 -76 50z" />
    <glyph glyph-name="zero.oldstyle.zero" horiz-adv-x="628" 
d="M586 257q0 -56 -21.5 -106.5t-59.5 -87t-88 -57t-103 -20.5t-103 20.5t-88 57t-59.5 87t-21.5 106.5t21.5 106.5t59.5 87.5t88 57.5t103 20.5q39 0 84.5 -13.5t92 -51.5t71 -94.5t24.5 -112.5zM458 257q0 23 -7 43l-207 -164q30 -15 70 -15q58 0 101 37.5t43 98.5z
M170 257q0 -19 5 -41l208 162q-34 16 -69 16q-58 0 -101 -38t-43 -99z" />
    <glyph glyph-name="parenleft.numr" horiz-adv-x="255" 
d="M144 741l80 -7q-22 -26 -43 -63.5t-32.5 -84t-11.5 -90.5t11.5 -90t32.5 -83.5t43 -63.5l-80 -7q-45 50 -67.5 112.5t-22.5 131.5q0 71 22.5 133.5t67.5 111.5z" />
    <glyph glyph-name="parenright.numr" horiz-adv-x="255" 
d="M31 734l80 7q33 -36 54.5 -81.5t28.5 -88t7 -75.5q0 -69 -22.5 -131.5t-67.5 -112.5l-80 7q22 26 43 63.5t32.5 83.5t11.5 90t-11.5 90.5t-32.5 84t-43 63.5z" />
    <glyph glyph-name="plus.numr" horiz-adv-x="342" 
d="M35 533h101v94h70v-94h101v-74h-101v-95h-70v95h-101v74z" />
    <glyph glyph-name="equal.numr" horiz-adv-x="342" 
d="M307 516h-272v74h272v-74zM307 403h-272v74h272v-74z" />
    <glyph glyph-name="minus.numr" horiz-adv-x="342" 
d="M307 459h-272v74h272v-74z" />
    <glyph glyph-name="parenleft.dnom" horiz-adv-x="255" 
d="M144 441l80 -7q-22 -26 -43 -63.5t-32.5 -84t-11.5 -90.5t11.5 -90t32.5 -83.5t43 -63.5l-80 -7q-45 50 -67.5 112.5t-22.5 131.5q0 71 22.5 133.5t67.5 111.5z" />
    <glyph glyph-name="parenright.dnom" horiz-adv-x="255" 
d="M31 434l80 7q33 -36 54.5 -81.5t28.5 -88t7 -75.5q0 -69 -22.5 -131.5t-67.5 -112.5l-80 7q22 26 43 63.5t32.5 83.5t11.5 90t-11.5 90.5t-32.5 84t-43 63.5z" />
    <glyph glyph-name="plus.dnom" horiz-adv-x="342" 
d="M35 233h101v94h70v-94h101v-74h-101v-95h-70v95h-101v74z" />
    <glyph glyph-name="equal.dnom" horiz-adv-x="342" 
d="M307 216h-272v74h272v-74zM307 103h-272v74h272v-74z" />
    <glyph glyph-name="minus.dnom" horiz-adv-x="342" 
d="M307 159h-272v74h272v-74z" />
    <glyph glyph-name="a.superior" horiz-adv-x="404" 
d="M252 398v23q-4 8 -21.5 14t-36.5 6q-29 0 -45 -9.5t-16 -24.5t16 -23.5t44 -8.5q20 0 37 7t22 16zM76 507l-23 77q18 28 57 44.5t81 16.5q70 0 113 -35.5t43 -98.5v-211h-92v29q-12 -18 -38.5 -28t-55.5 -10q-24 0 -53.5 10t-50 37t-20.5 63q0 32 16.5 56t48 39.5
t70.5 15.5q25 0 48.5 -6t31.5 -15v6q0 14 -7.5 27.5t-25 20.5t-38.5 7q-32 0 -60.5 -12.5t-44.5 -32.5z" />
    </font>
</defs>
</svg>
